<svg id="Layer_1" data-name="Layer 1" xmlns="http://www.w3.org/2000/svg" xmlns:xlink="http://www.w3.org/1999/xlink" viewBox="0 0 111.571 32">
  <defs>
    <style>
      .cls-1 {
        fill: none;
      }

      .cls-2 {
        clip-path: url(#clip-path);
      }

      .cls-3 {
        fill: #333;
      }
    </style>
    <clipPath id="clip-path">
      <rect class="cls-1" width="32" height="32"/>
    </clipPath>
  </defs>
  <title>1af22b0d-7b88-4e58-bc53-36cc4c713637</title>
  <g>
    <g id="Apple">
      <g class="cls-2">
        <g class="cls-2">
          <path d="M15.869,7.314a6.337,6.337,0,0,1,1.437-4.571A6.9,6.9,0,0,1,22.4,0a6.914,6.914,0,0,1-1.7,5.093,5.252,5.252,0,0,1-4.832,2.22m8.881,9.665a7.022,7.022,0,0,1,3.527-6.008,7.24,7.24,0,0,0-6.269-3.265c-2.612,0-4.7,1.437-5.747,1.437-1.307,0-3.135-1.437-5.617-1.307-3.787,0-7.705,3.265-7.705,9.667S7.64,32,11.3,32c1.305,0,3.4-1.307,5.355-1.307,2.089,0,3.527,1.307,5.355,1.307,4.049,0,7.053-8.491,7.053-8.491a7.18,7.18,0,0,1-4.311-6.531"/>
        </g>
      </g>
    </g>
    <g>
      <path class="cls-3" d="M42.588,6.2h1.959A2.431,2.431,0,0,1,47.29,8.914c0,1.911-.84,2.99-2.743,2.99H42.588Zm.76,5.07h1.263c.52,0,1.919-.145,1.919-2.247,0-1.359-.5-2.183-1.9-2.183H43.348Z"/>
      <path class="cls-3" d="M50.052,7.676a1.961,1.961,0,0,1,2.007,2.166,2.012,2.012,0,1,1-4.014,0A1.961,1.961,0,0,1,50.052,7.676Zm0,3.725c.711,0,1.287-.559,1.287-1.559s-.576-1.566-1.287-1.566-1.288.559-1.288,1.566S49.34,11.4,50.052,11.4Z"/>
      <path class="cls-3" d="M57.114,11.9h-.72l-.839-3.285h-.016L54.707,11.9h-.735L52.644,7.771H53.4l.935,3.382h.016l.832-3.382h.744l.864,3.382H56.8l.928-3.382h.7Z"/>
      <path class="cls-3" d="M59.244,7.771h.64v.655H59.9a1.438,1.438,0,0,1,1.343-.751c1.087,0,1.423.623,1.423,1.511V11.9h-.679v-2.8a.778.778,0,0,0-.84-.831A1.161,1.161,0,0,0,59.924,9.57V11.9h-.68Z"/>
      <path class="cls-3" d="M63.892,6.2h.68V11.9h-.68Z"/>
      <path class="cls-3" d="M67.571,7.676a1.961,1.961,0,0,1,2.007,2.166,2.012,2.012,0,1,1-4.014,0A1.961,1.961,0,0,1,67.571,7.676Zm0,3.725c.711,0,1.287-.559,1.287-1.559s-.576-1.566-1.287-1.566-1.288.559-1.288,1.566S66.859,11.4,67.571,11.4Z"/>
      <path class="cls-3" d="M74.2,11.889a.914.914,0,0,1-.488.112c-.352,0-.576-.192-.576-.64a1.835,1.835,0,0,1-1.455.64c-.752,0-1.368-.336-1.368-1.159,0-.936.7-1.136,1.4-1.271.751-.145,1.391-.1,1.391-.607,0-.592-.488-.687-.919-.687-.576,0-1,.176-1.031.783h-.68c.04-1.023.832-1.383,1.751-1.383.744,0,1.551.167,1.551,1.135v2.127c0,.32,0,.463.216.463a.6.6,0,0,0,.208-.039ZM73.1,9.77a3.49,3.49,0,0,1-1.231.28c-.448.08-.832.239-.832.743,0,.448.384.607.8.607.9,0,1.263-.559,1.263-.935Z"/>
      <path class="cls-3" d="M78.689,11.9h-.68v-.559h-.016A1.393,1.393,0,0,1,76.675,12a1.937,1.937,0,0,1-1.9-2.175,1.909,1.909,0,0,1,1.887-2.15,1.584,1.584,0,0,1,1.335.646h.016V6.2h.68Zm-1.919-.5c.912,0,1.264-.783,1.264-1.559,0-.815-.368-1.566-1.3-1.566s-1.239.791-1.239,1.6C75.491,10.649,75.891,11.4,76.771,11.4Z"/>
      <path class="cls-3" d="M84.066,7.676a1.961,1.961,0,0,1,2.007,2.166,2.012,2.012,0,1,1-4.014,0A1.961,1.961,0,0,1,84.066,7.676Zm0,3.725c.711,0,1.287-.559,1.287-1.559s-.576-1.566-1.287-1.566-1.288.559-1.288,1.566S83.354,11.4,84.066,11.4Z"/>
      <path class="cls-3" d="M87.035,7.771h.64v.655h.016a1.438,1.438,0,0,1,1.343-.751c1.087,0,1.423.623,1.423,1.511V11.9h-.679v-2.8a.778.778,0,0,0-.84-.831A1.161,1.161,0,0,0,87.715,9.57V11.9h-.68Z"/>
      <path class="cls-3" d="M94.97,7.771h.824v.6H94.97v2.566c0,.312.088.367.512.367h.312v.6h-.52c-.7,0-.984-.144-.984-.9V8.371h-.7v-.6h.7V6.531h.68Z"/>
      <path class="cls-3" d="M96.707,6.2h.68V8.379H97.4a1.4,1.4,0,0,1,1.3-.7c1.087,0,1.423.623,1.423,1.511V11.9H99.45v-2.8a.778.778,0,0,0-.84-.831A1.161,1.161,0,0,0,97.387,9.57V11.9h-.68Z"/>
      <path class="cls-3" d="M104.841,10.594A1.667,1.667,0,0,1,103.074,12c-1.319,0-1.943-.911-1.982-2.175a1.989,1.989,0,0,1,1.943-2.15c1.463,0,1.911,1.367,1.871,2.366h-3.094A1.217,1.217,0,0,0,103.1,11.4a1,1,0,0,0,1.071-.807Zm-.655-1.151a1.19,1.19,0,0,0-1.191-1.167,1.177,1.177,0,0,0-1.184,1.167Z"/>
    </g>
    <g>
      <path class="cls-3" d="M45.872,16.814H48.25L52.194,27.36H49.786l-.8-2.349H45.045l-.827,2.349H41.869Zm-.222,6.469h2.732l-1.329-3.869h-.029Z"/>
      <path class="cls-3" d="M52.886,19.725H54.88V20.7h.03a2.54,2.54,0,0,1,2.274-1.182c2.393,0,3.471,1.935,3.471,4.105,0,2.039-1.123,3.944-3.353,3.944a2.712,2.712,0,0,1-2.29-1.152h-.029v3.634h-2.1Zm5.672,3.84c0-1.211-.487-2.467-1.831-2.467-1.374,0-1.817,1.227-1.817,2.467s.473,2.422,1.832,2.422S58.558,24.8,58.558,23.564Z"/>
      <path class="cls-3" d="M61.909,19.725H63.9V20.7h.03a2.54,2.54,0,0,1,2.274-1.182c2.393,0,3.471,1.935,3.471,4.105,0,2.039-1.123,3.944-3.353,3.944a2.711,2.711,0,0,1-2.289-1.152h-.03v3.634h-2.1Zm5.672,3.84c0-1.211-.488-2.467-1.832-2.467-1.374,0-1.816,1.227-1.816,2.467s.473,2.422,1.832,2.422S67.581,24.8,67.581,23.564Z"/>
      <path class="cls-3" d="M76.839,23.859c0,1.4,1.093,1.95,2.333,1.95.813,0,2.053-.236,2.053-1.314,0-1.138-1.581-1.329-3.131-1.743s-3.146-1.02-3.146-3c0-2.156,2.039-3.191,3.944-3.191,2.2,0,4.224.961,4.224,3.4H80.872c-.074-1.271-.975-1.6-2.083-1.6-.738,0-1.6.311-1.6,1.2,0,.813.5.916,3.146,1.595.768.192,3.131.68,3.131,3.072,0,1.936-1.521,3.383-4.387,3.383-2.333,0-4.52-1.152-4.49-3.752Z"/>
      <path class="cls-3" d="M87.28,19.725h1.536v1.4H87.28v3.781c0,.709.177.887.886.887a3.257,3.257,0,0,0,.65-.06v1.64a8.107,8.107,0,0,1-1.226.074c-1.285,0-2.408-.3-2.408-1.816V21.127H83.912v-1.4h1.271v-2.29h2.1Z"/>
      <path class="cls-3" d="M93.527,19.518a3.749,3.749,0,0,1,3.958,4.032,3.952,3.952,0,1,1-7.9,0A3.745,3.745,0,0,1,93.527,19.518Zm0,6.469c1.433,0,1.861-1.226,1.861-2.437S94.96,21.1,93.527,21.1c-1.418,0-1.846,1.227-1.846,2.452S92.109,25.986,93.527,25.986Z"/>
      <path class="cls-3" d="M98.843,19.725h1.994v1.418h.03a2.7,2.7,0,0,1,2.437-1.625,1.577,1.577,0,0,1,.458.073v1.95a3.782,3.782,0,0,0-.753-.074c-1.536,0-2.068,1.107-2.068,2.452V27.36h-2.1Z"/>
      <path class="cls-3" d="M106.05,24.052c.059,1.329.709,1.935,1.876,1.935A1.727,1.727,0,0,0,109.58,25h1.846a3.436,3.436,0,0,1-3.575,2.57,3.73,3.73,0,0,1-3.9-4.018,3.829,3.829,0,0,1,3.9-4.032c2.6,0,3.855,2.186,3.708,4.534Zm3.412-1.329c-.192-1.063-.65-1.625-1.669-1.625a1.653,1.653,0,0,0-1.743,1.625Z"/>
    </g>
  </g>
</svg>
