<?xml version="1.0" encoding="iso-8859-1"?>
<!-- Generator: Adobe Illustrator 22.0.1, SVG Export Plug-In . SVG Version: 6.00 Build 0)  -->
<svg version="1.1" id="Layer_1" xmlns="http://www.w3.org/2000/svg" xmlns:xlink="http://www.w3.org/1999/xlink" x="0px" y="0px"
	 width="24px" height="23.949px" viewBox="0 0 24 23.949" enable-background="new 0 0 24 23.949" xml:space="preserve">
<path d="M14.5,8.768l-6,6v8.66c-0.692-0.213-1.366-0.468-2-0.796v-9.451l6-6V0.005c0.683,0.029,1.351,0.112,2,0.251V8.768z M11.5,0
	L11.5,0C5.106,0.264,0,5.516,0,11.975c0,4.23,2.194,7.941,5.5,10.078v-9.285l6-6V0z M17.5,1.317c-0.634-0.328-1.308-0.583-2-0.796
	v8.66l-6,6v8.511c0.649,0.14,1.317,0.222,2,0.251v-7.176l6-6V1.317z M18.5,1.897v9.285l-6,6v6.768
	C18.894,23.685,24,18.433,24,11.975C24,7.745,21.806,4.034,18.5,1.897z" fill="rgb(0, 0, 95)"/>
<g>
</g>
<g>
</g>
<g>
</g>
<g>
</g>
<g>
</g>
<g>
</g>
<g>
</g>
<g>
</g>
<g>
</g>
<g>
</g>
<g>
</g>
<g>
</g>
<g>
</g>
<g>
</g>
<g>
</g>
</svg>
