<svg xmlns="http://www.w3.org/2000/svg" width="32" height="32" viewBox="0 0 32 32">
    <g fill="none" fill-rule="evenodd">
        <circle cx="16" cy="16" r="16" fill="#FF1744"/>
        <path fill="#FFF" fill-rule="nonzero" d="M8 17.9l2.83-2.83 2.53-.5C16.58 10.19 22.74 8 24.97 8c0 2.23-2.19 8.39-6.57 11.61l-.5 2.53-2.83 2.83-.71-3.53c-1.41 0-1.41 0-2.12-.71-.71-.71-.71-.71-.71-2.12L8 17.9zm2.83 2.83l1.41 1.41-2.66 2.67H8.16v-1.42l2.67-2.66zm-1.42-1.41l1.24.17-2.46 2.45v-1.42l1.22-1.2zm4.07 3l.17 1.24-1.2 1.22h-1.42l2.45-2.46zm4.71-9.04a1.5 1.5 0 1 0 0 3 1.5 1.5 0 0 0 0-3z"/>
    </g>
</svg>
