<svg id="Layer_1" data-name="Layer 1" xmlns="http://www.w3.org/2000/svg" viewBox="0 0 193.257 40.679">
  <defs>
    <style>
      .cls-1 {
        fill: #5db3ed;
      }

      .cls-2 {
        fill: #ffa93b;
      }

      .cls-3 {
        fill: none;
      }

      .cls-4 {
        fill: #918fa2;
      }
    </style>
  </defs>
  <title>a0f5ff71-36c6-4417-b91e-1ebd618450b1</title>
  <path class="cls-1" d="M34.446,7.592a6.222,6.222,0,0,1,1.6,4.483v10.1h-4.6V13.42a3.315,3.315,0,0,0-.852-2.406,3.07,3.07,0,0,0-2.316-.882,3.49,3.49,0,0,0-2.7,1.181,4.32,4.32,0,0,0-1,2.944v7.921h-4.6V0h4.6V8.937a5.994,5.994,0,0,1,5.559-3.019A5.693,5.693,0,0,1,34.446,7.592Z"/>
  <path class="cls-1" d="M45.4,6.725a6.378,6.378,0,0,1,3.139-.807v4.334a6.412,6.412,0,0,0-.718-.03,4.75,4.75,0,0,0-3.362,1.15,3.98,3.98,0,0,0-1.241,3.064v7.742h-4.6V6.1h4.6V9A5.851,5.851,0,0,1,45.4,6.725Z"/>
  <path class="cls-1" d="M62.233,6.964a7.336,7.336,0,0,1,3.033,2.869,8.421,8.421,0,0,1,1.076,4.3,8.435,8.435,0,0,1-1.076,4.289,7.4,7.4,0,0,1-3.033,2.9,10.392,10.392,0,0,1-9.027,0,7.4,7.4,0,0,1-3.033-2.9A8.435,8.435,0,0,1,49.1,14.138a8.421,8.421,0,0,1,1.076-4.3,7.336,7.336,0,0,1,3.033-2.869,10.531,10.531,0,0,1,9.027,0ZM54.82,11a4.555,4.555,0,0,0-1.12,3.2,4.553,4.553,0,0,0,1.12,3.2,4.041,4.041,0,0,0,5.8,0,4.553,4.553,0,0,0,1.12-3.2,4.555,4.555,0,0,0-1.12-3.2,4.043,4.043,0,0,0-5.8,0Z"/>
  <path class="cls-1" d="M82.578,7.592a6.22,6.22,0,0,1,1.6,4.483v10.1h-4.6V13.42a3.315,3.315,0,0,0-.852-2.406,3.071,3.071,0,0,0-2.316-.882,3.444,3.444,0,0,0-2.69,1.181,4.365,4.365,0,0,0-.986,2.944v7.921h-4.6V6.1h4.6v2.81a6.009,6.009,0,0,1,5.559-2.989A5.653,5.653,0,0,1,82.578,7.592Z"/>
  <path class="cls-1" d="M99.268,6.964A7.338,7.338,0,0,1,102.3,9.833a8.421,8.421,0,0,1,1.076,4.3,8.435,8.435,0,0,1-1.076,4.289,7.4,7.4,0,0,1-3.034,2.9,10.39,10.39,0,0,1-9.026,0,7.4,7.4,0,0,1-3.034-2.9,8.435,8.435,0,0,1-1.076-4.289,8.421,8.421,0,0,1,1.076-4.3,7.334,7.334,0,0,1,3.034-2.869,10.53,10.53,0,0,1,9.026,0ZM91.855,11a4.553,4.553,0,0,0-1.121,3.2,4.55,4.55,0,0,0,1.121,3.2,4.041,4.041,0,0,0,5.8,0,4.55,4.55,0,0,0,1.121-3.2A4.553,4.553,0,0,0,97.654,11a4.042,4.042,0,0,0-5.8,0Z"/>
  <path class="cls-2" d="M130.305,1.255h4.872l-7.084,20.923h-4.872L118.828,7.084l-4.453,15.094h-4.842L102.478,1.255h5.081L112.1,16.449l4.513-15.194h4.633L125.822,16.6Z"/>
  <path class="cls-2" d="M144.324,22.178V20.295a5.169,5.169,0,0,1-2.092,1.555,7.606,7.606,0,0,1-2.959.538A5.689,5.689,0,0,1,135.237,21a4.728,4.728,0,0,1-1.495-3.631,4.271,4.271,0,0,1,1.6-3.543,7.246,7.246,0,0,1,4.528-1.3h4.424v-.3a2.431,2.431,0,0,0-.852-1.988,3.841,3.841,0,0,0-2.5-.7,9.946,9.946,0,0,0-4.782,1.4l-1.435-3.168a19.2,19.2,0,0,1,3.586-1.4,14.216,14.216,0,0,1,3.677-.448A7.463,7.463,0,0,1,147,7.443a5.377,5.377,0,0,1,1.808,4.244l.03,10.491Zm-1.285-3.767a2.682,2.682,0,0,0,1.255-1.733V15.244h-3.617a3.611,3.611,0,0,0-1.988.433,1.555,1.555,0,0,0-.643,1.39,1.818,1.818,0,0,0,.673,1.48,2.807,2.807,0,0,0,1.838.552A4.411,4.411,0,0,0,143.038,18.412Z"/>
  <path class="cls-2" d="M151.307,0h4.6V22.178h-4.6Z"/>
  <path class="cls-2" d="M158.778,0h4.6V22.178h-4.6Z"/>
  <path class="cls-2" d="M179.979,8.19A9.007,9.007,0,0,1,182,14.437c0,.478-.011.847-.03,1.106H170.429a4.086,4.086,0,0,0,4.155,3.228,5.64,5.64,0,0,0,2.182-.434,5.749,5.749,0,0,0,1.883-1.27l2.421,2.451a8.122,8.122,0,0,1-2.974,2.108,10,10,0,0,1-3.9.732,9.265,9.265,0,0,1-4.438-1.016,7.131,7.131,0,0,1-2.929-2.869A8.646,8.646,0,0,1,165.8,14.2a8.687,8.687,0,0,1,1.046-4.319,7.331,7.331,0,0,1,2.929-2.9,8.815,8.815,0,0,1,4.3-1.031A7.531,7.531,0,0,1,179.979,8.19Zm-2.316,4.632a3.647,3.647,0,0,0-1.016-2.54,3.439,3.439,0,0,0-2.541-.957,3.5,3.5,0,0,0-2.5.942,4.375,4.375,0,0,0-1.27,2.556Z"/>
  <path class="cls-2" d="M193.257,21.281a7.555,7.555,0,0,1-1.988.822,8.709,8.709,0,0,1-2.2.284,5.189,5.189,0,0,1-3.646-1.285,4.732,4.732,0,0,1-1.405-3.677V12.663a10.273,10.273,0,0,0-2.241-5.848h2.241V2.391h4.573V6.815h4.364v3.2h-4.364v6.636q0,1.854,1.465,1.853a5.168,5.168,0,0,0,2.242-.6Z"/>
  <path class="cls-1" d="M12.846,17.648H9.707A5.183,5.183,0,0,1,4.53,12.471V9.707A5.183,5.183,0,0,1,9.707,4.53h7.669V0H9.707A9.707,9.707,0,0,0,0,9.707v2.764a9.707,9.707,0,0,0,9.707,9.707h7.669v-4.53Z"/>
  <rect class="cls-3" width="193.257" height="40.679"/>
  <g>
    <path class="cls-4" d="M20.571,34.8l-1.828-2.717h.806l1.372,2.087,1.359-2.087h.813L21.271,34.8v1.954h-.7Z"/>
    <path class="cls-4" d="M25.948,32.008a2.417,2.417,0,1,1-2.354,2.417A2.3,2.3,0,0,1,25.948,32.008Zm0,.624a1.8,1.8,0,1,0,1.632,1.793A1.634,1.634,0,0,0,25.948,32.632Z"/>
    <path class="cls-4" d="M29.565,32.085h.707v2.822a1.258,1.258,0,1,0,2.515,0V32.085h.707v2.836a1.763,1.763,0,0,1-1.961,1.919,1.769,1.769,0,0,1-1.968-1.912Z"/>
    <path class="cls-4" d="M36.53,34.957h-.875v1.8h-.7V32.085h1.968a1.392,1.392,0,0,1,1.5,1.436,1.3,1.3,0,0,1-1.163,1.366l1.2,1.87h-.812Zm.3-2.255H35.655V34.34h1.177a.821.821,0,1,0,0-1.639Z"/>
    <path class="cls-4" d="M45.947,33.045l-1.513,3.712H44.14l-1.513-3.712v3.712h-.7V32.085h1l1.359,3.354,1.358-3.354h1v4.671h-.7Z"/>
    <path class="cls-4" d="M50.259,32.008a2.417,2.417,0,1,1-2.354,2.417A2.3,2.3,0,0,1,50.259,32.008Zm0,.624a1.8,1.8,0,1,0,1.632,1.793A1.634,1.634,0,0,0,50.259,32.632Z"/>
    <path class="cls-4" d="M53.876,32.085h1.667a2.337,2.337,0,1,1,0,4.671H53.876Zm1.667,4.055a1.72,1.72,0,0,0,0-3.439h-.967V36.14Z"/>
    <path class="cls-4" d="M59.231,32.085h3.138V32.7H59.931v1.366H62.32v.616H59.931V36.14h2.438v.616H59.231Z"/>
    <path class="cls-4" d="M65.237,34.957h-.875v1.8h-.7V32.085H65.63a1.392,1.392,0,0,1,1.5,1.436,1.3,1.3,0,0,1-1.163,1.366l1.2,1.87h-.812Zm.3-2.255H64.362V34.34h1.177a.821.821,0,1,0,0-1.639Z"/>
    <path class="cls-4" d="M69.108,33.171v3.586h-.7V32.085h.721l2.543,3.5v-3.5h.7v4.671h-.68Z"/>
    <path class="cls-4" d="M75.855,34.425a2.339,2.339,0,0,1,2.4-2.417A2.113,2.113,0,0,1,80.106,33l-.595.315a1.482,1.482,0,0,0-1.261-.679,1.8,1.8,0,0,0,0,3.586,1.482,1.482,0,0,0,1.261-.68l.595.315a2.122,2.122,0,0,1-1.855.987A2.339,2.339,0,0,1,75.855,34.425Z"/>
    <path class="cls-4" d="M82.8,34.957h-.875v1.8h-.7V32.085h1.968a1.392,1.392,0,0,1,1.5,1.436,1.3,1.3,0,0,1-1.163,1.366l1.2,1.87h-.812Zm.3-2.255H81.925V34.34H83.1a.821.821,0,1,0,0-1.639Z"/>
    <path class="cls-4" d="M87.2,34.8l-1.828-2.717h.806l1.372,2.087,1.359-2.087h.813L87.9,34.8v1.954h-.7Z"/>
    <path class="cls-4" d="M90.7,32.085h1.968a1.437,1.437,0,1,1,0,2.872H91.4v1.8h-.7Zm1.877.616H91.4V34.34H92.58a.82.82,0,1,0,0-1.639Z"/>
    <path class="cls-4" d="M96.443,32.7h-1.45v-.616h3.593V32.7H97.143v4.055h-.7Z"/>
    <path class="cls-4" d="M101.708,32.008a2.417,2.417,0,1,1-2.354,2.417A2.3,2.3,0,0,1,101.708,32.008Zm0,.624a1.8,1.8,0,1,0,1.632,1.793A1.634,1.634,0,0,0,101.708,32.632Z"/>
    <path class="cls-4" d="M105.13,34.425a2.339,2.339,0,0,1,2.4-2.417,2.113,2.113,0,0,1,1.855.987l-.595.315a1.482,1.482,0,0,0-1.261-.679,1.8,1.8,0,0,0,0,3.586,1.482,1.482,0,0,0,1.261-.68l.595.315a2.122,2.122,0,0,1-1.855.987A2.339,2.339,0,0,1,105.13,34.425Z"/>
    <path class="cls-4" d="M110.5,32.085h.707v2.822a1.258,1.258,0,1,0,2.515,0V32.085h.707v2.836a1.965,1.965,0,0,1-3.929.007Z"/>
    <path class="cls-4" d="M117.464,34.957h-.875v1.8h-.7V32.085h1.968a1.392,1.392,0,0,1,1.5,1.436,1.3,1.3,0,0,1-1.163,1.366l1.2,1.87h-.812Zm.3-2.255h-1.177V34.34h1.177a.821.821,0,1,0,0-1.639Z"/>
    <path class="cls-4" d="M122.21,34.957h-.875v1.8h-.7V32.085H122.6a1.392,1.392,0,0,1,1.5,1.436,1.3,1.3,0,0,1-1.163,1.366l1.2,1.87h-.812Zm.3-2.255h-1.177V34.34h1.177a.821.821,0,1,0,0-1.639Z"/>
    <path class="cls-4" d="M125.381,32.085h3.138V32.7h-2.438v1.366h2.389v.616h-2.389V36.14h2.438v.616h-3.138Z"/>
    <path class="cls-4" d="M130.511,33.171v3.586h-.7V32.085h.721l2.543,3.5v-3.5h.7v4.671h-.68Z"/>
    <path class="cls-4" d="M135.033,34.425a2.339,2.339,0,0,1,2.4-2.417,2.113,2.113,0,0,1,1.855.987l-.595.315a1.482,1.482,0,0,0-1.261-.679,1.8,1.8,0,0,0,0,3.586,1.482,1.482,0,0,0,1.261-.68l.595.315a2.122,2.122,0,0,1-1.855.987A2.339,2.339,0,0,1,135.033,34.425Z"/>
    <path class="cls-4" d="M141.621,34.8l-1.828-2.717h.806l1.372,2.087,1.359-2.087h.813L142.321,34.8v1.954h-.7Z"/>
    <path class="cls-4" d="M149.952,33.15l-.967,3.607h-.749L146.9,32.085h.784l.967,3.747,1.022-3.747h.567l1.016,3.747.966-3.747h.785l-1.331,4.671h-.749Z"/>
    <path class="cls-4" d="M156.65,35.79h-2.29l-.378.966h-.771l1.855-4.671h.876l1.855,4.671h-.77Zm-2.087-.624h1.884l-.945-2.472Z"/>
    <path class="cls-4" d="M158.777,32.085h.7V36.14H161.6v.616h-2.822Z"/>
    <path class="cls-4" d="M162.788,32.085h.7V36.14h2.122v.616h-2.822Z"/>
    <path class="cls-4" d="M166.8,32.085h3.138V32.7H167.5v1.366h2.389v.616H167.5V36.14h2.438v.616H166.8Z"/>
    <path class="cls-4" d="M172.372,32.7h-1.45v-.616h3.593V32.7h-1.442v4.055h-.7Z"/>
  </g>
</svg>
