<svg id="Layer_1" data-name="Layer 1" xmlns="http://www.w3.org/2000/svg" viewBox="0 0 193.257 40.679">
  <defs>
    <style>
      .cls-1 {
        fill: #fff;
      }

      .cls-2 {
        fill: #ffb54e;
      }
    </style>
  </defs>
  <title>552f38b4-8fb8-4932-b135-f65afd9d9771</title>
  <path class="cls-1" d="M34.446,7.592a6.222,6.222,0,0,1,1.6,4.483v10.1h-4.6V13.42a3.315,3.315,0,0,0-.852-2.406,3.07,3.07,0,0,0-2.316-.882,3.49,3.49,0,0,0-2.7,1.181,4.32,4.32,0,0,0-1,2.944v7.921h-4.6V0h4.6V8.937a5.994,5.994,0,0,1,5.559-3.019A5.693,5.693,0,0,1,34.446,7.592Z"/>
  <path class="cls-1" d="M45.4,6.725a6.378,6.378,0,0,1,3.139-.807v4.334a6.412,6.412,0,0,0-.718-.03,4.75,4.75,0,0,0-3.362,1.15,3.98,3.98,0,0,0-1.241,3.064v7.742h-4.6V6.1h4.6V9A5.851,5.851,0,0,1,45.4,6.725Z"/>
  <path class="cls-1" d="M62.233,6.964a7.336,7.336,0,0,1,3.033,2.869,8.421,8.421,0,0,1,1.076,4.3,8.435,8.435,0,0,1-1.076,4.289,7.4,7.4,0,0,1-3.033,2.9,10.392,10.392,0,0,1-9.027,0,7.4,7.4,0,0,1-3.033-2.9A8.435,8.435,0,0,1,49.1,14.138a8.421,8.421,0,0,1,1.076-4.3,7.336,7.336,0,0,1,3.033-2.869,10.531,10.531,0,0,1,9.027,0ZM54.82,11a4.555,4.555,0,0,0-1.12,3.2,4.553,4.553,0,0,0,1.12,3.2,4.041,4.041,0,0,0,5.8,0,4.553,4.553,0,0,0,1.12-3.2,4.555,4.555,0,0,0-1.12-3.2,4.043,4.043,0,0,0-5.8,0Z"/>
  <path class="cls-1" d="M82.578,7.592a6.22,6.22,0,0,1,1.6,4.483v10.1h-4.6V13.42a3.315,3.315,0,0,0-.852-2.406,3.071,3.071,0,0,0-2.316-.882,3.444,3.444,0,0,0-2.69,1.181,4.365,4.365,0,0,0-.986,2.944v7.921h-4.6V6.1h4.6v2.81a6.009,6.009,0,0,1,5.559-2.989A5.653,5.653,0,0,1,82.578,7.592Z"/>
  <path class="cls-1" d="M99.268,6.964A7.338,7.338,0,0,1,102.3,9.833a8.421,8.421,0,0,1,1.076,4.3,8.435,8.435,0,0,1-1.076,4.289,7.4,7.4,0,0,1-3.034,2.9,10.39,10.39,0,0,1-9.026,0,7.4,7.4,0,0,1-3.034-2.9,8.435,8.435,0,0,1-1.076-4.289,8.421,8.421,0,0,1,1.076-4.3,7.334,7.334,0,0,1,3.034-2.869,10.53,10.53,0,0,1,9.026,0ZM91.855,11a4.553,4.553,0,0,0-1.121,3.2,4.55,4.55,0,0,0,1.121,3.2,4.041,4.041,0,0,0,5.8,0,4.55,4.55,0,0,0,1.121-3.2A4.553,4.553,0,0,0,97.654,11a4.042,4.042,0,0,0-5.8,0Z"/>
  <path class="cls-2" d="M130.305,1.255h4.872l-7.084,20.923h-4.872L118.828,7.084l-4.453,15.094h-4.842L102.478,1.255h5.081L112.1,16.449l4.513-15.194h4.633L125.822,16.6Z"/>
  <path class="cls-2" d="M144.324,22.178V20.295a5.169,5.169,0,0,1-2.092,1.555,7.606,7.606,0,0,1-2.959.538A5.689,5.689,0,0,1,135.237,21a4.728,4.728,0,0,1-1.495-3.631,4.271,4.271,0,0,1,1.6-3.543,7.246,7.246,0,0,1,4.528-1.3h4.424v-.3a2.431,2.431,0,0,0-.852-1.988,3.841,3.841,0,0,0-2.5-.7,9.946,9.946,0,0,0-4.782,1.4l-1.435-3.168a19.2,19.2,0,0,1,3.586-1.4,14.216,14.216,0,0,1,3.677-.448A7.463,7.463,0,0,1,147,7.443a5.377,5.377,0,0,1,1.808,4.244l.03,10.491Zm-1.285-3.767a2.682,2.682,0,0,0,1.255-1.733V15.244h-3.617a3.611,3.611,0,0,0-1.988.433,1.555,1.555,0,0,0-.643,1.39,1.818,1.818,0,0,0,.673,1.48,2.807,2.807,0,0,0,1.838.552A4.411,4.411,0,0,0,143.038,18.412Z"/>
  <path class="cls-2" d="M151.307,0h4.6V22.178h-4.6Z"/>
  <path class="cls-2" d="M158.778,0h4.6V22.178h-4.6Z"/>
  <path class="cls-2" d="M179.979,8.19A9.007,9.007,0,0,1,182,14.437c0,.478-.011.847-.03,1.106H170.429a4.086,4.086,0,0,0,4.155,3.228,5.64,5.64,0,0,0,2.182-.434,5.749,5.749,0,0,0,1.883-1.27l2.421,2.451a8.122,8.122,0,0,1-2.974,2.108,10,10,0,0,1-3.9.732,9.265,9.265,0,0,1-4.438-1.016,7.131,7.131,0,0,1-2.929-2.869A8.646,8.646,0,0,1,165.8,14.2a8.687,8.687,0,0,1,1.046-4.319,7.331,7.331,0,0,1,2.929-2.9,8.815,8.815,0,0,1,4.3-1.031A7.531,7.531,0,0,1,179.979,8.19Zm-2.316,4.632a3.647,3.647,0,0,0-1.016-2.54,3.439,3.439,0,0,0-2.541-.957,3.5,3.5,0,0,0-2.5.942,4.375,4.375,0,0,0-1.27,2.556Z"/>
  <path class="cls-2" d="M193.257,21.281a7.555,7.555,0,0,1-1.988.822,8.709,8.709,0,0,1-2.2.284,5.189,5.189,0,0,1-3.646-1.285,4.732,4.732,0,0,1-1.405-3.677V12.663a10.273,10.273,0,0,0-2.241-5.848h2.241V2.391h4.573V6.815h4.364v3.2h-4.364v6.636q0,1.854,1.465,1.853a5.168,5.168,0,0,0,2.242-.6Z"/>
  <path class="cls-1" d="M12.846,17.648H9.707A5.183,5.183,0,0,1,4.53,12.471V9.707A5.183,5.183,0,0,1,9.707,4.53h7.669V0H9.707A9.707,9.707,0,0,0,0,9.707v2.764a9.707,9.707,0,0,0,9.707,9.707h7.669v-4.53Z"/>
  <g>
    <path class="cls-1" d="M.817,35.157a5.341,5.341,0,0,1,5.49-5.522,4.739,4.739,0,0,1,4.05,2.113l-1.1.625a3.59,3.59,0,0,0-2.945-1.553,4.091,4.091,0,0,0-4.113,4.338,4.109,4.109,0,0,0,4.113,4.338,3.632,3.632,0,0,0,2.945-1.553l1.12.608a4.8,4.8,0,0,1-4.065,2.129A5.34,5.34,0,0,1,.817,35.157Z"/>
    <path class="cls-1" d="M17.252,40.487V35.4c0-1.377-.688-1.761-1.745-1.761a2.98,2.98,0,0,0-2.272,1.2v5.65h-1.2V29.811h1.2v4.065a3.719,3.719,0,0,1,2.753-1.312,2.174,2.174,0,0,1,2.465,2.465v5.458Z"/>
    <path class="cls-1" d="M20.848,40.487V32.756h1.2v1.232a3.331,3.331,0,0,1,2.576-1.409v1.232a3.937,3.937,0,0,0-.464-.032,2.828,2.828,0,0,0-2.112,1.232v5.474Z"/>
    <path class="cls-1" d="M25.68,36.614a3.832,3.832,0,1,1,7.651,0,3.833,3.833,0,1,1-7.651,0Zm6.387,0c0-1.569-.912-2.977-2.561-2.977s-2.562,1.408-2.562,2.977c0,1.584.912,2.993,2.562,2.993S32.067,38.2,32.067,36.614Z"/>
    <path class="cls-1" d="M40.514,40.487V35.429c0-1.376-.7-1.792-1.745-1.792a3.01,3.01,0,0,0-2.288,1.2v5.65h-1.2V32.756h1.2v1.12a3.783,3.783,0,0,1,2.769-1.312,2.193,2.193,0,0,1,2.449,2.5v5.426Z"/>
    <path class="cls-1" d="M43.664,36.614a3.832,3.832,0,1,1,7.651,0,3.833,3.833,0,1,1-7.651,0Zm6.387,0c0-1.569-.912-2.977-2.561-2.977s-2.562,1.408-2.562,2.977c0,1.584.912,2.993,2.562,2.993S50.05,38.2,50.05,36.614Z"/>
    <path class="cls-1" d="M53.263,40.487V29.811h1.2v4.114a3.231,3.231,0,0,1,2.608-1.361c2.033,0,3.441,1.585,3.441,4.066,0,2.513-1.425,4.049-3.441,4.049a3.254,3.254,0,0,1-2.608-1.344v1.152Zm3.521-.88c1.553,0,2.481-1.265,2.481-2.977s-.929-2.993-2.481-2.993a2.877,2.877,0,0,0-2.32,1.249V38.39A2.852,2.852,0,0,0,56.785,39.607Z"/>
    <path class="cls-1" d="M67.3,40.487v-.88a3.32,3.32,0,0,1-2.561,1.072,2.57,2.57,0,0,1-2.689-2.561,2.51,2.51,0,0,1,2.689-2.545A3.273,3.273,0,0,1,67.3,36.614V35.221c0-1.024-.832-1.617-1.952-1.617a3.02,3.02,0,0,0-2.369,1.072l-.561-.832a4.048,4.048,0,0,1,3.09-1.281c1.648,0,2.993.736,2.993,2.609v5.314Zm0-1.633V37.382a2.612,2.612,0,0,0-2.112-.944,1.7,1.7,0,1,0,0,3.377A2.577,2.577,0,0,0,67.3,38.854Z"/>
    <path class="cls-1" d="M76.146,40.487V35.429c0-1.376-.7-1.792-1.745-1.792a3.01,3.01,0,0,0-2.288,1.2v5.65h-1.2V32.756h1.2v1.12a3.783,3.783,0,0,1,2.769-1.312,2.193,2.193,0,0,1,2.449,2.5v5.426Z"/>
    <path class="cls-1" d="M85.01,40.487l-2.77-3.474-1.3,1.265v2.209h-1.2V29.811h1.2v7.059l4.065-4.113h1.521l-3.426,3.505,3.441,4.226Z"/>
    <path class="cls-1" d="M87.727,39.767a.88.88,0,1,1,.881.88A.888.888,0,0,1,87.727,39.767Z"/>
    <path class="cls-1" d="M91.456,30.851a.82.82,0,0,1,.816-.816.807.807,0,0,1,.8.816.793.793,0,0,1-.8.8A.806.806,0,0,1,91.456,30.851Zm.208,9.636V32.756h1.2v7.731Z"/>
    <path class="cls-1" d="M94.815,36.614a3.832,3.832,0,1,1,7.651,0,3.833,3.833,0,1,1-7.651,0Zm6.387,0c0-1.569-.912-2.977-2.561-2.977s-2.562,1.408-2.562,2.977c0,1.584.912,2.993,2.562,2.993S101.2,38.2,101.2,36.614Z"/>
  </g>
</svg>
