<svg xmlns="http://www.w3.org/2000/svg" xmlns:xlink="http://www.w3.org/1999/xlink" viewBox="0 0 292 250">
  <defs>
    <style>
      .cls-1, .cls-15, .cls-20, .cls-22, .cls-24, .cls-25 {
        fill: none;
      }

      .cls-2 {
        isolation: isolate;
      }

      .cls-3 {
        fill: #574ebf;
      }

      .cls-28, .cls-4, .cls-7 {
        opacity: 0.3;
      }

      .cls-4, .cls-7 {
        mix-blend-mode: multiply;
      }

      .cls-4 {
        fill: url(#linear-gradient);
      }

      .cls-12, .cls-26, .cls-5 {
        opacity: 0.2;
      }

      .cls-6 {
        fill: #242045;
      }

      .cls-7 {
        fill: url(#linear-gradient-2);
      }

      .cls-8 {
        clip-path: url(#clip-path);
      }

      .cls-10, .cls-17, .cls-9 {
        fill: #302b5c;
      }

      .cls-17, .cls-18, .cls-19, .cls-9 {
        fill-rule: evenodd;
      }

      .cls-13, .cls-25, .cls-29, .cls-9 {
        opacity: 0.4;
      }

      .cls-11, .cls-23 {
        fill: #ffb54e;
      }

      .cls-12, .cls-13, .cls-19, .cls-21, .cls-25, .cls-28 {
        mix-blend-mode: overlay;
      }

      .cls-12 {
        fill: url(#linear-gradient-3);
      }

      .cls-14, .cls-26 {
        fill: #fff;
      }

      .cls-15, .cls-23 {
        stroke: #242045;
      }

      .cls-15, .cls-20, .cls-22, .cls-23, .cls-24, .cls-25 {
        stroke-miterlimit: 10;
      }

      .cls-16 {
        opacity: 0.1;
      }

      .cls-18, .cls-27 {
        fill: #5db3ed;
      }

      .cls-19 {
        opacity: 0.5;
        fill: url(#linear-gradient-4);
      }

      .cls-20 {
        stroke: #302b5c;
      }

      .cls-21 {
        opacity: 0.15;
      }

      .cls-22, .cls-25 {
        stroke: #fff;
      }

      .cls-24 {
        stroke: #ffec5e;
        stroke-width: 0.913px;
      }

      .cls-28 {
        fill: url(#linear-gradient-5);
      }
    </style>
    <linearGradient id="linear-gradient" x1="146" y1="240" x2="146" y2="32" gradientUnits="userSpaceOnUse">
      <stop offset="0" stop-color="#fff"/>
      <stop offset="1"/>
    </linearGradient>
    <linearGradient id="linear-gradient-2" x1="146" y1="231" x2="146" y2="101" xlink:href="#linear-gradient"/>
    <clipPath id="clip-path">
      <circle class="cls-1" cx="146" cy="136" r="104"/>
    </clipPath>
    <linearGradient id="linear-gradient-3" x1="146" y1="204" x2="146" y2="12" gradientUnits="userSpaceOnUse">
      <stop offset="0"/>
      <stop offset="1" stop-color="#fff"/>
    </linearGradient>
    <linearGradient id="linear-gradient-4" x1="0.88" y1="117.315" x2="183.145" y2="117.315" xlink:href="#linear-gradient"/>
    <linearGradient id="linear-gradient-5" x1="238.077" y1="187.487" x2="238.077" y2="97.487" gradientTransform="translate(28.737 -39.317) rotate(10.163)" xlink:href="#linear-gradient-3"/>
  </defs>
  <title>bf6a43a6-e54d-4a0b-8939-444abfa40bef</title>
  <g class="cls-2">
    <g id="Layer_1" data-name="Layer 1">
      <g>
        <rect class="cls-1" width="292" height="250"/>
        <g>
          <circle class="cls-3" cx="146" cy="136" r="104"/>
          <circle class="cls-4" cx="146" cy="136" r="104"/>
        </g>
        <g class="cls-5">
          <circle class="cls-6" cx="146" cy="166" r="65"/>
          <circle class="cls-7" cx="146" cy="166" r="65"/>
        </g>
        <g class="cls-8">
          <polygon class="cls-9" points="68.5 32.5 223.5 32.5 183.5 205.5 108.5 205.5 68.5 32.5"/>
        </g>
        <rect class="cls-10" x="107.625" y="10" width="77.75" height="197" rx="3" ry="3"/>
        <rect class="cls-11" x="108.625" y="11" width="74.75" height="194" rx="2" ry="2"/>
        <rect class="cls-12" x="109.625" y="12" width="72.75" height="192" rx="1" ry="1"/>
        <g class="cls-13">
          <path class="cls-14" d="M174.5,19a1,1,0,0,1,1,1v96a1,1,0,0,1-1,1h-57a1,1,0,0,1-1-1V20a1,1,0,0,1,1-1h57m0-1h-57a2,2,0,0,0-2,2v96a2,2,0,0,0,2,2h57a2,2,0,0,0,2-2V20a2,2,0,0,0-2-2Z"/>
        </g>
        <g>
          <rect class="cls-10" x="116.5" y="19" width="59" height="98" rx="1" ry="1"/>
          <rect class="cls-15" x="116.5" y="19" width="59" height="98" rx="1" ry="1"/>
        </g>
        <g class="cls-8">
          <g class="cls-16">
            <path class="cls-17" d="M145.962,205.578a38.711,38.711,0,0,1-28.141-12.226L12.2,80.594a3,3,0,0,1,.138-4.24L63.974,27.987a3,3,0,0,1,4.24.139l105.24,112.352c14.485,15.464,14.111,39.818-.834,54.289A38.143,38.143,0,0,1,145.962,205.578Z"/>
          </g>
        </g>
        <g>
          <path class="cls-18" d="M52,30.574l118.66,108.612c15.127,13.847,16.857,37.438,3.262,52.793A37.392,37.392,0,0,1,120.6,194.7L1.53,85.712a2,2,0,0,1-.125-2.826L49.176,30.7A2,2,0,0,1,52,30.574Z"/>
          <path class="cls-19" d="M52,30.574l118.66,108.612c15.127,13.847,16.857,37.438,3.262,52.793A37.392,37.392,0,0,1,120.6,194.7L1.53,85.712a2,2,0,0,1-.125-2.826L49.176,30.7A2,2,0,0,1,52,30.574Z"/>
          <path class="cls-20" d="M52,30.574l118.66,108.612c15.127,13.847,16.857,37.438,3.262,52.793A37.392,37.392,0,0,1,120.6,194.7L1.53,85.712a2,2,0,0,1-.125-2.826L49.176,30.7A2,2,0,0,1,52,30.574Z"/>
        </g>
        <g class="cls-21">
          <path class="cls-22" d="M145.963,203.581a36.492,36.492,0,0,1-24.687-9.618L2.206,84.974a1,1,0,0,1-.062-1.413L49.914,31.375a1,1,0,0,1,1.413-.062L169.987,139.923c14.828,13.575,16.259,36.63,3.188,51.393A36.374,36.374,0,0,1,145.963,203.581Z"/>
        </g>
        <circle class="cls-23" cx="145.838" cy="167.131" r="21.5" transform="translate(-75.914 161.856) rotate(-47.529)"/>
        <circle class="cls-24" cx="145.838" cy="167.131" r="19.631" transform="translate(-75.914 161.856) rotate(-47.529)"/>
        <path class="cls-11" d="M129.131,36.321c0,1.3-.84,1.775-2.111,1.775H127c-1.271,0-2.11-.467-2.11-1.775V31.284c0-1.248.84-1.775,2.11-1.775h.024c1.271,0,2.111.527,2.111,1.775v1.535h-1.392V31.5c0-.587-.288-.768-.731-.768s-.731.18-.731.768V36.1c0,.588.287.768.731.768s.731-.18.731-.768V34.582h1.392Zm3.168-6.812h.1c1.271,0,2.11.5,2.11,1.775v5.037c0,1.271-.84,1.775-2.11,1.775h-.1c-1.271,0-2.11-.5-2.11-1.775V31.284C130.188,30,131.028,29.509,132.3,29.509Zm.049,7.364c.455,0,.768-.168.768-.768V31.5c0-.6-.312-.768-.768-.768s-.768.168-.768.768V36.1C131.58,36.7,131.892,36.873,132.348,36.873ZM135.66,38V29.6h1.392l1.763,5.193V29.6h1.271V38h-1.319l-1.835-5.457V38Zm5.628-8.4h3.634v1.224H142.68V33.19h1.871v1.224H142.68V38h-1.392Zm4.476,8.4V29.6h1.392V38Zm5.795,0-1.067-3.346h-.7V38H148.4V29.6h2.171c1.271,0,2.11.5,2.11,1.775v1.5a1.54,1.54,0,0,1-.911,1.559l1.2,3.562ZM149.8,33.455h.731c.456,0,.768-.168.768-.768V31.6c0-.6-.312-.768-.768-.768H149.8Zm7.354,3.322h-.779l-1.26-3.91V38h-1.295V29.6h1.319l1.619,4.881,1.631-4.881h1.367V38H158.41V32.867ZM127,43.909h.1c1.271,0,2.11.5,2.11,1.774v5.038c0,1.271-.839,1.774-2.11,1.774H127c-1.271,0-2.11-.5-2.11-1.774V45.684C124.885,44.4,125.725,43.909,127,43.909Zm.049,7.364c.455,0,.768-.168.768-.768V45.9c0-.6-.312-.768-.768-.768s-.768.168-.768.768v4.605C126.276,51.105,126.588,51.273,127.044,51.273Zm7.594-5.493v1.595c0,1.271-.839,1.775-2.11,1.775h-.779V52.4h-1.392V44h2.171C133.8,44,134.638,44.509,134.638,45.78ZM133.247,46c0-.6-.312-.768-.768-.768h-.731v2.7h.731c.456,0,.768-.168.768-.768Zm2.281,6.4V44h3.682v1.224h-2.29v2.3h1.919v1.223H136.92v2.423h2.326V52.4Zm7.858,0-1.067-3.346h-.7V52.4h-1.392V44H142.4c1.271,0,2.11.5,2.11,1.775v1.5a1.538,1.538,0,0,1-.911,1.559l1.2,3.563Zm-1.763-4.546h.731c.456,0,.768-.168.768-.768V46c0-.6-.312-.768-.768-.768h-.731Zm6.7,2.675h-1.535l-.3,1.871h-1.344L146.7,44h1.751l1.583,8.4h-1.415Zm-.18-1.151-.588-3.729-.588,3.729ZM150.78,52.4V44h1.392v8.4Zm4.7-8.491h.1c1.271,0,2.11.5,2.11,1.774v5.038c0,1.271-.84,1.774-2.11,1.774h-.1c-1.271,0-2.11-.5-2.11-1.774V45.684C153.372,44.4,154.212,43.909,155.482,43.909Zm.049,7.364c.455,0,.768-.168.768-.768V45.9c0-.6-.312-.768-.768-.768s-.768.168-.768.768v4.605C154.764,51.105,155.075,51.273,155.531,51.273Zm3.313,1.127V44h1.392L162,49.2V44h1.271v8.4H161.95l-1.835-5.457V52.4Z"/>
        <line class="cls-25" x1="4.548" y1="85.519" x2="52.319" y2="33.332"/>
      </g>
      <path class="cls-26" d="M150,123,52.662,34.368l.676-.737ZM49.571,37.732l90.838,82.677L50.247,37ZM46.48,41.1l84.338,76.723L47.156,40.359Zm-3.091,3.364,77.838,70.768-77.162-71.5ZM40.3,47.823l71.338,64.814L40.975,47.086Zm-3.091,3.364,64.838,58.859L37.884,50.45ZM34.116,54.55l58.338,52.9L34.793,53.814Zm-3.091,3.364,51.839,46.95L31.7,57.177Zm-3.091,3.364,45.339,41L28.611,60.541Zm-3.091,3.364L63.682,99.682,25.521,63.9ZM21.752,68,54.091,97.091,22.43,67.269Zm-3.091,3.364L44.5,94.5,19.339,70.632Z"/>
      <g>
        <path class="cls-10" d="M221.768,188.641a10.591,10.591,0,0,1-10.4-12.437l.058-.319.155-.284c.689-1.281,2.2-5.205.9-7.894-.818-1.694-2.726-2.821-5.668-3.349l-12.655-2.269a6.294,6.294,0,0,1-5.079-7.3l2.269-12.655c1.479-8.247,6.764-9.479,9.782-9.479a17,17,0,0,1,6.979,1.736,6.572,6.572,0,0,0,2.317-12.925c-.37.037-.991.085-1.771.085-2.381,0-6.771-.474-9.426-3.646-1.935-2.312-2.551-5.515-1.833-9.52l2.269-12.656a6.285,6.285,0,0,1,7.3-5.078l12.655,2.269c4.287.769,7.172,2.642,8.575,5.567,2.152,4.49-.157,9.815-.834,11.2A6.571,6.571,0,0,0,240.284,112c-.146-1.449-.439-6.74,2.581-10.231a9.359,9.359,0,0,1,7.446-3.089,17.414,17.414,0,0,1,3.055.29l12.655,2.269a6.293,6.293,0,0,1,5.078,7.3l-2.269,12.655c-.5,2.785-.175,4.887.964,6.248,1.611,1.926,4.676,2.214,6.359,2.214a12.908,12.908,0,0,0,1.569-.088l.315-.045.319.056a10.571,10.571,0,0,1-1.871,20.977h0a10.612,10.612,0,0,1-1.858-.165l-.319-.058-.285-.155a13.171,13.171,0,0,0-5.4-1.418c-2.032,0-4.851.641-5.844,6.183L260.514,167.6a6.285,6.285,0,0,1-7.3,5.079l-12.655-2.269a13.477,13.477,0,0,0-2.35-.228,5.484,5.484,0,0,0-4.421,1.706c-2.232,2.58-1.61,7.36-1.6,7.407l.047.321-.058.319A10.566,10.566,0,0,1,221.768,188.641Z"/>
        <g>
          <path class="cls-27" d="M277.2,130.386s-13.412,1.95-11.143-10.705l2.269-12.655a4.3,4.3,0,0,0-3.462-4.975l-12.655-2.269C239.55,97.513,241.5,110.925,241.5,110.925a8.571,8.571,0,1,1-16.874-3.025s6.487-11.9-6.168-14.168L205.8,91.464a4.3,4.3,0,0,0-4.975,3.462l-2.269,12.655c-2.269,12.655,11.143,10.705,11.143,10.705a8.571,8.571,0,0,1-3.025,16.874s-11.9-6.487-14.168,6.168l-2.269,12.655a4.3,4.3,0,0,0,3.462,4.975l12.655,2.269c12.655,2.269,6.168,14.168,6.168,14.168A8.571,8.571,0,0,0,229.4,178.42s-1.95-13.412,10.705-11.143l12.655,2.269a4.3,4.3,0,0,0,4.975-3.462l2.269-12.655c2.269-12.655,14.168-6.168,14.168-6.168a8.571,8.571,0,1,0,3.025-16.874Z"/>
          <path class="cls-28" d="M277.2,130.386s-13.412,1.95-11.143-10.705l2.269-12.655a4.3,4.3,0,0,0-3.462-4.975l-12.655-2.269C239.55,97.513,241.5,110.925,241.5,110.925a8.571,8.571,0,1,1-16.874-3.025s6.487-11.9-6.168-14.168L205.8,91.464a4.3,4.3,0,0,0-4.975,3.462l-2.269,12.655c-2.269,12.655,11.143,10.705,11.143,10.705a8.571,8.571,0,0,1-3.025,16.874s-11.9-6.487-14.168,6.168l-2.269,12.655a4.3,4.3,0,0,0,3.462,4.975l12.655,2.269c12.655,2.269,6.168,14.168,6.168,14.168A8.571,8.571,0,0,0,229.4,178.42s-1.95-13.412,10.705-11.143l12.655,2.269a4.3,4.3,0,0,0,4.975-3.462l2.269-12.655c2.269-12.655,14.168-6.168,14.168-6.168a8.571,8.571,0,1,0,3.025-16.874Z"/>
        </g>
        <g class="cls-29">
          <path class="cls-14" d="M205.049,93.4a2.273,2.273,0,0,1,.4.036L218.1,95.7c2.947.528,4.855,1.656,5.671,3.354,1.549,3.22-.885,7.849-.909,7.894l-.076.142-.074.138-.028.154-.03.164a10.572,10.572,0,0,0,20.812,3.73l.028-.159.028-.157-.022-.158-.023-.161c-.007-.048-.636-4.832,1.605-7.417a5.558,5.558,0,0,1,4.419-1.7,13.424,13.424,0,0,1,2.349.227l12.655,2.269a2.288,2.288,0,0,1,1.846,2.652l-2.269,12.656c-.718,4.005-.1,7.208,1.833,9.52,2.654,3.173,7.045,3.646,9.426,3.646.77,0,1.4-.048,1.77-.086a6.572,6.572,0,0,1-1.435,12.986,6.531,6.531,0,0,1-.881-.061,16.825,16.825,0,0,0-6.982-1.736c-3.018,0-8.3,1.231-9.781,9.477l-2.269,12.657a2.284,2.284,0,0,1-2.653,1.846l-12.656-2.269a17.455,17.455,0,0,0-3.055-.29,9.358,9.358,0,0,0-7.445,3.089c-3.035,3.507-2.726,8.822-2.581,10.232a6.592,6.592,0,0,1-6.419,5.14,6.525,6.525,0,0,1-1.154-.1,6.606,6.606,0,0,1-5.353-7.352c.674-1.367,3-6.688.834-11.2-1.4-2.925-4.287-4.8-8.574-5.567l-12.656-2.269a2.289,2.289,0,0,1-1.846-2.653l2.269-12.655c.745-4.161,2.657-6.183,5.844-6.183a13.138,13.138,0,0,1,5.4,1.417l.143.078.144.079.161.029.158.028a10.572,10.572,0,1,0,3.73-20.812l-.159-.028-.157-.028-.157.022-.161.023a12.682,12.682,0,0,1-1.57.089c-1.683,0-4.747-.288-6.358-2.213-1.138-1.362-1.463-3.464-.964-6.249L202.8,95.278a2.284,2.284,0,0,1,2.252-1.882m0-1a3.283,3.283,0,0,0-3.236,2.706l-2.269,12.656c-.554,3.09-.156,5.467,1.181,7.066,1.872,2.237,5.268,2.571,7.125,2.571a13.429,13.429,0,0,0,1.71-.1l.16-.022.159.028a9.572,9.572,0,0,1-3.378,18.843l-.159-.028-.143-.078a14.089,14.089,0,0,0-5.877-1.54c-3.7,0-6,2.357-6.828,7.007l-2.269,12.655a3.289,3.289,0,0,0,2.654,3.813l12.656,2.269c3.952.709,6.593,2.4,7.849,5.015,2.05,4.275-.4,9.48-.9,10.461a7.572,7.572,0,0,0,14.9,2.671c-.122-1.039-.568-6.283,2.326-9.628a8.4,8.4,0,0,1,6.688-2.743,16.457,16.457,0,0,1,2.879.274l12.655,2.269a3.284,3.284,0,0,0,3.813-2.654l2.269-12.656c1.282-7.152,5.491-8.653,8.8-8.653a15.96,15.96,0,0,1,6.678,1.7,7.561,7.561,0,0,0,1.186.095h0a7.572,7.572,0,0,0,1.486-15,16.45,16.45,0,0,1-1.821.1c-2.207,0-6.266-.427-8.659-3.288-1.735-2.074-2.279-5-1.616-8.7l2.269-12.656a3.289,3.289,0,0,0-2.654-3.813l-12.655-2.269a14.422,14.422,0,0,0-2.525-.243,6.507,6.507,0,0,0-5.174,2.046c-2.558,2.95-1.848,8.16-1.84,8.213l.022.16-.028.159a9.572,9.572,0,0,1-18.843-3.378l.029-.159.076-.142c.027-.051,2.715-5.091.93-8.8-.963-2-3.115-3.317-6.4-3.9l-12.655-2.269a3.277,3.277,0,0,0-.577-.052Z"/>
        </g>
      </g>
    </g>
  </g>
</svg>
