<?xml version="1.0" encoding="UTF-8"?>
<svg xmlns="http://www.w3.org/2000/svg" xmlns:xlink="http://www.w3.org/1999/xlink" version="1.1" id="Layer_1" x="0px" y="0px" viewBox="0 0 128 128" xml:space="preserve">
    <style type="text/css">.st0{fill:#FFFFFF;}</style>
    <path d="M64 128C28.7 128 0 99.3 0 64S28.7 0 64 0s64 28.7 64 64-28.7 64-64 64z" fill="#1C75BC"/>
    <path class="st0" d="M20.8 89.3c1.4-4.1 2.7-7.9 4.1-11.8.1-.4.9-.7 1.3-.7 2.3-.1 4.7 0 7 0H79c1.2 0 1.8-.4 2.1-1.5 2.5-7.5 5.2-15 7.8-22.5.1-.4.2-.8.4-1.4H33.8c1.4-4.2 2.8-8.1 4.1-12 .1-.3.7-.6 1.1-.6 1.4-.1 2.8 0 4.2 0 18.8 0 37.6.1 56.3-.1 5.6-.1 11.6 4.3 9.2 12.5-1.8 6.1-4.1 12.1-6.2 18.2-.7 2.1-1.4 4.1-2.1 6.2-2.6 7.2-7.9 11.6-15.2 13.6-.7.2-1.4.2-2.1.2H22.3c-.4-.1-.8-.1-1.5-.1z" fill="#FFF"/>
    <path class="st0" d="M55.9 58.1c-1.4 4-2.8 7.7-4.2 11.4-.1.3-.7.5-1 .5H19.2c-.1 0-.3-.1-.6-.2 1.3-3.7 2.6-7.3 4-10.9.1-.3.7-.7 1-.7 10.7-.1 21.4-.1 32.3-.1z" fill="#FFF"/>
    <metadata>
        <rdf:RDF xmlns:rdf="http://www.w3.org/1999/02/22-rdf-syntax-ns#" xmlns:rdfs="http://www.w3.org/2000/01/rdf-schema#" xmlns:dc="http://purl.org/dc/elements/1.1/">
            <rdf:Description about="https://iconscout.com/legal#licenses" dc:title="dash" dc:description="dash" dc:publisher="Iconscout" dc:date="2018-01-14" dc:format="image/svg+xml" dc:language="en">
                <dc:creator>
                    <rdf:Bag>
                        <rdf:li>Icon Mafia</rdf:li>
                    </rdf:Bag>
                </dc:creator>
            </rdf:Description>
        </rdf:RDF>
    </metadata>
</svg>