<?xml version="1.0" encoding="utf-8"?>
<!-- Generator: Adobe Illustrator 16.0.0, SVG Export Plug-In . SVG Version: 6.00 Build 0)  -->
<!DOCTYPE svg PUBLIC "-//W3C//DTD SVG 1.1 Basic//EN" "http://www.w3.org/Graphics/SVG/1.1/DTD/svg11-basic.dtd">
<svg version="1.1" baseProfile="basic" id="Layer_1"
	 xmlns="http://www.w3.org/2000/svg" xmlns:xlink="http://www.w3.org/1999/xlink" x="0px" y="0px" width="115px" height="114px"
	 viewBox="0 0 115 114" xml:space="preserve">
<title>Group 3</title>
<desc>Created with Sketch.</desc>
<g>
	<path fill-rule="evenodd" clip-rule="evenodd" fill="#1E1B2F" d="M57.313,0.5c31.101,0,56.313,25.212,56.313,56.312
		c0,31.099-25.212,56.312-56.313,56.312C26.213,113.124,1,87.911,1,56.812C1,25.711,26.213,0.5,57.313,0.5z"/>
	<g>
	</g>
</g>
<path fill-rule="evenodd" clip-rule="evenodd" fill="#67B2E8" d="M31.286,63.862c1.932,0.834,3.94,1.402,6.062,1.592
	c4.28,0.416,8.295-0.455,12.083-2.576c1.97-1.099,4.091-1.817,6.326-2.121c7.916-0.984,15.795,3.713,18.257,11.894
	c1.251,4.205,0.872,8.296-1.061,12.273c-0.265,0.53-0.492,1.023-0.757,1.515c-0.152,0.305-0.342,0.607-0.605,0.835
	c-4.017,3.788-8.41,7.121-13.183,9.924c-0.189,0.114-0.379,0.228-0.531,0.304c-0.568-0.228-2.311-1.289-4.167-2.539
	c-4.129-2.765-7.955-5.946-11.44-9.508c-3.485-3.561-6.591-7.462-9.243-11.667c-2.5-3.901-4.583-7.992-6.25-12.311
	c-0.037-0.113-0.075-0.189-0.113-0.379c0.189,0.113,0.265,0.152,0.379,0.228C28.369,62.348,29.771,63.219,31.286,63.862z"/>
<path fill-rule="evenodd" clip-rule="evenodd" fill="#F7A800" d="M69.582,26.703c-0.341,0.151-0.719,0.265-1.061,0.417
	c-6.25,2.613-10.681,8.106-11.97,14.772c-0.189,1.099-0.303,2.197-0.341,3.296c-0.038,1.667-0.189,3.333-0.682,4.963
	c-1.667,5.871-6.477,10.454-12.424,11.818c-7.803,1.78-15.682-2.083-19.091-9.319c-0.189-0.416-0.341-0.833-0.417-1.25
	c-0.568-2.462-0.985-4.924-1.288-7.425c-0.341-2.765-0.531-5.53-0.531-8.295c0.038-0.189,0.038-0.303,0.038-0.492l0,0
	c4.849-2.804,9.925-5,15.266-6.592c7.273-2.159,14.66-3.182,22.236-3.03c3.522,0.076,9.394,0.645,10.379,1.023
	C69.733,26.665,69.658,26.703,69.582,26.703z"/>
<path fill-rule="evenodd" clip-rule="evenodd" fill="#00C4B3" d="M93.674,41.666c-0.265,2.954-0.72,5.909-1.325,8.788
	c-1.856,8.561-5.152,16.478-9.925,23.827c-1.326,2.046-2.766,4.015-4.28,5.908c-0.151,0.115-0.228,0.266-0.455,0.379
	c0.076-0.719,0.151-1.363,0.189-2.045c0.189-3.75-0.605-7.311-2.387-10.606c-1.704-3.144-4.09-5.645-7.159-7.538
	c-0.265-0.189-0.568-0.342-0.833-0.53c-4.204-2.652-6.781-6.401-7.689-11.288c-1.629-8.789,3.901-17.274,12.576-19.357
	c3.068-0.72,6.061-0.645,9.053,0.303c2.463,0.757,4.811,1.78,7.16,2.878c1.628,0.758,3.182,1.591,4.734,2.462
	c0.189,0.114,0.341,0.19,0.568,0.342c0,0.151,0.038,0.265,0.038,0.417C93.939,37.612,93.826,39.658,93.674,41.666z"/>
</svg>
