<svg xmlns="http://www.w3.org/2000/svg" width="23" height="22" viewBox="0 0 23 22">
    <g fill="none" fill-rule="evenodd">
        <path d="M2.667 2.667H24V24H2.667z"/>
        <path fill="#2962FF" fill-rule="nonzero" d="M21.333 18.667v.889c0 .981-.796 1.777-1.777 1.777H7.11c-.987 0-1.778-.8-1.778-1.777V7.11c0-.982.796-1.778 1.778-1.778h12.445c.981 0 1.777.796 1.777 1.778V8h-8c-.986 0-1.777.8-1.777 1.778v7.11c0 .983.795 1.779 1.777 1.779h8zm-8-1.778h8.89V9.778h-8.89v7.11zm3.556-2.222a1.333 1.333 0 1 1 0-2.667 1.333 1.333 0 0 1 0 2.667z"/>
        <g>
            <circle cx="5.333" cy="5.333" r="5.333" fill="#FFAB00"/>
            <path fill="#FFF" fill-rule="nonzero" d="M5.333 2.667a1.333 1.333 0 1 1 0 2.666 1.333 1.333 0 0 1 0-2.666zm0 3.333C6.807 6 8 6.597 8 7.333V8H2.667v-.667C2.667 6.597 3.86 6 5.333 6z"/>
        </g>
    </g>
</svg>
