<?xml version="1.0" encoding="UTF-8"?>
<svg width="88px" height="88px" viewBox="0 0 88 88" version="1.1" xmlns="http://www.w3.org/2000/svg" xmlns:xlink="http://www.w3.org/1999/xlink">
    <!-- Generator: Sketch 46.2 (44496) - http://www.bohemiancoding.com/sketch -->
    <title>LHUK</title>
    <desc>Created with Sketch.</desc>
    <defs>
        <circle id="path-1" cx="39.8496275" cy="42.1418911" r="39.8496275"></circle>
        <filter x="-8.8%" y="-6.3%" width="117.6%" height="117.6%" filterUnits="objectBoundingBox" id="filter-2">
            <feOffset dx="0" dy="2" in="SourceAlpha" result="shadowOffsetOuter1"></feOffset>
            <feGaussianBlur stdDeviation="2" in="shadowOffsetOuter1" result="shadowBlurOuter1"></feGaussianBlur>
            <feColorMatrix values="0 0 0 0 0   0 0 0 0 0   0 0 0 0 0  0 0 0 0.2 0" type="matrix" in="shadowBlurOuter1"></feColorMatrix>
        </filter>
    </defs>
    <g id="Page-1" stroke="none" stroke-width="1" fill="none" fill-rule="evenodd">
        <g id="LHUK" transform="translate(4.000000, 0.000000)">
            <g id="Ellipse_7_copy" fill-rule="nonzero">
                <use fill="black" fill-opacity="1" filter="url(#filter-2)" xlink:href="#path-1"></use>
                <use fill="#E9EFFF" fill-rule="evenodd" xlink:href="#path-1"></use>
            </g>
            <path d="M35.530086,37.5931232 L44.6991404,37.5931232 L44.6991404,19.2550143 C39.6352115,19.2550143 35.530086,23.3601398 35.530086,28.4240688 L35.530086,37.5931232 L35.530086,37.5931232 Z M53.8681948,19.2550143 L44.6991404,19.2550143 L44.6991404,28.4240688 C44.6991404,23.3601398 48.8042659,19.2550143 53.8681948,19.2550143 L53.8681948,19.2550143 Z M44.6991404,46.7621777 L35.530086,46.7621777 L35.530086,65.1002865 C37.9618704,65.1002865 40.2940553,64.1342639 42.0135865,62.4147327 C43.7331178,60.6952014 44.6991404,58.3630165 44.6991404,55.9312321 L44.6991404,46.7621777 L44.6991404,46.7621777 Z M26.3610315,65.1002865 L35.530086,65.1002865 L35.530086,55.9312321 C35.530086,60.995161 31.4249605,65.1002865 26.3610315,65.1002865 L26.3610315,65.1002865 Z" id="Polygon_1_copy_16" fill="#41288D"></path>
            <path d="M63.0372493,28.4240688 C63.0372493,23.3601398 58.9321238,19.2550143 53.8681948,19.2550143 L53.8681948,65.1002865 C58.9321238,65.1002865 63.0372493,60.995161 63.0372493,55.9312321 L63.0372493,28.4240688 Z M17.1919771,28.4240688 C17.1919771,23.3601398 21.2971026,19.2550143 26.3610315,19.2550143 L26.3610315,65.1002865 C21.2971026,65.1002865 17.1919771,60.995161 17.1919771,55.9312321 L17.1919771,28.4240688 L17.1919771,28.4240688 Z M44.6991404,65.1002865 L53.8681948,65.1002865 L53.8681948,55.9312321 C53.8681948,60.995161 49.7630693,65.1002865 44.6991404,65.1002865 L44.6991404,65.1002865 Z M35.530086,19.2550143 L26.3610315,19.2550143 L26.3610315,28.4240688 C26.3610315,23.3601398 30.466157,19.2550143 35.530086,19.2550143 L35.530086,19.2550143 Z M44.6991404,19.2550143 L53.8681948,19.2550143 L53.8681948,28.4240688 C53.8681948,23.3601398 49.7630693,19.2550143 44.6991404,19.2550143 L44.6991404,19.2550143 Z M35.530086,65.1002865 L26.3610315,65.1002865 L26.3610315,55.9312321 C26.3610315,60.995161 30.466157,65.1002865 35.530086,65.1002865 Z" id="Ellipse_6_copy_2" fill="#768FFF"></path>
            <g id="au" transform="translate(56.848138, 0.000000)">
                <circle id="Oval" fill="#FFFFFF" cx="11.4613181" cy="11.4613181" r="11.4613181"></circle>
                <g id="flag-gb" fill-rule="nonzero">
                    <path d="M8.15571584,0.514867509 C5.71366466,1.25764019 3.61545302,2.80026093 2.16579389,4.8383277 L8.15571584,7.813382 L8.15571584,0.514867509 Z" id="Shape" fill="#00247D"></path>
                    <path d="M6.16223693,8.16019421 L1.50973224,5.87519715 C1.33583638,6.18514818 1.17577314,6.50381906 1.03072819,6.83041708 L3.73797056,8.16019421 L6.16223693,8.16019421 Z" id="Shape" fill="#CF142B"></path>
                    <path d="M22.385535,8.16019421 C22.3313902,7.98104093 22.2736884,7.80466215 22.2112439,7.62947243 L21.1437605,8.16019421 L22.385535,8.16019421 Z" id="Shape" fill="#00247D"></path>
                    <path d="M18.4788064,8.16019421 L21.7401443,6.50144092 C21.5848236,6.17959918 21.4152752,5.86568458 21.2322893,5.56128254 L16.1213319,8.15979786 L18.4788064,8.15979786 L18.4788064,8.16019421 Z" id="Shape" fill="#CF142B"></path>
                    <path d="M14.3096532,0.385655186 L14.3096532,7.80941843 L20.6307677,4.66511977 C19.0945559,2.58821004 16.8754076,1.0491565 14.3096532,0.385655186 Z" id="Shape" fill="#00247D"></path>
                    <path d="M3.39255014,19.5602091 C4.74380002,20.9157494 6.37525936,21.8895981 8.15571584,22.4266616 L8.15571584,14.6200177 L1.90534532,17.7286442 C2.33257583,18.3810475 2.82936469,18.995797 3.39255014,19.5602091 Z" id="Shape" fill="#00247D"></path>
                    <path d="M16.3027369,14.3314699 L21.5152653,16.8915386 C21.6836281,16.5772276 21.8377631,16.2553859 21.9768798,15.9275988 L18.7262128,14.3310735 L16.3027369,14.3310735 L16.3027369,14.3314699 Z" id="Shape" fill="#CF142B"></path>
                    <path d="M22.3614267,14.8697225 C22.4171525,14.6917583 22.4681356,14.5122086 22.514376,14.3314699 L21.2785298,14.3314699 L22.3614267,14.8697225 Z" id="Shape" fill="#00247D"></path>
                    <path d="M22.7143563,9.56607186 L12.9078154,9.56607186 L12.9078154,0.116132548 C12.4339492,0.0562826685 11.9513882,0.0249704797 11.4613181,0.0249704797 C10.8123703,0.0249704797 10.1764648,0.0800640777 9.5575536,0.184702278 L9.5575536,9.5656755 L0.20907025,9.5656755 C0.10552317,10.1847849 0.0505878866,10.8201448 0.0505878866,11.4677919 C0.0505878866,11.9592743 0.08141488,12.4456042 0.141487995,12.9255923 L9.5575536,12.9255923 L9.5575536,22.7540523 C10.180417,22.8578978 10.8167177,22.9110096 11.4613181,22.9110096 C11.9490169,22.9110096 12.4315779,22.8808865 12.9078154,22.8202439 L12.9078154,12.9255923 L22.7803577,12.9255923 C22.8404308,12.4460005 22.8712578,11.9592743 22.8712578,11.4677919 C22.871653,10.8201448 22.8167177,10.1847849 22.7143563,9.56607186 Z" id="Shape" fill="#CF142B"></path>
                    <path d="M3.98616737,14.3314699 L0.92876198,15.8859814 C1.06590258,16.2149575 1.21845667,16.5371956 1.38642427,16.8522993 L6.34324671,14.3314699 L3.98616737,14.3314699 Z" id="Shape" fill="#CF142B"></path>
                    <path d="M14.3096532,22.5542885 C16.2679577,22.0517081 18.0634325,21.0306929 19.530086,19.5598127 C20.0450548,19.0433598 20.504298,18.4860821 20.9062346,17.8955104 L14.3096532,14.6184322 L14.3096532,22.5542885 L14.3096532,22.5542885 Z" id="Shape" fill="#00247D"></path>
                </g>
            </g>
        </g>
    </g>
</svg>