<svg id="Layer_1" data-name="Layer 1" xmlns="http://www.w3.org/2000/svg" viewBox="0 0 24 23.94">
  <defs>
    <style>
      .cls-1 {
        fill: #3db6d3;
      }

      .cls-2 {
        fill: #e2e1e1;
      }
    </style>
  </defs>
  <title>47592863-8244-49c0-98e7-7ca86cfa7bac</title>
  <path class="cls-1" d="M19.822,6.725,13.874.772a2.647,2.647,0,0,0-3.737,0L4.192,6.713a.885.885,0,0,0,0,1.246L6,9.762l1.2,1.108a.922.922,0,0,0,1.257,0l2.4-2.22a1.714,1.714,0,0,1,2.33,0l2.4,2.22a.917.917,0,0,0,1.253,0l1.2-1.108,1.788-1.788a.882.882,0,0,0,0-1.249"/>
  <path class="cls-2" d="M.805,13.84l9.328,9.328a2.647,2.647,0,0,0,3.737,0L23.2,13.84c1.619-1.619.479-2.094-.707-3.218L21.029,9.235a.918.918,0,0,0-1.257,0l-2.4,2.22a1.714,1.714,0,0,1-2.33,0l-2.4-2.22a.917.917,0,0,0-1.253,0l-2.4,2.22a1.714,1.714,0,0,1-2.33,0l-2.4-2.22A.922.922,0,0,0,3,9.235L1.654,10.477C.42,11.624-.884,12.151.805,13.84"/>
</svg>
