<svg id="Layer_1" data-name="Layer 1" xmlns="http://www.w3.org/2000/svg" viewBox="0 0 24 24">
  <defs>
    <style>
      .cls-1 {
        fill: #fff;
      }
    </style>
  </defs>
  <title>61395199-287f-4cca-aa7c-9de2500231dc</title>
  <circle cx="12" cy="12" r="12"/>
  <path class="cls-1" d="M12.005,21.231H12a.479.479,0,0,1-.255-.073L6.054,17.592a.48.48,0,0,1-.22-.478l.006-.034L7.694,8.614A.481.481,0,0,1,7.73,8.5q.009-.018.019-.036h0a.483.483,0,0,1,.032-.048l3.832-5.235a.48.48,0,0,1,.387-.2h.006a.48.48,0,0,1,.387.2l3.831,5.234a.482.482,0,0,1,.087.195l1.853,8.466.006.032h0a.48.48,0,0,1-.22.48L12.26,21.157A.479.479,0,0,1,12.005,21.231ZM7.979,17.665l3.166,1.984-.632-1.984Zm5.513,0-.632,1.984,3.166-1.984Zm-1.971,0L12,19.178l.482-1.513ZM13.8,16.7h3.075L14.9,13.231Zm-2.582,0H12.79l1.469-4.612L12,8.111,9.746,12.093Zm-4.082,0h3.075L9.1,13.231Zm1.118-6.145-.794,3.626,1.247-2.2Zm7.05,1.425,1.247,2.2-.794-3.626ZM8.7,8.794l.653,2.052,2.17-3.83V4.936Zm3.789-1.778,2.17,3.83.653-2.052L12.485,4.936Z"/>
</svg>
