<?xml version="1.0" encoding="UTF-8"?>
<svg width="90px" height="89px" viewBox="0 0 90 89" version="1.1" xmlns="http://www.w3.org/2000/svg" xmlns:xlink="http://www.w3.org/1999/xlink">
    <!-- Generator: Sketch 46.2 (44496) - http://www.bohemiancoding.com/sketch -->
    <title>bitcoin</title>
    <desc>Created with Sketch.</desc>
    <defs></defs>
    <g id="Working-version" stroke="none" stroke-width="1" fill="none" fill-rule="evenodd">
        <g id="bitcoin" transform="translate(44.500000, 44.000000) rotate(-30.000000) translate(-44.500000, -44.000000) translate(0.000000, -1.000000)" fill-rule="nonzero">
            <path d="M87.665,56.4106154 C81.7214688,80.1470769 57.5746563,94.5913846 33.7323906,88.6735385 C9.90125,82.7556923 -4.60714062,58.7132308 1.33778125,34.9781538 C7.27853125,11.2389231 31.4239531,-3.20815385 55.2592656,2.70969231 C79.1001406,8.62753846 93.6071406,32.6727692 87.6636094,56.4106154 L87.665,56.4106154 Z" id="Shape" fill="#F7931A"></path>
            <path d="M64.1217188,39.3798462 C65.0061563,33.4841538 60.49775,30.3147692 54.3331094,28.2004615 L56.3328281,20.214 L51.4489531,19.0024615 L49.5020781,26.7784615 C48.2199219,26.46 46.9016094,26.1595385 45.5916406,25.8618462 L47.5524219,18.0346154 L42.6727188,16.8230769 L40.6716094,24.8067692 C39.6091719,24.5658462 38.5662031,24.3276923 37.5538281,24.0770769 L37.5593906,24.0521538 L30.8259844,22.3781538 L29.5271406,27.5704615 C29.5271406,27.5704615 33.1497188,28.3970769 33.0732344,28.4483077 C35.0507031,28.9398462 35.4094844,30.2427692 35.3482969,31.2756923 L33.0704531,40.374 C33.2067344,40.4086154 33.3833438,40.4584615 33.5780312,40.536 L33.0635,40.4086154 L29.8692344,53.154 C29.6272656,53.7521538 29.014,54.6493846 27.6317187,54.3087692 C27.6803906,54.3793846 24.0828437,53.4267692 24.0828437,53.4267692 L21.6589844,58.9929231 L28.0141406,60.57 C29.1961719,60.8649231 30.3545625,61.1736923 31.4934844,61.4644615 L29.4729062,69.5436923 L34.3498281,70.7552308 L36.3523281,62.7632308 C37.6831562,63.1232308 38.9764375,63.4555385 40.2419062,63.7684615 L38.24775,71.7230769 L43.1302344,72.9346154 L45.1508125,64.872 C53.4764844,66.4407692 59.7384688,65.808 62.3709219,58.3116923 C64.4944062,52.2747692 62.266625,48.7924615 57.8861562,46.5203077 C61.07625,45.7850769 63.47925,43.6956923 64.1203281,39.3798462 L64.1217188,39.3798462 Z M52.9647344,54.9553846 C51.4545156,60.9923077 41.2473281,57.7301538 37.93625,56.9104615 L40.617375,46.2087692 C43.9270625,47.0312308 54.5389219,48.6595385 52.966125,54.9553846 L52.9647344,54.9553846 Z M54.4735625,39.2926154 C53.0968438,44.784 44.600125,41.994 41.8425156,41.31 L44.2733281,31.6038462 C47.0309375,32.2878462 55.9086875,33.5644615 54.4735625,39.2926154 L54.4735625,39.2926154 Z" id="Shape" fill="#FFFFFF"></path>
        </g>
    </g>
</svg>