<?xml version="1.0" encoding="utf-8"?>
<!-- Generator: Adobe Illustrator 22.0.1, SVG Export Plug-In . SVG Version: 6.00 Build 0)  -->
<svg version="1.1" id="Layer_1" xmlns="http://www.w3.org/2000/svg" xmlns:xlink="http://www.w3.org/1999/xlink" x="0px" y="0px"
	 viewBox="0 0 90 89" style="enable-background:new 0 0 90 89;" xml:space="preserve">
<style type="text/css">
	.st0{fill:#F7931A;}
	.st1{fill:#FFFFFF;}
</style>
<title>bitcoin</title>
<desc>Created with Sketch.</desc>
<path id="Shape" class="st0" d="M87.6,32.3c6.7,23.5-7,48.1-30.6,54.9C33.4,94,8.8,80.4,2.1,56.9C-4.6,33.4,9.1,8.8,32.7,2
	C56.3-4.8,80.9,8.8,87.6,32.3L87.6,32.3z"/>
<path id="Shape_2_" class="st1" d="M75.8,35.7c4.9,17-5,34.8-22.1,39.7c-17.1,4.9-34.9-4.9-39.7-21.9c-4.9-17,5-34.8,22.1-39.7
	C53.1,8.9,70.9,18.7,75.8,35.7L75.8,35.7z"/>
<path id="Shape_3_" class="st0" d="M72.4,36.7c4.3,15.2-4.5,31-19.7,35.4c-15.2,4.4-31.1-4.4-35.4-19.5C13,37.4,21.8,21.5,37,17.1
	C52.2,12.8,68.1,21.5,72.4,36.7L72.4,36.7z"/>
<path id="Shape_1_" class="st1" d="M59.3,35.8c-0.5-4.9-4.7-6.6-10.1-7l0-14.2l-4.2,0l0,14.1c-1.1,0-2.2,0-3.3,0l0-14.1l-4.2,0
	l0,14.2c-0.9,0-1.8,0-2.7,0l0,0l-5.8,0l0,4.4c0,0,3.1-0.1,3,0c1.7,0,2.2,1,2.4,1.8l0,18.7c-0.1,0.5-0.4,1.4-1.6,1.4c0.1,0-3,0-3,0
	l-0.8,5l5.4,0c1,0,2,0,3,0l0,14.2l4.2,0l0-14.1c1.1,0,2.3,0,3.3,0l0,14.1l4.2,0l0-14.1c7-0.4,11.9-2.2,12.5-8.7c0.5-5.3-2-7.6-6-8.6
	C58.1,41.5,59.6,39.4,59.3,35.8L59.3,35.8z M53.4,50.5c0,5.2-8.9,4.6-11.7,4.6l0-9.2C44.5,46,53.4,45.2,53.4,50.5L53.4,50.5z
	 M51.5,37.6c0,4.7-7.4,4.2-9.8,4.2l0-8.3C44.1,33.5,51.5,32.7,51.5,37.6L51.5,37.6z"/>
</svg>
