<?xml version="1.0" encoding="UTF-8"?>
<svg width="88px" height="88px" viewBox="0 0 88 88" version="1.1" xmlns="http://www.w3.org/2000/svg" xmlns:xlink="http://www.w3.org/1999/xlink">
    <!-- Generator: Sketch 46.2 (44496) - http://www.bohemiancoding.com/sketch -->
    <title>LHEU</title>
    <desc>Created with Sketch.</desc>
    <defs>
        <circle id="path-1" cx="39.8496275" cy="42.1418911" r="39.8496275"></circle>
        <filter x="-8.8%" y="-6.3%" width="117.6%" height="117.6%" filterUnits="objectBoundingBox" id="filter-2">
            <feOffset dx="0" dy="2" in="SourceAlpha" result="shadowOffsetOuter1"></feOffset>
            <feGaussianBlur stdDeviation="2" in="shadowOffsetOuter1" result="shadowBlurOuter1"></feGaussianBlur>
            <feColorMatrix values="0 0 0 0 0   0 0 0 0 0   0 0 0 0 0  0 0 0 0.2 0" type="matrix" in="shadowBlurOuter1"></feColorMatrix>
        </filter>
    </defs>
    <g id="Page-1" stroke="none" stroke-width="1" fill="none" fill-rule="evenodd">
        <g id="LHEU" transform="translate(4.000000, 0.000000)">
            <g id="Ellipse_7_copy" fill-rule="nonzero">
                <use fill="black" fill-opacity="1" filter="url(#filter-2)" xlink:href="#path-1"></use>
                <use fill="#E9EFFF" fill-rule="evenodd" xlink:href="#path-1"></use>
            </g>
            <path d="M35.530086,37.5931232 L44.6991404,37.5931232 L44.6991404,19.2550143 C39.6352115,19.2550143 35.530086,23.3601398 35.530086,28.4240688 L35.530086,37.5931232 L35.530086,37.5931232 Z M53.8681948,19.2550143 L44.6991404,19.2550143 L44.6991404,28.4240688 C44.6991404,23.3601398 48.8042659,19.2550143 53.8681948,19.2550143 L53.8681948,19.2550143 Z M44.6991404,46.7621777 L35.530086,46.7621777 L35.530086,65.1002865 C37.9618704,65.1002865 40.2940553,64.1342639 42.0135865,62.4147327 C43.7331178,60.6952014 44.6991404,58.3630165 44.6991404,55.9312321 L44.6991404,46.7621777 L44.6991404,46.7621777 Z M26.3610315,65.1002865 L35.530086,65.1002865 L35.530086,55.9312321 C35.530086,60.995161 31.4249605,65.1002865 26.3610315,65.1002865 L26.3610315,65.1002865 Z" id="Polygon_1_copy_16" fill="#41288D"></path>
            <path d="M63.0372493,28.4240688 C63.0372493,23.3601398 58.9321238,19.2550143 53.8681948,19.2550143 L53.8681948,65.1002865 C58.9321238,65.1002865 63.0372493,60.995161 63.0372493,55.9312321 L63.0372493,28.4240688 Z M17.1919771,28.4240688 C17.1919771,23.3601398 21.2971026,19.2550143 26.3610315,19.2550143 L26.3610315,65.1002865 C21.2971026,65.1002865 17.1919771,60.995161 17.1919771,55.9312321 L17.1919771,28.4240688 L17.1919771,28.4240688 Z M44.6991404,65.1002865 L53.8681948,65.1002865 L53.8681948,55.9312321 C53.8681948,60.995161 49.7630693,65.1002865 44.6991404,65.1002865 L44.6991404,65.1002865 Z M35.530086,19.2550143 L26.3610315,19.2550143 L26.3610315,28.4240688 C26.3610315,23.3601398 30.466157,19.2550143 35.530086,19.2550143 L35.530086,19.2550143 Z M44.6991404,19.2550143 L53.8681948,19.2550143 L53.8681948,28.4240688 C53.8681948,23.3601398 49.7630693,19.2550143 44.6991404,19.2550143 L44.6991404,19.2550143 Z M35.530086,65.1002865 L26.3610315,65.1002865 L26.3610315,55.9312321 C26.3610315,60.995161 30.466157,65.1002865 35.530086,65.1002865 Z" id="Ellipse_6_copy_2" fill="#768FFF"></path>
            <g id="au" transform="translate(57.077364, 0.000000)">
                <circle id="Oval" fill="#FFFFFF" cx="11.4613181" cy="11.4613181" r="11.4613181"></circle>
                <path d="M11.4615182,0 C5.14093103,0 0,5.14093103 0,11.4611179 C0,14.5221394 1.19246543,17.4006285 3.35683622,19.5657999 C5.52120702,21.7301707 8.39969608,22.9226361 11.4615182,22.9226361 C14.5225397,22.9226361 17.4006285,21.7301707 19.5662002,19.5662002 C21.7301707,17.4010288 22.9226361,14.5225397 22.9226361,11.4615182 C22.9226361,5.14093103 17.7809045,0 11.4615182,0 Z" id="Shape" fill="#003399" fill-rule="nonzero"></path>
                <g id="Group-4" transform="translate(1.146132, 1.146132)" fill="#FFCC00">
                    <polygon id="Path" points="17.6371001 4.61284777 18.0221796 5.80611379 19.2774906 5.80411233 18.2603525 6.53904571 18.651036 7.73151114 17.6375004 6.99217457 16.6239648 7.73151114 17.0142481 6.53904571 15.9975102 5.80411233 17.2524209 5.80611379"></polygon>
                    <polygon id="Path" points="2.62380423 5.65680543 3.0088837 4.46273883 3.39436346 5.65680543 4.64847363 5.6536031 3.63253631 6.38973735 4.02201898 7.58220278 3.0088837 6.84286621 1.99574841 7.58220278 2.38523108 6.38973735 1.36929376 5.6536031"></polygon>
                    <polygon id="Path" points="0.191238792 9.99995747 1.44574925 10.0019589 1.83082872 8.80789233 2.2159082 10.0019589 3.47081895 9.99995747 2.45448134 10.7348908 2.84476459 11.9273563 1.83082872 11.1880197 0.817693441 11.9273563 1.2075764 10.7348908"></polygon>
                    <polygon id="Path" points="2.96164942 15.469527 1.94771355 16.2088636 2.33759651 15.0163982 1.3212589 14.2814648 2.57616966 14.2834662 2.96124913 13.0889993 3.3463286 14.2834662 4.60083906 14.2814648 3.58450145 15.0163982 3.97438441 16.2088636"></polygon>
                    <polygon id="Path" points="6.98296789 19.3031092 5.96943232 18.5637727 4.95629703 19.3031092 5.34617999 18.1106438 4.32984238 17.3749098 5.58435284 17.3781122 5.96943232 16.1848462 6.35491208 17.3781122 7.60942254 17.3749098 6.59308493 18.1106438"></polygon>
                    <polygon id="Path" points="6.65673112 3.31710739 7.04661408 4.50957282 6.03267822 3.77023625 5.01954293 4.50957282 5.40982618 3.31710739 4.39388886 2.58217401 5.64759874 2.58417547 6.03267822 1.39010887 6.41855827 2.58417547 7.67306873 2.58217401"></polygon>
                    <polygon id="Path" points="9.86666073 1.37409725 10.2513399 0.180831238 10.6368197 1.37409725 11.8905296 1.3720958 10.8745922 2.10782976 11.2652758 3.29909432 10.2513399 2.56095862 9.23820463 3.29909432 9.62808758 2.10782976 8.61174998 1.3720958"></polygon>
                    <polygon id="Path" points="11.3281214 20.4495413 10.3149861 19.7102047 9.30185082 20.4495413 9.69173378 19.2570758 8.67539617 18.5221424 9.92950634 18.5241439 10.3145858 17.3300773 10.7000656 18.5241439 11.9541757 18.5221424 10.9382384 19.2570758"></polygon>
                    <polygon id="Path" points="14.0677096 2.57496878 14.45399 1.38170277 14.8390695 2.57496878 16.0931796 2.57296733 15.0772423 3.30790071 15.466725 4.50036614 14.4543903 3.76102957 13.4404544 4.50036614 13.8303374 3.30790071 12.8144001 2.57296733"></polygon>
                    <polygon id="Path" points="15.5467831 19.3199214 14.5332475 18.5797843 13.5193116 19.3199214 13.9099952 18.1266554 12.8932573 17.391722 14.148168 17.3949244 14.5336478 16.2008578 14.9187273 17.3949244 16.173638 17.391722 15.1569001 18.1266554"></polygon>
                    <polygon id="Path" points="18.6338235 16.2316801 17.6214888 15.4911427 16.6075529 16.2316801 16.9982365 15.0392147 15.9814986 14.3030805 17.2364093 14.3050819 17.6218891 13.1118159 18.0069686 14.3050819 19.2610787 14.3030805 18.2451414 15.0392147"></polygon>
                    <polygon id="Path" points="18.7987432 11.178813 17.7852076 11.9181496 18.1758912 10.7256842 17.1591533 9.98954992 18.414064 9.99275224 18.7991435 8.79948623 19.1846232 9.99275224 20.439534 9.98954992 19.4227961 10.7256842 19.8134796 11.9181496"></polygon>
                </g>
            </g>
        </g>
    </g>
</svg>
