<?xml version="1.0" encoding="UTF-8"?>
<svg width="88px" height="88px" viewBox="0 0 88 88" version="1.1" xmlns="http://www.w3.org/2000/svg" xmlns:xlink="http://www.w3.org/1999/xlink">
    <!-- Generator: Sketch 46.2 (44496) - http://www.bohemiancoding.com/sketch -->
    <title>LHAU</title>
    <desc>Created with Sketch.</desc>
    <defs>
        <circle id="path-1" cx="39.8496275" cy="42.1418911" r="39.8496275"></circle>
        <filter x="-8.8%" y="-6.3%" width="117.6%" height="117.6%" filterUnits="objectBoundingBox" id="filter-2">
            <feOffset dx="0" dy="2" in="SourceAlpha" result="shadowOffsetOuter1"></feOffset>
            <feGaussianBlur stdDeviation="2" in="shadowOffsetOuter1" result="shadowBlurOuter1"></feGaussianBlur>
            <feColorMatrix values="0 0 0 0 0   0 0 0 0 0   0 0 0 0 0  0 0 0 0.2 0" type="matrix" in="shadowBlurOuter1"></feColorMatrix>
        </filter>
        <circle id="path-3" cx="11.4613181" cy="11.4613181" r="11.4613181"></circle>
    </defs>
    <g id="Page-1" stroke="none" stroke-width="1" fill="none" fill-rule="evenodd">
        <g id="LHAU" transform="translate(4.000000, 0.000000)">
            <g id="Ellipse_7_copy" fill-rule="nonzero">
                <use fill="black" fill-opacity="1" filter="url(#filter-2)" xlink:href="#path-1"></use>
                <use fill="#E9EFFF" fill-rule="evenodd" xlink:href="#path-1"></use>
            </g>
            <path d="M35.530086,37.5931232 L44.6991404,37.5931232 L44.6991404,19.2550143 C39.6352115,19.2550143 35.530086,23.3601398 35.530086,28.4240688 L35.530086,37.5931232 L35.530086,37.5931232 Z M53.8681948,19.2550143 L44.6991404,19.2550143 L44.6991404,28.4240688 C44.6991404,23.3601398 48.8042659,19.2550143 53.8681948,19.2550143 L53.8681948,19.2550143 Z M44.6991404,46.7621777 L35.530086,46.7621777 L35.530086,65.1002865 C37.9618704,65.1002865 40.2940553,64.1342639 42.0135865,62.4147327 C43.7331178,60.6952014 44.6991404,58.3630165 44.6991404,55.9312321 L44.6991404,46.7621777 L44.6991404,46.7621777 Z M26.3610315,65.1002865 L35.530086,65.1002865 L35.530086,55.9312321 C35.530086,60.995161 31.4249605,65.1002865 26.3610315,65.1002865 L26.3610315,65.1002865 Z" id="Polygon_1_copy_16" fill="#41288D"></path>
            <path d="M63.0372493,28.4240688 C63.0372493,23.3601398 58.9321238,19.2550143 53.8681948,19.2550143 L53.8681948,65.1002865 C58.9321238,65.1002865 63.0372493,60.995161 63.0372493,55.9312321 L63.0372493,28.4240688 Z M17.1919771,28.4240688 C17.1919771,23.3601398 21.2971026,19.2550143 26.3610315,19.2550143 L26.3610315,65.1002865 C21.2971026,65.1002865 17.1919771,60.995161 17.1919771,55.9312321 L17.1919771,28.4240688 L17.1919771,28.4240688 Z M44.6991404,65.1002865 L53.8681948,65.1002865 L53.8681948,55.9312321 C53.8681948,60.995161 49.7630693,65.1002865 44.6991404,65.1002865 L44.6991404,65.1002865 Z M35.530086,19.2550143 L26.3610315,19.2550143 L26.3610315,28.4240688 C26.3610315,23.3601398 30.466157,19.2550143 35.530086,19.2550143 L35.530086,19.2550143 Z M44.6991404,19.2550143 L53.8681948,19.2550143 L53.8681948,28.4240688 C53.8681948,23.3601398 49.7630693,19.2550143 44.6991404,19.2550143 L44.6991404,19.2550143 Z M35.530086,65.1002865 L26.3610315,65.1002865 L26.3610315,55.9312321 C26.3610315,60.995161 30.466157,65.1002865 35.530086,65.1002865 Z" id="Ellipse_6_copy_2" fill="#768FFF"></path>
            <g id="au" transform="translate(56.848138, 0.000000)">
                <mask id="mask-4" fill="white">
                    <use xlink:href="#path-3"></use>
                </mask>
                <use id="Oval" fill="#FFFFFF" xlink:href="#path-3"></use>
                <path d="M21.6368826,6.19173509 L21.1862718,6.58463998 L21.2304571,5.94930442 L20.5712597,5.84978444 L21.1197948,5.48713363 L20.7905941,4.93300638 L20.8972758,4.96326046 C20.3328181,4.14640046 19.6656593,3.40597181 18.9141105,2.76068425 L18.579735,2.8112404 L18.6239203,3.44657596 L18.1311145,3.01664964 L17.6387068,3.44657596 L17.6828921,2.8112404 L17.0236946,2.71172042 L17.5726278,2.34867154 L17.2434271,1.79494236 L17.8827213,1.97805913 L17.8847116,1.97328217 C16.0508211,0.728486256 13.8395639,0 11.461119,0 C10.623588,0 9.80675633,0.090762222 9.01977966,0.262732748 L3.89149415,2.86299079 C3.14711055,3.51862842 2.48831116,4.26980523 1.93420316,5.09661723 L1.93420316,7.60850153 L1.34625953,7.60850153 L1.34625953,6.07629192 C0.487630967,7.68294248 0,9.51570244 0,11.4607209 C0,12.8201639 0.235257062,14.1433815 0.686265948,15.3837986 L0.817229694,15.3837986 L0.795734125,15.6728046 C1.36457058,17.114252 2.22877207,18.4370716 3.35689138,19.5656281 C5.52157481,21.7303867 8.39999074,22.9226361 11.4615171,22.9226361 C14.5230434,22.9226361 17.4010613,21.7303867 19.5653467,19.5656281 C21.7304281,17.4004714 22.9226361,14.5223536 22.9226361,11.4607209 C22.92184,9.56227779 22.4576949,7.77012198 21.6368826,6.19173509 Z M3.66977133,13.3862335 L2.72356822,12.5610138 L1.77696705,13.3862335 L1.86255126,12.1657205 L0.595904945,11.974244 L1.6495859,11.2776042 L1.01666081,10.2139346 L2.24549084,10.5650411 L2.72317016,9.43011525 L3.20084947,10.5650411 L4.42928144,10.2139346 L3.79675442,11.2776042 L4.85043537,11.974244 L3.58418712,12.1657205 L3.66977133,13.3862335 Z M14.7236687,7.62601705 L14.2304648,7.19648882 L13.737659,7.62601705 L13.7826405,6.99028342 L13.1226469,6.89076344 L13.6719781,6.52811263 L13.3419813,5.97398538 L13.9816735,6.15710214 L14.2304648,5.56595346 L14.4792562,6.15710214 L15.1185503,5.97398538 L14.7893496,6.52811263 L15.3382828,6.89076344 L14.6786873,6.99028342 L14.7236687,7.62601705 Z M18.6235223,13.7982462 L18.1307164,13.3683199 L17.6383087,13.7982462 L17.6828921,13.1629107 L17.0232966,13.0633907 L17.5722297,12.7007399 L17.2430291,12.1466126 L17.8823232,12.3297294 L18.1307164,11.7385807 L18.3799058,12.3297294 L19.0192,12.1466126 L18.6896012,12.7007399 L19.2385344,13.0633907 L18.5793369,13.1629107 L18.6235223,13.7982462 Z M20.5716577,9.46912709 L19.7588068,8.88315344 L18.9467519,9.46912709 L19.2592338,8.52408535 L18.4439945,7.94089827 L19.4503056,7.94288867 L19.7584087,6.99705078 L20.067308,7.94288867 L21.073221,7.94089827 L20.2583797,8.52408535 L20.5716577,9.46912709 Z" id="Combined-Shape" fill="#002776" fill-rule="nonzero" mask="url(#mask-4)"></path>
                <path d="M10.2955527,7.6104559 L10.2955527,6.75013379 L6.8520295,5.04077377 L10.2955527,5.04077377 L10.2955527,2.46054576 L6.78898065,2.46054576 L10.2955527,0.724616774 L10.2955527,0.0664021521 C7.66088751,0.205341053 5.45493847,1.12696782 3.67770563,2.83128246 C1.9004728,4.5355971 0.898116715,6.1259543 0.670637384,7.60235405 L1.3488593,7.60235405 L1.3488593,5.95828791 L1.93345385,5.01239122 L1.93345385,7.60235405 L3.91850493,7.60235405 L3.91850493,5.16282271 L8.86212638,7.60235405 L10.2955527,7.6104559 Z" id="Oval-Copy" fill="#E00034" mask="url(#mask-4)"></path>
                <polygon id="Path" fill="#FFFFFF" mask="url(#mask-4)" points="8.86811647 7.60850153 3.9273201 5.16150426 3.9273201 7.60850153 3.33937647 7.60850153 3.33937647 4.452922 3.56269155 4.452922 10.0057894 7.60850153"></polygon>
                <polygon id="Path" fill="#FFFFFF" mask="url(#mask-4)" points="10.2955815 5.04088604 6.8519117 5.04088604 10.2955815 6.74705658 10.2955815 7.25261808 4.58094463 4.45332008 10.2955815 4.45332008"></polygon>
                <polygon id="Path" fill="#FFFFFF" mask="url(#mask-4)" points="10.2955815 0.722913137 6.79498825 2.45854159 10.2955815 2.45854159 10.2955815 3.04690372 4.51765212 3.04690372 10.2955815 0.116637417"></polygon>
            </g>
        </g>
    </g>
</svg>