<svg xmlns="http://www.w3.org/2000/svg" width="42" height="40" viewBox="0 0 42 40">
    <g fill="none" fill-rule="evenodd">
        <path d="M5 5h40v40H5z"/>
        <path fill="#768FFF" fill-rule="nonzero" d="M40 35v1.667A3.333 3.333 0 0 1 36.667 40H13.333C11.483 40 10 38.5 10 36.667V13.333A3.333 3.333 0 0 1 13.333 10h23.334A3.333 3.333 0 0 1 40 13.333V15H25c-1.85 0-3.333 1.5-3.333 3.333v13.334A3.333 3.333 0 0 0 25 35h15zm-15-3.333h16.667V18.333H25v13.334zm6.667-4.167a2.5 2.5 0 1 1 0-5 2.5 2.5 0 0 1 0 5z"/>
        <g>
            <circle cx="10" cy="10" r="10" fill="#FFAB00"/>
            <path fill="#FFF" fill-rule="nonzero" d="M10 5a2.5 2.5 0 1 1 0 5 2.5 2.5 0 0 1 0-5zm0 6.25c2.763 0 5 1.119 5 2.5V15H5v-1.25c0-1.381 2.237-2.5 5-2.5z"/>
        </g>
    </g>
</svg>
