<?xml version="1.0" encoding="UTF-8"?>
<svg width="115px" height="114px" viewBox="0 0 115 114" version="1.1" xmlns="http://www.w3.org/2000/svg" xmlns:xlink="http://www.w3.org/1999/xlink">
    <!-- Generator: Sketch 43.1 (39012) - http://www.bohemiancoding.com/sketch -->
    <title>Group 3</title>
    <desc>Created with Sketch.</desc>
    <defs></defs>
    <g id="Page-2" stroke="none" stroke-width="1" fill="none" fill-rule="evenodd">
        <g id="Desktop-front-end-dashboard-1-Copy" transform="translate(-151.000000, -645.000000)" fill-rule="nonzero" fill="#D9A162">
            <g id="balances-widget" transform="translate(80.000000, 618.000000)">
                <g id="bal-widget-1">
                    <g id="icn-TIME">
                        <g id="Group-3" transform="translate(71.000000, 27.000000)">
                            <path d="M57.5350631,0.503091425 C25.881009,0.503091425 0.327135214,25.7118819 0.327135214,56.9384747 C0.327135214,88.1673425 25.881009,113.376133 57.5350631,113.376133 C89.1914233,113.376133 114.745297,88.1673425 114.745297,56.9384747 C114.745297,25.7118819 89.1914233,0.503091425 57.5350631,0.503091425 Z M57.5350631,10.536554 C83.4694775,10.536554 104.574486,31.3542824 104.574486,56.9384747 C104.574486,82.5249419 83.4694775,103.34267 57.5350631,103.34267 C31.6006488,103.34267 10.497946,82.5249419 10.497946,56.9384747 C10.497946,31.3542824 31.6006488,10.536554 57.5350631,10.536554 L57.5350631,10.536554 Z" id="Fill-50"></path>
                            <path d="M79.5303062,55.6848606 L59.9520721,55.6848606 L59.9520721,33.8637858 C59.9520721,31.1040148 57.66191,28.8470544 54.8666667,28.8470544 C52.0691171,28.8470544 49.7812612,31.1040148 49.7812612,33.8637858 L49.7812612,58.1943637 C49.7812612,58.6948994 49.9081081,59.070301 49.9081081,59.4479778 C49.7812612,59.8233795 49.7812612,60.3261903 49.7812612,60.7015918 C49.7812612,63.461363 52.0691171,65.7183232 54.8666667,65.7183232 L79.5303062,65.7183232 C82.3255496,65.7183232 84.6157117,63.461363 84.6157117,60.7015918 C84.6157117,57.9418209 82.3255496,55.6848606 79.5303062,55.6848606" id="Fill-51"></path>
                        </g>
                    </g>
                </g>
            </g>
        </g>
    </g>
</svg>