<?xml version="1.0" encoding="UTF-8"?>
<svg width="88px" height="88px" viewBox="0 0 88 88" version="1.1" xmlns="http://www.w3.org/2000/svg" xmlns:xlink="http://www.w3.org/1999/xlink">
    <!-- Generator: Sketch 46.2 (44496) - http://www.bohemiancoding.com/sketch -->
    <title>LHUS</title>
    <desc>Created with Sketch.</desc>
    <defs>
        <circle id="path-1" cx="39.8496275" cy="42.1418911" r="39.8496275"></circle>
        <filter x="-8.8%" y="-6.3%" width="117.6%" height="117.6%" filterUnits="objectBoundingBox" id="filter-2">
            <feOffset dx="0" dy="2" in="SourceAlpha" result="shadowOffsetOuter1"></feOffset>
            <feGaussianBlur stdDeviation="2" in="shadowOffsetOuter1" result="shadowBlurOuter1"></feGaussianBlur>
            <feColorMatrix values="0 0 0 0 0   0 0 0 0 0   0 0 0 0 0  0 0 0 0.2 0" type="matrix" in="shadowBlurOuter1"></feColorMatrix>
        </filter>
        <circle id="path-3" cx="11.4613181" cy="11.4613181" r="11.4613181"></circle>
    </defs>
    <g id="Page-1" stroke="none" stroke-width="1" fill="none" fill-rule="evenodd">
        <g id="LHUS" transform="translate(4.000000, 0.000000)">
            <g id="Ellipse_7_copy" fill-rule="nonzero">
                <use fill="black" fill-opacity="1" filter="url(#filter-2)" xlink:href="#path-1"></use>
                <use fill="#E9EFFF" fill-rule="evenodd" xlink:href="#path-1"></use>
            </g>
            <path d="M35.530086,37.5931232 L44.6991404,37.5931232 L44.6991404,19.2550143 C39.6352115,19.2550143 35.530086,23.3601398 35.530086,28.4240688 L35.530086,37.5931232 L35.530086,37.5931232 Z M53.8681948,19.2550143 L44.6991404,19.2550143 L44.6991404,28.4240688 C44.6991404,23.3601398 48.8042659,19.2550143 53.8681948,19.2550143 L53.8681948,19.2550143 Z M44.6991404,46.7621777 L35.530086,46.7621777 L35.530086,65.1002865 C37.9618704,65.1002865 40.2940553,64.1342639 42.0135865,62.4147327 C43.7331178,60.6952014 44.6991404,58.3630165 44.6991404,55.9312321 L44.6991404,46.7621777 L44.6991404,46.7621777 Z M26.3610315,65.1002865 L35.530086,65.1002865 L35.530086,55.9312321 C35.530086,60.995161 31.4249605,65.1002865 26.3610315,65.1002865 L26.3610315,65.1002865 Z" id="Polygon_1_copy_16" fill="#41288D"></path>
            <path d="M63.0372493,28.4240688 C63.0372493,23.3601398 58.9321238,19.2550143 53.8681948,19.2550143 L53.8681948,65.1002865 C58.9321238,65.1002865 63.0372493,60.995161 63.0372493,55.9312321 L63.0372493,28.4240688 Z M17.1919771,28.4240688 C17.1919771,23.3601398 21.2971026,19.2550143 26.3610315,19.2550143 L26.3610315,65.1002865 C21.2971026,65.1002865 17.1919771,60.995161 17.1919771,55.9312321 L17.1919771,28.4240688 L17.1919771,28.4240688 Z M44.6991404,65.1002865 L53.8681948,65.1002865 L53.8681948,55.9312321 C53.8681948,60.995161 49.7630693,65.1002865 44.6991404,65.1002865 L44.6991404,65.1002865 Z M35.530086,19.2550143 L26.3610315,19.2550143 L26.3610315,28.4240688 C26.3610315,23.3601398 30.466157,19.2550143 35.530086,19.2550143 L35.530086,19.2550143 Z M44.6991404,19.2550143 L53.8681948,19.2550143 L53.8681948,28.4240688 C53.8681948,23.3601398 49.7630693,19.2550143 44.6991404,19.2550143 L44.6991404,19.2550143 Z M35.530086,65.1002865 L26.3610315,65.1002865 L26.3610315,55.9312321 C26.3610315,60.995161 30.466157,65.1002865 35.530086,65.1002865 Z" id="Ellipse_6_copy_2" fill="#768FFF"></path>
            <g id="au" transform="translate(56.848138, 0.000000)">
                <mask id="mask-4" fill="white">
                    <use xlink:href="#path-3"></use>
                </mask>
                <use id="Oval" fill="#FFFFFF" xlink:href="#path-3"></use>
                <g id="Group" mask="url(#mask-4)">
                    <path d="M10.6431055,22.8931736 L12.2142639,22.8931736 C14.1068677,22.765943 15.9106876,22.1785422 17.4945295,21.1860648 L5.36244354,21.1860648 C6.94628539,22.1785422 8.74970893,22.765943 10.6431055,22.8931736 Z" id="Shape" fill="#BE0A2F" fill-rule="nonzero"></path>
                    <path d="M2.99024797,19.2110187 L19.8659323,19.2110187 C20.3562257,18.6791079 20.7902364,18.107165 21.1659827,17.5039099 L1.69138667,17.5039099 C2.06634022,18.107165 2.50114365,18.6791079 2.99024797,19.2110187 Z" id="Shape" fill="#BE0A2F" fill-rule="nonzero"></path>
                    <path d="M22.8397975,10.4852233 L17.6407851,10.4852233 L17.6407851,8.55813646 L22.5076505,8.55813646 C22.3530714,7.96954658 22.1529112,7.39879276 21.9111335,6.85102764 L17.6407851,6.85102764 L17.6407851,5.03452433 L20.9024054,5.03452433 C20.4838526,4.42017126 20.0082244,3.84941744 19.4814662,3.32741551 L17.6407851,3.32741551 L17.6407851,1.84583371 C17.2503736,1.59335442 16.8445043,1.36386382 16.4239697,1.1593437 L16.3970174,1.17916154 L16.5682436,1.70195619 L16.1227385,1.37733995 L15.6784225,1.70195619 L15.8496486,1.17916154 L15.4033509,0.855734375 L15.7473886,0.856923445 C14.4140442,0.312329174 12.9562439,0.0107016341 11.4286847,0.0107016341 C10.016069,0.0107016341 8.66251043,0.268333567 7.41279737,0.737620042 L7.45084763,0.856527089 L8.00138725,0.855338018 L7.55588218,1.17876518 L7.72710833,1.70155983 L7.28199962,1.37694359 L6.83689091,1.70155983 L7.00811706,1.17876518 L6.76594304,1.00357547 C4.99303898,1.79628911 3.4571563,3.02776975 2.29701989,4.55849979 L2.74093953,4.5592925 L2.91018389,4.03570514 L3.07982461,4.5592925 L3.63036424,4.55849979 L3.18446281,4.88192695 L3.35568896,5.40551431 L2.91058025,5.08010536 L2.46547154,5.40551431 L2.63669769,4.88192695 L2.25936599,4.60844075 C1.99697778,4.95802746 1.75480376,5.32426117 1.53284394,5.70317829 L1.56772334,5.81257277 L2.11865932,5.8113837 L1.6727579,6.13362179 L1.84398405,6.65760551 L1.39887534,6.33298927 L1.07505182,6.57001065 C0.549482672,7.67584618 0.197121459,8.8799782 0.0512621487,10.1467346 L0.0512621487,10.484827 L0.0512621487,12.1919358 L17.6415778,12.1919358 L22.8604081,12.1919358 C22.875866,11.9509508 22.8833968,11.7079841 22.8833968,11.4650174 C22.8822077,11.1352485 22.8675425,10.8090468 22.8397975,10.4852233 Z" id="Path" fill="#002768"></path>
                    <rect id="Rectangle-2" fill="#BE0A2F" x="17.6504298" y="10.4756895" width="5.2722063" height="1.71919771"></rect>
                    <rect id="Rectangle-2-Copy" fill="#BE0A2F" x="17.6504298" y="6.85384581" width="5.2722063" height="1.71919771"></rect>
                    <rect id="Rectangle-2-Copy-2" fill="#BE0A2F" x="17.6504298" y="3.32378223" width="5.2722063" height="1.71919771"></rect>
                    <path d="M1.84319133,11.5985896 L1.39808262,11.2731807 L0.952973915,11.5985896 L1.12459642,11.0746059 L0.678298638,10.7511787 L1.22923462,10.7531605 L1.39847898,10.2283841 L1.56732699,10.7531605 L2.11826297,10.7511787 L1.67236154,11.0746059 L1.84319133,11.5985896 Z M1.67196519,8.56963081 L1.84319133,9.09361453 L1.39808262,8.76899829 L0.952973915,9.09361453 L1.12459642,8.56963081 L0.678298638,8.24739272 L1.22923462,8.24858179 L1.39847898,7.72380536 L1.56732699,8.24858179 L2.11826297,8.24739272 L1.67196519,8.56963081 Z M3.35449989,10.4551002 L2.90939118,10.130484 L2.46428247,10.4551002 L2.63550862,9.93151284 L2.18960719,9.60927475 L2.74054317,9.61006746 L2.90978754,9.0864801 L3.07942826,9.61006746 L3.62996788,9.60927475 L3.18406646,9.93151284 L3.35449989,10.4551002 Z M3.18327374,7.49708925 L3.35449989,8.02107297 L2.90939118,7.69645674 L2.46428247,8.02107297 L2.63550862,7.49708925 L2.18960719,7.17366209 L2.74054317,7.1744548 L2.90978754,6.65086744 L3.07942826,7.1744548 L3.62996788,7.17366209 L3.18327374,7.49708925 Z M4.23243025,3.19859954 L4.40127825,2.67382311 L4.57091897,3.19859954 L5.12145859,3.19741047 L4.67555717,3.51964856 L4.84678332,4.04323592 L4.40167461,3.71782697 L3.9565659,4.04323592 L4.12779204,3.51964856 L3.68189062,3.19741047 L4.23243025,3.19859954 Z M4.23243025,5.81336548 L4.40127825,5.28938177 L4.57091897,5.81336548 L5.12145859,5.81217641 L4.67555717,6.13441451 L4.84678332,6.65839822 L4.40167461,6.33378199 L3.9565659,6.65839822 L4.12779204,6.13441451 L3.68189062,5.81217641 L4.23243025,5.81336548 Z M4.23243025,8.24858179 L4.40127825,7.72380536 L4.57091897,8.24858179 L5.12145859,8.24739272 L4.67555717,8.56963081 L4.84678332,9.09361453 L4.40167461,8.76899829 L3.9565659,9.09361453 L4.12779204,8.56963081 L3.68189062,8.24739272 L4.23243025,8.24858179 Z M4.84638696,11.5985896 L4.40127825,11.2731807 L3.95616954,11.5985896 L4.12739569,11.0746059 L3.68149427,10.7511787 L4.23243025,10.7531605 L4.40127825,10.2283841 L4.57091897,10.7531605 L5.12145859,10.7511787 L4.67555717,11.0746059 L4.84638696,11.5985896 Z M6.23363583,10.4551002 L5.78852712,10.130484 L5.34381477,10.4551002 L5.51504092,9.93151284 L5.06913949,9.60927475 L5.61967912,9.61006746 L5.78892348,9.0864801 L5.9585642,9.61006746 L6.50910382,9.60927475 L6.0632024,9.93151284 L6.23363583,10.4551002 Z M6.06240968,7.49708925 L6.23363583,8.02107297 L5.78852712,7.69645674 L5.34381477,8.02107297 L5.51504092,7.49708925 L5.06913949,7.17366209 L5.61967912,7.1744548 L5.78892348,6.65086744 L5.9585642,7.1744548 L6.50910382,7.17366209 L6.06240968,7.49708925 Z M6.06240968,4.88232331 L6.23363583,5.40591067 L5.78852712,5.08050172 L5.34421113,5.40630703 L5.51543727,4.88271967 L5.06953585,4.5592925 L5.62007547,4.56008522 L5.78931984,4.03649786 L5.95896055,4.56008522 L6.50950018,4.5592925 L6.06240968,4.88232331 Z M6.06240968,2.54104357 L6.23363583,3.06502729 L5.78852712,2.74041106 L5.34381477,3.06502729 L5.51504092,2.54104357 L5.06913949,2.21880548 L5.61967912,2.21999455 L5.78892348,1.69601083 L5.9585642,2.21999455 L6.50910382,2.21880548 L6.06240968,2.54104357 Z M7.72631562,11.5985896 L7.28120691,11.2731807 L6.8360982,11.5985896 L7.00732434,11.0746059 L6.56142292,10.7511787 L7.11196254,10.7531605 L7.28160326,10.2283841 L7.45045127,10.7531605 L8.00099089,10.7511787 L7.55548583,11.0746059 L7.72631562,11.5985896 Z M7.55508947,8.56963081 L7.72631562,9.09361453 L7.28120691,8.76899829 L6.8360982,9.09361453 L7.00732434,8.56963081 L6.56142292,8.24739272 L7.11196254,8.24858179 L7.28160326,7.72380536 L7.45045127,8.24858179 L8.00099089,8.24739272 L7.55508947,8.56963081 Z M7.55508947,6.13441451 L7.72631562,6.65839822 L7.28120691,6.33378199 L6.8360982,6.65839822 L7.00732434,6.13441451 L6.56142292,5.81217641 L7.11196254,5.81336548 L7.28160326,5.28938177 L7.45045127,5.81336548 L8.00099089,5.81217641 L7.55508947,6.13441451 Z M7.55508947,3.51964856 L7.72631562,4.04323592 L7.28120691,3.71782697 L6.8360982,4.04323592 L7.00732434,3.51964856 L6.56142292,3.19741047 L7.11196254,3.19859954 L7.28160326,2.67382311 L7.45045127,3.19859954 L8.00099089,3.19741047 L7.55508947,3.51964856 Z M13.0735655,0.857319802 L13.2428098,0.333732443 L13.4128469,0.857319802 L13.9637829,0.856130732 L13.5174851,1.1795579 L13.6887113,1.70235254 L13.2432062,1.37773631 L12.7984938,1.70235254 L12.96972,1.1795579 L12.5234222,0.856130732 L13.0735655,0.857319802 Z M13.0735655,3.19859954 L13.2428098,2.67382311 L13.4128469,3.19859954 L13.9637829,3.19741047 L13.5174851,3.51964856 L13.6887113,4.04323592 L13.2432062,3.71782697 L12.7984938,4.04323592 L12.96972,3.51964856 L12.5234222,3.19741047 L13.0735655,3.19859954 Z M13.0735655,5.81336548 L13.2428098,5.28938177 L13.4128469,5.81336548 L13.9637829,5.81217641 L13.5174851,6.13441451 L13.6887113,6.65839822 L13.2432062,6.33378199 L12.7984938,6.65839822 L12.96972,6.13441451 L12.5234222,5.81217641 L13.0735655,5.81336548 Z M13.0735655,8.24858179 L13.2428098,7.72380536 L13.4128469,8.24858179 L13.9637829,8.24739272 L13.5174851,8.56963081 L13.6887113,9.09361453 L13.2432062,8.76899829 L12.7984938,9.09361453 L12.96972,8.56963081 L12.5234222,8.24739272 L13.0735655,8.24858179 Z M9.19243949,10.4551002 L8.74733078,10.130484 L8.30222208,10.4551002 L8.47344822,9.93151284 L8.0275468,9.60927475 L8.57848278,9.61006746 L8.74733078,9.0864801 L8.91617879,9.61006746 L9.46711477,9.60927475 L9.02121335,9.93151284 L9.19243949,10.4551002 Z M9.0216097,7.49708925 L9.19283585,8.02107297 L8.74772714,7.69645674 L8.30261843,8.02107297 L8.47384458,7.49708925 L8.02794316,7.17366209 L8.57887914,7.1744548 L8.74772714,6.65086744 L8.91657515,7.1744548 L9.46751113,7.17366209 L9.0216097,7.49708925 Z M9.0216097,4.88232331 L9.19283585,5.40591067 L8.74772714,5.08050172 L8.30261843,5.40591067 L8.47384458,4.88232331 L8.02794316,4.55889615 L8.57887914,4.55968886 L8.74772714,4.0361015 L8.91657515,4.55968886 L9.46751113,4.55889615 L9.0216097,4.88232331 Z M9.0216097,2.54104357 L9.19283585,3.06502729 L8.74772714,2.74041106 L8.30261843,3.06502729 L8.47384458,2.54104357 L8.02794316,2.21880548 L8.57887914,2.21999455 L8.74772714,1.69601083 L8.91657515,2.21999455 L9.46751113,2.21880548 L9.0216097,2.54104357 Z M10.6851193,11.5985896 L10.2396142,11.2731807 L9.79529822,11.5985896 L9.96652436,11.0746059 L9.52062294,10.7511787 L10.0711626,10.7531605 L10.2400106,10.2283841 L10.4092549,10.7531605 L10.9601909,10.7511787 L10.5142895,11.0746059 L10.6851193,11.5985896 Z M10.5134968,8.56963081 L10.6851193,9.09361453 L10.2396142,8.76899829 L9.79529822,9.09361453 L9.96652436,8.56963081 L9.52062294,8.24739272 L10.0711626,8.24858179 L10.2400106,7.72380536 L10.4092549,8.24858179 L10.9601909,8.24739272 L10.5134968,8.56963081 Z M10.5134968,6.13441451 L10.6851193,6.65839822 L10.2396142,6.33378199 L9.79529822,6.65839822 L9.96652436,6.13441451 L9.52062294,5.81217641 L10.0711626,5.81336548 L10.2400106,5.28938177 L10.4092549,5.81336548 L10.9601909,5.81217641 L10.5134968,6.13441451 Z M10.5134968,3.51964856 L10.6851193,4.04323592 L10.2396142,3.71782697 L9.79529822,4.04323592 L9.96652436,3.51964856 L9.52062294,3.19741047 L10.0711626,3.19859954 L10.2400106,2.67382311 L10.4092549,3.19859954 L10.9601909,3.19741047 L10.5134968,3.51964856 Z M10.5134968,1.1795579 L10.6851193,1.70235254 L10.2396142,1.37773631 L9.79529822,1.70235254 L9.96652436,1.1795579 L9.52062294,0.856130732 L10.0711626,0.857319802 L10.2400106,0.333732443 L10.4092549,0.857319802 L10.9601909,0.856130732 L10.5134968,1.1795579 Z M12.1964278,10.4551002 L11.7517155,10.130484 L11.3062104,10.4551002 L11.4774366,9.93151284 L11.0315351,9.60927475 L11.5824711,9.61006746 L11.7521118,9.0864801 L11.9213562,9.61006746 L12.4714995,9.60927475 L12.0259944,9.93151284 L12.1964278,10.4551002 Z M12.0252017,7.49708925 L12.1964278,8.02107297 L11.7517155,7.69645674 L11.3062104,8.02107297 L11.4774366,7.49708925 L11.0315351,7.17366209 L11.5824711,7.1744548 L11.7521118,6.65086744 L11.9213562,7.1744548 L12.4714995,7.17366209 L12.0252017,7.49708925 Z M12.0252017,4.88232331 L12.1964278,5.40591067 L11.7517155,5.08050172 L11.3062104,5.40591067 L11.4774366,4.88232331 L11.0315351,4.55889615 L11.5824711,4.55968886 L11.7521118,4.0361015 L11.9213562,4.55968886 L12.4714995,4.55889615 L12.0252017,4.88232331 Z M12.0252017,2.54104357 L12.1964278,3.06502729 L11.7517155,2.74041106 L11.3062104,3.06502729 L11.4774366,2.54104357 L11.0315351,2.21880548 L11.5824711,2.21999455 L11.7521118,1.69601083 L11.9213562,2.21999455 L12.4714995,2.21880548 L12.0252017,2.54104357 Z M13.6883149,11.5985896 L13.2428098,11.2731807 L12.7980975,11.5985896 L12.9693236,11.0746059 L12.5230259,10.7511787 L13.0739618,10.7531605 L13.2432062,10.2283841 L13.4132433,10.7531605 L13.9641793,10.7511787 L13.5178815,11.0746059 L13.6883149,11.5985896 Z M15.0759601,10.4551002 L14.6304551,10.130484 L14.1857427,10.4551002 L14.3573652,9.93151284 L13.9106711,9.60927475 L14.4616071,9.61006746 L14.6308514,9.0864801 L14.7996994,9.61006746 L15.3510318,9.60927475 L14.9055267,9.93151284 L15.0759601,10.4551002 Z M14.904734,7.49708925 L15.0759601,8.02107297 L14.6304551,7.69645674 L14.1857427,8.02107297 L14.3573652,7.49708925 L13.9106711,7.17366209 L14.4616071,7.1744548 L14.6308514,6.65086744 L14.7996994,7.1744548 L15.3510318,7.17366209 L14.904734,7.49708925 Z M14.904734,4.88232331 L15.0759601,5.40591067 L14.6304551,5.08050172 L14.1857427,5.40591067 L14.3573652,4.88232331 L13.9106711,4.55889615 L14.4616071,4.55968886 L14.6308514,4.0361015 L14.7996994,4.55968886 L15.3510318,4.55889615 L14.904734,4.88232331 Z M14.904734,2.54104357 L15.0759601,3.06502729 L14.6304551,2.74041106 L14.1857427,3.06502729 L14.3573652,2.54104357 L13.9106711,2.21880548 L14.4616071,2.21999455 L14.6308514,1.69601083 L14.7996994,2.21999455 L15.3510318,2.21880548 L14.904734,2.54104357 Z M16.5678472,11.5985896 L16.1223421,11.2731807 L15.6780261,11.5985896 L15.8492523,11.0746059 L15.4029545,10.7511787 L15.9538905,10.7531605 L16.1227385,10.2283841 L16.2919829,10.7531605 L16.8429188,10.7511787 L16.3974138,11.0746059 L16.5678472,11.5985896 Z M16.3966211,8.56963081 L16.5678472,9.09361453 L16.1223421,8.76899829 L15.6780261,9.09361453 L15.8492523,8.56963081 L15.4029545,8.24739272 L15.9538905,8.24858179 L16.1227385,7.72380536 L16.2919829,8.24858179 L16.8429188,8.24739272 L16.3966211,8.56963081 Z M16.3966211,6.13441451 L16.5678472,6.65839822 L16.1223421,6.33378199 L15.6780261,6.65839822 L15.8492523,6.13441451 L15.4029545,5.81217641 L15.9538905,5.81336548 L16.1227385,5.28938177 L16.2919829,5.81336548 L16.8429188,5.81217641 L16.3966211,6.13441451 Z M16.3966211,3.51964856 L16.5678472,4.04323592 L16.1223421,3.71782697 L15.6780261,4.04323592 L15.8492523,3.51964856 L15.4029545,3.19741047 L15.9538905,3.19859954 L16.1227385,2.67382311 L16.2919829,3.19859954 L16.8429188,3.19741047 L16.3966211,3.51964856 Z" id="Shape" fill="#FFFFFF" fill-rule="nonzero"></path>
                    <path d="M0.807510962,15.7698488 L22.0486693,15.7698488 C22.2730073,15.2181201 22.4533496,14.6473663 22.5881109,14.0639291 L0.268862043,14.0639291 C0.403227005,14.6473663 0.583965715,15.2181201 0.807510962,15.7698488 Z" id="Shape" fill="#BE0A2F" fill-rule="nonzero"></path>
                </g>
            </g>
        </g>
    </g>
</svg>