<?xml version="1.0" encoding="UTF-8"?>
<svg width="99px" height="103px" viewBox="0 0 99 103" version="1.1" xmlns="http://www.w3.org/2000/svg" xmlns:xlink="http://www.w3.org/1999/xlink">
    <!-- Generator: Sketch 45.2 (43514) - http://www.bohemiancoding.com/sketch -->
    <title>LHT</title>
    <desc>Created with Sketch.</desc>
    <defs>
        <rect id="path-1" x="0" y="0" width="91" height="94.9107314" rx="4"></rect>
    </defs>
    <g id="Working-version" stroke="none" stroke-width="1" fill="none" fill-rule="evenodd">
        <g id="Desktop-front-end-dashboard-1-Copy-2" transform="translate(-447.000000, -398.000000)">
            <g id="display-1-header-open" transform="translate(0.000000, 64.000000)">
                <g id="balances-widget" transform="translate(40.000000, 302.000000)">
                    <g id="bal-widget-2" transform="translate(328.000000, 0.000000)">
                        <g id="LHT" transform="translate(79.000000, 32.000000)">
                            <g id="Group-2-Copy-2" transform="translate(4.000000, 4.000000)">
                                <mask id="mask-2" fill="white">
                                    <use xlink:href="#path-1"></use>
                                </mask>
                                <rect stroke="#01579B" stroke-width="4" x="-2" y="-2" width="95" height="98.9107314" rx="4"></rect>
                                <g id="Group-55" mask="url(#mask-2)">
                                    <g transform="translate(0.551118, -7.651128)">
                                        <g id="clock" stroke-width="1" fill="none" fill-rule="evenodd" transform="translate(20.000000, 31.000000)">
                                            <path d="M24.198783,43.5640257 C34.890478,43.5640257 43.5578094,34.8954574 43.5578094,24.2022365 C43.5578094,13.5090156 34.890478,4.8404473 24.198783,4.8404473 C13.5070879,4.8404473 4.8397566,13.5090156 4.8397566,24.2022365 C4.8397566,34.8954574 13.5070879,43.5640257 24.198783,43.5640257 L24.198783,43.5640257 Z M24.198783,1.07479521e-15 C30.6166993,5.37397604e-16 36.7717544,2.54987117 41.3099065,7.08867095 C45.8480587,11.6274707 48.397566,17.7834043 48.397566,24.2022365 C48.397566,37.5687626 37.5634018,48.404473 24.198783,48.404473 C10.816856,48.404473 0,37.5134666 0,24.2022365 C-2.14928368e-15,10.8357104 10.8341642,3.22438563e-15 24.198783,0 L24.198783,1.07479521e-15 Z" id="Shape" fill="#FFFFFF" fill-rule="nonzero"></path>
                                            <path d="M23.5938134,14.0373415 L23.5938134,25.4123483" id="Line" stroke="#FFFFFF" stroke-width="3.63033548" stroke-linecap="square"></path>
                                            <path d="M23.7148147,25.4123483 L35.8142062,25.4123483" id="Line" stroke="#FFFFFF" stroke-width="3.63033548" stroke-linecap="square"></path>
                                        </g>
                                        <path d="M75.1677684,64.8589284 C73.5535672,63.246395 70.9419966,63.2454459 69.3277954,64.8532337 L69.3258975,64.8513355 L50.9756282,83.2051727 C50.240175,83.9283925 49.2361628,84.3763712 48.1268146,84.3887096 L43.6732896,84.3887096 L41.1167593,84.3887096 L28.3065879,84.3887096 C27.1127813,84.3887096 26.143881,83.419671 26.143881,82.2266431 C26.143881,81.0298188 27.1127813,80.0617293 28.3065879,80.0617293 L43.4626178,80.0617293 L43.4626178,80.0550856 C45.7410993,80.05034 47.5887476,78.201479 47.5887476,75.9207741 C47.5887476,73.6391201 45.7420483,71.7902591 43.4626178,71.7864626 L43.4626178,71.7855135 L24.085561,71.7855135 C20.4813658,71.7855135 16.9796595,72.5087333 14.5094857,74.814115 L14.4829145,74.8150641 L14.2257431,75.0703739 C14.2077127,75.0893561 14.1896822,75.1054909 14.1716517,75.1244731 L1.16978797,88.027587 C0.375498507,88.8476157 -0.0183248243,89.9106159 0.000654613319,90.9717179 L0.000654613319,105.738879 C0.000654613319,108.025278 1.85114978,109.876037 4.1353251,109.874139 C5.27693828,109.874139 6.31036866,109.411924 7.0581585,108.664027 C7.06859719,108.653587 7.07998485,108.651689 7.09137251,108.645045 L17.4114417,98.322554 C17.8451219,97.9058959 18.4078622,97.7008887 18.9687046,97.7170236 C19.5010778,97.7341075 23.2200986,97.7170236 23.8578077,97.7170236 L23.8559098,97.7113289 C23.9318275,97.712278 24.0086942,97.7170236 24.084612,97.7170236 L45.9565159,97.7170236 C46.1273309,97.7103798 46.292452,97.7018378 46.4756036,97.7018378 C47.6096249,97.7018378 48.6345146,97.2424699 49.3823044,96.500268 L75.1763091,70.7035312 L75.1715643,70.6987857 C76.7810206,69.0862523 76.7800716,66.4714617 75.1677684,64.8589284 Z" id="Shape" fill="#BBDEFB" fill-rule="nonzero"></path>
                                        <path d="M15.7413093,45.0725324 C17.3555104,46.6850658 19.9670811,46.6860149 21.5812822,45.0782271 L21.5831802,45.0801253 L39.9325005,26.7262881 C40.6679537,26.0030683 41.6719659,25.5550896 42.7813141,25.5427512 L47.2348391,25.5427512 L49.7913694,25.5427512 L62.6015408,25.5427512 C63.7953474,25.5427512 64.7642477,26.5117898 64.7642477,27.7048177 C64.7642477,28.901642 63.7953474,29.8697315 62.6015408,29.8697315 L47.4464598,29.8697315 L47.4464598,29.8773244 C45.1679784,29.8820699 43.3203301,31.7309309 43.3203301,34.0116358 C43.3203301,36.2932898 45.1670294,38.1421508 47.4464598,38.1459473 L47.4464598,38.1468964 L66.8235167,38.1468964 C70.4277119,38.1468964 73.9294181,37.4236766 76.399592,35.1182949 L76.4261632,35.1173458 L76.6833346,34.862036 C76.701365,34.8430538 76.7193955,34.826919 76.7374259,34.8079368 L89.7392897,21.9029247 C90.5335792,21.082896 90.9274025,20.0198958 90.9084231,18.9587938 L90.9084231,4.19353133 C90.9084231,1.90713182 89.0579279,0.0563725539 86.7737526,0.0582707685 C85.6321394,0.0582707685 84.598709,0.52048603 83.8509192,1.26838259 C83.8404805,1.27882277 83.8290928,1.28072099 83.8177052,1.28736474 L73.496687,11.6089068 C73.0630068,12.0255649 72.5002665,12.2305721 71.9394241,12.2144372 C71.4070509,12.1973533 67.6880301,12.2144372 67.050321,12.2144372 L67.0522189,12.2201319 C66.9763012,12.2191828 66.8994344,12.2144372 66.8235167,12.2144372 L44.9516128,12.2144372 C44.7807978,12.221081 44.6156767,12.229623 44.4325251,12.229623 C43.2985037,12.229623 42.2736141,12.6889909 41.5258243,13.4311928 L15.7318196,39.2260314 L15.7365644,39.2307769 C14.1280571,40.8452085 14.129006,43.4599991 15.7413093,45.0725324 Z" id="Shape" fill="#01579B" fill-rule="nonzero"></path>
                                    </g>
                                </g>
                                <g id="Group" mask="url(#mask-2)">
                                    <g transform="translate(-3.897188, -7.592859)"></g>
                                </g>
                            </g>
                        </g>
                    </g>
                </g>
            </g>
        </g>
    </g>
</svg>
