<svg xmlns="http://www.w3.org/2000/svg" width="42" height="40" viewBox="0 0 42 40">
    <g fill="none" fill-rule="evenodd">
        <path d="M5 5h40v40H5z"/>
        <path fill="#768FFF" fill-rule="nonzero" d="M40 35v1.667A3.333 3.333 0 0 1 36.667 40H13.333C11.483 40 10 38.5 10 36.667V13.333A3.333 3.333 0 0 1 13.333 10h23.334A3.333 3.333 0 0 1 40 13.333V15H25c-1.85 0-3.333 1.5-3.333 3.333v13.334A3.333 3.333 0 0 0 25 35h15zm-15-3.333h16.667V18.333H25v13.334zm6.667-4.167a2.5 2.5 0 1 1 0-5 2.5 2.5 0 0 1 0 5z"/>
        <g>
            <circle cx="10" cy="10" r="10" fill="#00C853"/>
            <path fill="#FFF" fill-rule="nonzero" d="M12.182 11c-.158 0-.338 0-.53.025.633.42 1.075.975 1.075 1.725V14H16v-1.25c0-1.165-2.547-1.75-3.818-1.75zm-4.364 0C6.548 11 4 11.585 4 12.75V14h7.636v-1.25c0-1.165-2.547-1.75-3.818-1.75zm0-1c.904 0 1.637-.672 1.637-1.5S8.722 7 7.818 7s-1.636.672-1.636 1.5.732 1.5 1.636 1.5zm4.364 0c.904 0 1.636-.672 1.636-1.5S13.086 7 12.182 7c-.904 0-1.637.672-1.637 1.5s.733 1.5 1.637 1.5z"/>
        </g>
    </g>
</svg>
