<svg xmlns="http://www.w3.org/2000/svg" width="22" height="21" viewBox="0 0 22 21">
    <g fill="none" fill-rule="evenodd">
        <path d="M3 3h21v21H3z"/>
        <path fill="#2962FF" fill-rule="nonzero" d="M21.105 18.333v.89c0 .981-.8 1.777-1.79 1.777H6.79C5.796 21 5 20.2 5 19.222V6.778C5 5.796 5.801 5 6.79 5h12.526c.988 0 1.79.796 1.79 1.778v.889h-8.053c-.994 0-1.79.8-1.79 1.777v7.112c0 .981.801 1.777 1.79 1.777h8.052zm-8.052-1.777H22V9.444h-8.947v7.112zm3.579-2.223A1.338 1.338 0 0 1 15.289 13c0-.736.601-1.333 1.343-1.333.74 0 1.342.597 1.342 1.333s-.601 1.333-1.342 1.333z"/>
        <g>
            <circle cx="5.5" cy="5.5" r="5.5" fill="#00C853"/>
            <path fill="#FFF" fill-rule="nonzero" d="M6.7 6.05c-.087 0-.186 0-.291.014.348.23.591.536.591.949V7.7h1.8v-.688c0-.64-1.401-.962-2.1-.962zm-2.4 0c-.699 0-2.1.322-2.1.963V7.7h4.2v-.688c0-.64-1.401-.962-2.1-.962zm0-.55c.497 0 .9-.37.9-.825 0-.456-.403-.825-.9-.825s-.9.37-.9.825c0 .456.403.825.9.825zm2.4 0c.497 0 .9-.37.9-.825 0-.456-.403-.825-.9-.825s-.9.37-.9.825c0 .456.403.825.9.825z"/>
        </g>
    </g>
</svg>
