<svg xmlns="http://www.w3.org/2000/svg" width="120" height="114" viewBox="0 0 120 114">
    <path fill="#FFFFFF" fill-rule="nonzero" d="M113.687 94.448v6.296c0 6.955-5.656 12.593-12.632 12.593H12.632C5.622 113.337 0 107.67 0 100.744V12.593C0 5.638 5.655 0 12.632 0h88.423c6.976 0 12.632 5.638 12.632 12.593v6.297H56.843c-7.01 0-12.631 5.666-12.631 12.593v50.372c0 6.955 5.655 12.593 12.631 12.593h56.844zM56.843 81.855h63.16V31.483h-63.16v50.372zm25.264-15.742c-5.232 0-9.474-4.228-9.474-9.444 0-5.217 4.242-9.445 9.474-9.445s9.474 4.228 9.474 9.445c0 5.216-4.242 9.444-9.474 9.444z"/>
</svg>
