<svg id="Layer_1" data-name="Layer 1" xmlns="http://www.w3.org/2000/svg" xmlns:xlink="http://www.w3.org/1999/xlink" viewBox="0 0 24 24">
  <defs>
    <style>
      .cls-1 {
        fill: url(#linear-gradient);
      }

      .cls-2 {
        fill: #fff;
      }
    </style>
    <linearGradient id="linear-gradient" x1="3.515" y1="20.485" x2="20.485" y2="3.515" gradientUnits="userSpaceOnUse">
      <stop offset="0" stop-color="#92cc72"/>
      <stop offset="1" stop-color="#00a0d2"/>
    </linearGradient>
  </defs>
  <title>4755f317-9a8c-4fc4-b76e-f76c676df281</title>
  <rect class="cls-1" width="24" height="24" rx="12" ry="12"/>
  <g>
    <g>
      <path class="cls-2" d="M4.308,10h.78v3.923h-.78Z"/>
      <path class="cls-2" d="M5.451,11.956c.044-.731.7-.951,1.335-.951.566,0,1.247.126,1.247.808v1.478a1.455,1.455,0,0,0,.1.632H7.341a1.161,1.161,0,0,1-.055-.275A1.3,1.3,0,0,1,6.33,14c-.538,0-.967-.269-.967-.852,0-.643.484-.8.967-.863s.923-.055.923-.374c0-.335-.231-.385-.505-.385-.3,0-.489.121-.517.429Zm1.8.577A1.552,1.552,0,0,1,6.6,12.7c-.242.049-.462.132-.462.418s.225.363.478.363a.58.58,0,0,0,.632-.654Z"/>
      <path class="cls-2" d="M8.417,10H9.2v1.429h.011a1.049,1.049,0,0,1,.9-.423c.566,0,1.176.456,1.176,1.495S10.67,14,10.1,14a.984.984,0,0,1-.934-.44H9.159v.363H8.417Zm1.418,1.593c-.462,0-.665.434-.665.912s.2.907.665.907.665-.434.665-.907S10.3,11.593,9.835,11.593Z"/>
      <path class="cls-2" d="M12.934,11.005a1.4,1.4,0,0,1,1.473,1.5A1.393,1.393,0,0,1,12.934,14a1.392,1.392,0,0,1-1.467-1.495A1.393,1.393,0,0,1,12.934,11.005Zm0,2.407c.533,0,.692-.456.692-.907s-.159-.912-.692-.912-.687.456-.687.912S12.406,13.412,12.934,13.412Z"/>
      <path class="cls-2" d="M14.584,11.082h.742v.527h.011a1,1,0,0,1,.907-.6.583.583,0,0,1,.17.027v.725a1.425,1.425,0,0,0-.28-.027c-.571,0-.769.412-.769.912v1.28h-.78Z"/>
    </g>
    <polygon class="cls-2" points="18.407 11.628 19.503 10.001 18.541 10.001 17.925 10.914 18.407 11.628"/>
    <polygon class="cls-2" points="16.861 13.922 18.276 11.822 17.049 10.001 17.054 10.001 17.054 10.001 16.09 10.001 17.315 11.819 15.898 13.922 16.861 13.922 16.862 13.922 16.861 13.922"/>
    <polygon class="cls-2" points="18.407 12.015 17.927 12.727 18.733 13.922 19.692 13.922 18.407 12.015"/>
  </g>
</svg>
