<svg id="Layer_1" data-name="Layer 1" xmlns="http://www.w3.org/2000/svg" xmlns:xlink="http://www.w3.org/1999/xlink" viewBox="0 0 63.993 64.001">
  <defs>
    <style>
      .cls-1 {
        fill: url(#linear-gradient);
      }

      .cls-2 {
        fill: #fff;
      }
    </style>
    <linearGradient id="linear-gradient" x1="9.372" y1="54.626" x2="54.621" y2="9.377" gradientUnits="userSpaceOnUse">
      <stop offset="0" stop-color="#92cc72"/>
      <stop offset="1" stop-color="#00a0a0"/>
    </linearGradient>
  </defs>
  <title>39cfc051-cbdd-4a7f-80c7-213b4dcc3da5</title>
  <path class="cls-1" d="M63.035,39.742A31.989,31.989,0,1,1,39.733.958,31.992,31.992,0,0,1,63.035,39.742Z"/>
  <path class="cls-2" d="M33.02,43.207a7.635,7.635,0,0,1-7.652,7.652,7.658,7.658,0,0,1-5.415-13.067,7.383,7.383,0,0,1,5.415-2.236h2.8v-4.31H17.717V26.4H28.171v-4.2a9.013,9.013,0,0,1,9.05-9.053,9.013,9.013,0,0,1,9.055,9.053,9.013,9.013,0,0,1-9.055,9.05h-4.2v4.31H46.276v4.85H33.02Zm-4.85-2.8h-2.8a2.606,2.606,0,0,0-1.94.835,2.734,2.734,0,0,0-.809,1.967,2.762,2.762,0,0,0,2.749,2.749,2.734,2.734,0,0,0,1.967-.809,2.606,2.606,0,0,0,.835-1.94Zm4.85-18.211v4.2h4.2a4.19,4.19,0,0,0,2.964-7.165,4.2,4.2,0,0,0-7.165,2.964Z"/>
</svg>
