<svg id="Layer_1" data-name="Layer 1" xmlns="http://www.w3.org/2000/svg" viewBox="0 0 192.214 25.544">
  <defs>
    <style>
      .cls-1 {
        fill: #5db3ed;
      }

      .cls-2 {
        fill: #d9a162;
      }
    </style>
  </defs>
  <title>a92693b9-efd8-4fb5-92ed-1a8cc052713c</title>
  <g id="logo">
    <g id="txt-logo">
      <path id="Chronobank.io" class="cls-1" d="M60.8,21.054a6.919,6.919,0,0,0,6.125-3.428l-2.285-1.166A4.476,4.476,0,0,1,60.8,18.678a5.222,5.222,0,0,1-5.256-5.508A5.222,5.222,0,0,1,60.8,7.662a4.526,4.526,0,0,1,3.839,2.217l2.285-1.166A6.891,6.891,0,0,0,60.8,5.285a7.69,7.69,0,0,0-8,7.885A7.69,7.69,0,0,0,60.8,21.054ZM78.12,20.78V12.964c0-2.263-1.188-3.5-3.565-3.5a5.276,5.276,0,0,0-3.908,1.783V5.537h-2.4V20.78h2.4v-7.7a3.709,3.709,0,0,1,2.834-1.485c1.348,0,2.24.526,2.24,2.24V20.78Zm4.746,0V13.261A3.812,3.812,0,0,1,85.7,11.8a3.537,3.537,0,0,1,.754.069V9.49a4.714,4.714,0,0,0-3.588,1.874V9.742h-2.4V20.78Zm9.751.274a5.532,5.532,0,0,1-5.668-5.8,5.68,5.68,0,1,1,11.358,0A5.524,5.524,0,0,1,92.617,21.054Zm0-2.125c2.057,0,3.2-1.714,3.2-3.679,0-1.943-1.143-3.657-3.2-3.657-2.034,0-3.177,1.714-3.177,3.657C89.44,17.215,90.583,18.929,92.617,18.929Zm17.2,1.851V13.01c0-2.263-1.188-3.542-3.565-3.542a5.223,5.223,0,0,0-3.885,1.783V9.742h-2.4V20.78h2.4v-7.7a3.634,3.634,0,0,1,2.834-1.485c1.348,0,2.217.571,2.217,2.285v6.9Zm7.328.274a5.532,5.532,0,0,1-5.668-5.8,5.68,5.68,0,1,1,11.358,0A5.524,5.524,0,0,1,117.146,21.054Zm0-2.125c2.057,0,3.2-1.714,3.2-3.679,0-1.943-1.143-3.657-3.2-3.657-2.034,0-3.177,1.714-3.177,3.657C113.97,17.215,115.112,18.929,117.146,18.929Z"/>
      <path id="Combined-Shape" class="cls-2" d="M126.9,20.78h-2.4V5.537h2.4v5.736a4.365,4.365,0,0,1,3.542-1.805c2.834,0,4.891,2.24,4.891,5.8,0,3.634-2.08,5.782-4.891,5.782a4.437,4.437,0,0,1-3.542-1.783Zm0-3.314a3.562,3.562,0,0,0,2.834,1.463c1.92,0,3.131-1.508,3.131-3.657s-1.211-3.679-3.131-3.679A3.6,3.6,0,0,0,126.9,13.1Z"/>
      <path id="Combined-Shape-2" data-name="Combined-Shape" class="cls-2" d="M146.155,20.78h-2.4V19.592a4.66,4.66,0,0,1-3.565,1.463,3.666,3.666,0,0,1-3.839-3.657,3.554,3.554,0,0,1,3.839-3.588,4.563,4.563,0,0,1,3.565,1.417V13.581c0-1.28-1.051-2.057-2.582-2.057a4.52,4.52,0,0,0-3.268,1.394l-.983-1.668a6.564,6.564,0,0,1,4.639-1.783c2.445,0,4.594,1.028,4.594,4Zm-5.028-1.371a3.231,3.231,0,0,0,2.628-1.143V16.6a3.231,3.231,0,0,0-2.628-1.143,2.1,2.1,0,0,0-2.354,1.988A2.092,2.092,0,0,0,141.128,19.409Z"/>
      <path id="Path" class="cls-2" d="M158.352,20.78V13.01c0-2.263-1.188-3.542-3.565-3.542A5.223,5.223,0,0,0,150.9,11.25V9.742h-2.4V20.78h2.4v-7.7a3.634,3.634,0,0,1,2.834-1.485c1.348,0,2.217.571,2.217,2.285v6.9Z"/>
      <polygon id="Path-2" data-name="Path" class="cls-2" points="171.028 20.78 166.343 14.747 170.937 9.742 167.966 9.742 163.098 15.067 163.098 5.537 160.698 5.537 160.698 20.78 163.098 20.78 163.098 17.809 164.629 16.232 168.011 20.78 171.028 20.78"/>
      <path id="Path-3" data-name="Path" class="cls-2" d="M173.192,21.032a1.6,1.6,0,1,0-1.6-1.6A1.619,1.619,0,0,0,173.192,21.032Z"/>
      <path id="Path-4" data-name="Path" class="cls-2" d="M177.983,8.393A1.485,1.485,0,1,0,176.5,6.908,1.483,1.483,0,0,0,177.983,8.393Z"/>
      <polygon id="Path-5" data-name="Path" class="cls-2" points="179.194 20.78 179.194 9.742 176.795 9.742 176.795 20.78 179.194 20.78"/>
      <path id="Combined-Shape-3" data-name="Combined-Shape" class="cls-2" d="M186.523,21.054a5.532,5.532,0,0,1-5.668-5.8,5.68,5.68,0,1,1,11.358,0A5.524,5.524,0,0,1,186.523,21.054Zm0-2.125c2.057,0,3.2-1.714,3.2-3.679,0-1.943-1.143-3.657-3.2-3.657-2.034,0-3.177,1.714-3.177,3.657C183.346,17.215,184.489,18.929,186.523,18.929Z"/>
    </g>
    <g id="logo-chronobank">
      <g id="Group-Copy">
        <path id="Fill-49" class="cls-2" d="M36.251,5.022A4.3,4.3,0,0,1,32.886,1.7h2.5a.858.858,0,0,1,.863.851Zm0,13.778a6.005,6.005,0,0,0-5.11,5.041H6.836A6.005,6.005,0,0,0,1.726,18.8V6.743A6.005,6.005,0,0,0,6.836,1.7H31.141a6.005,6.005,0,0,0,5.11,5.04Zm0,4.189a.858.858,0,0,1-.863.852h-2.5a4.3,4.3,0,0,1,3.365-3.32Zm-33.662.852a.858.858,0,0,1-.863-.852V20.521a4.3,4.3,0,0,1,3.365,3.32ZM1.726,2.554A.858.858,0,0,1,2.589,1.7h2.5A4.3,4.3,0,0,1,1.726,5.022ZM35.388,0H2.589A2.575,2.575,0,0,0,0,2.554V22.989a2.575,2.575,0,0,0,2.589,2.555h32.8a2.575,2.575,0,0,0,2.589-2.555V2.554A2.574,2.574,0,0,0,35.388,0Z"/>
        <path id="Fill-50" class="cls-1" d="M19.09,4.384a8.457,8.457,0,1,0,8.572,8.456A8.5,8.5,0,0,0,19.09,4.384Zm0,1.5a6.953,6.953,0,1,1-7.048,6.952A7.009,7.009,0,0,1,19.09,5.888Z"/>
        <path id="Fill-51" class="cls-1" d="M22.386,12.652H19.452V9.383a.762.762,0,0,0-1.524,0v3.645c0,.075.019.131.019.188a.632.632,0,0,0-.019.188.759.759,0,0,0,.762.752h3.7a.752.752,0,1,0,0-1.5"/>
      </g>
    </g>
  </g>
</svg>
