<?xml version="1.0" encoding="iso-8859-1"?>
<!-- Generator: Adobe Illustrator 22.1.0, SVG Export Plug-In . SVG Version: 6.00 Build 0)  -->
<svg version="1.1" id="Layer_1" xmlns="http://www.w3.org/2000/svg" xmlns:xlink="http://www.w3.org/1999/xlink" x="0px" y="0px"
	 width="145.742px" height="43.414px" viewBox="0 0 145.742 43.414" enable-background="new 0 0 145.742 43.414"
	 xml:space="preserve">
<g id="ChronoWalletLogoText_1_">
	<g id="ChronoWalletLogo_1_">
		<path d="M21.357,20.014c4.211,0,7.637,3.426,7.637,7.637s-3.426,7.637-7.637,7.637s-7.637-3.426-7.637-7.637
			S17.146,20.014,21.357,20.014 M21.357,18.005c-5.327,0-9.646,4.319-9.646,9.646c0,5.327,4.319,9.646,9.646,9.646
			c5.327,0,9.646-4.319,9.646-9.646C31.003,22.324,26.685,18.005,21.357,18.005L21.357,18.005z"/>
		<path d="M24.764,30.441h-4.779c-0.663,0-1.2-0.537-1.2-1.2v-5.259c0-0.663,0.537-1.2,1.2-1.2c0.663,0,1.2,0.537,1.2,1.2v4.059
			h3.579c0.663,0,1.2,0.537,1.2,1.2C25.964,29.903,25.427,30.441,24.764,30.441z"/>
		<path d="M39.443,12.414h-8.439V1.889C31.003,0.734,30.291,0,29.31,0c-0.246,0-0.509,0.046-0.781,0.143L2.479,9.415
			C1.755,9.673,0,10.249,0,12.145c0,2.124,0,5.263,0,5.263s0.003-0.005,0.004-0.005v23.383c0,1.445,1.182,2.627,2.627,2.627h36.812
			c1.445,0,2.627-1.182,2.627-2.627V15.041C42.07,13.596,40.887,12.414,39.443,12.414z M39.558,15.041v3.578
			c-1.677-0.68-3.016-2.017-3.697-3.693h3.581C39.501,14.925,39.558,14.983,39.558,15.041z M33.743,14.925
			c0.84,2.783,3.033,4.974,5.815,5.814v14.349c-2.783,0.84-4.975,3.031-5.815,5.814H8.33c-0.84-2.783-3.033-4.974-5.815-5.814
			V20.739c2.78-0.84,4.971-3.028,5.813-5.807L33.743,14.925z M2.619,14.931c0.007,0,0.013,0.001,0.019,0.001h3.571
			c-0.682,1.673-2.019,3.007-3.694,3.687v-3.577C2.515,14.987,2.565,14.938,2.619,14.931z M28.865,1.089
			c0.158-0.056,0.308-0.085,0.445-0.085c0.599,0,0.93,0.625,0.93,0.956l0.502,10.454H4.657c-3.204,0-3.186-1.499-1.734-2.09
			c0.001,0,0.001-0.001,0.001-0.001L28.865,1.089z M2.515,40.786v-3.577c1.677,0.68,3.016,2.017,3.697,3.693H2.631
			C2.572,40.902,2.515,40.845,2.515,40.786z M39.443,40.902h-3.581c0.681-1.677,2.02-3.013,3.697-3.693v3.577
			C39.558,40.845,39.501,40.902,39.443,40.902z"/>
	</g>
	<path d="M65.98,25.423c0.535,0.561,0.803,1.311,0.803,2.252v5.074h-2.312V28.35c0-0.51-0.143-0.913-0.428-1.208
		c-0.285-0.295-0.673-0.443-1.163-0.443c-0.57,0.01-1.023,0.208-1.358,0.593c-0.335,0.385-0.503,0.878-0.503,1.478v3.978h-2.312
		V21.61h2.312v4.489c0.561-0.991,1.491-1.496,2.792-1.516C64.722,24.582,65.445,24.862,65.98,25.423z"/>
	<path d="M71.48,24.987c0.45-0.26,0.976-0.395,1.577-0.405c0,0,0.75,0,1.048,0c-0.823,0.922-1.048,2.177-1.048,2.177
		c-0.08-0.01-0.201-0.015-0.361-0.015c-0.711,0-1.273,0.193-1.689,0.578c-0.415,0.385-0.623,0.899-0.623,1.539v3.888h-2.312v-8.077
		h2.312v1.456C70.664,25.628,71.03,25.248,71.48,24.987z"/>
	<path d="M79.936,25.107c0.655,0.34,1.163,0.821,1.524,1.441C81.82,27.169,82,27.89,82,28.71c0,0.811-0.18,1.529-0.541,2.154
		c-0.36,0.626-0.868,1.111-1.524,1.456c-0.656,0.345-1.409,0.518-2.259,0.518c-0.861,0-1.619-0.173-2.274-0.518
		s-1.163-0.831-1.524-1.456c-0.36-0.625-0.541-1.343-0.541-2.154c0-0.821,0.18-1.541,0.541-2.162c0.36-0.62,0.868-1.101,1.524-1.441
		c0.655-0.34,1.414-0.51,2.274-0.51C78.527,24.597,79.28,24.767,79.936,25.107z M76.213,27.134c-0.375,0.41-0.563,0.946-0.563,1.606
		s0.188,1.196,0.563,1.606c0.375,0.411,0.863,0.616,1.464,0.616c0.59,0,1.073-0.205,1.449-0.616c0.375-0.41,0.563-0.946,0.563-1.606
		s-0.188-1.196-0.563-1.606c-0.375-0.41-0.858-0.615-1.449-0.615C77.076,26.518,76.588,26.723,76.213,27.134z"/>
	<path d="M90.154,25.423c0.535,0.561,0.803,1.311,0.803,2.252v5.074h-2.312V28.35c0-0.51-0.143-0.913-0.428-1.208
		c-0.285-0.295-0.673-0.443-1.163-0.443c-0.571,0.01-1.021,0.208-1.351,0.593c-0.33,0.385-0.495,0.878-0.495,1.478v3.978h-2.312
		v-8.077h2.312v1.411c0.561-0.981,1.491-1.481,2.792-1.501C88.901,24.582,89.618,24.862,90.154,25.423z"/>
	<path d="M98.536,25.107c0.655,0.34,1.164,0.821,1.524,1.441c0.36,0.621,0.54,1.341,0.54,2.162c0,0.811-0.18,1.529-0.54,2.154
		c-0.36,0.626-0.868,1.111-1.524,1.456s-1.409,0.518-2.259,0.518c-0.861,0-1.619-0.173-2.274-0.518
		c-0.656-0.345-1.164-0.831-1.524-1.456c-0.36-0.625-0.54-1.343-0.54-2.154c0-0.821,0.18-1.541,0.54-2.162
		c0.36-0.62,0.868-1.101,1.524-1.441c0.655-0.34,1.413-0.51,2.274-0.51C97.128,24.597,97.881,24.767,98.536,25.107z M94.814,27.134
		c-0.375,0.41-0.563,0.946-0.563,1.606s0.188,1.196,0.563,1.606c0.375,0.411,0.863,0.616,1.464,0.616
		c0.59,0,1.073-0.205,1.449-0.616c0.375-0.41,0.563-0.946,0.563-1.606s-0.188-1.196-0.563-1.606
		c-0.375-0.41-0.858-0.615-1.449-0.615C95.677,26.518,95.189,26.723,94.814,27.134z"/>
	<path d="M114.125,22.24h2.447l-3.558,10.508h-2.447l-2.207-7.581l-2.237,7.581h-2.432l-3.543-10.508h2.552l2.282,7.631l2.267-7.631
		h2.327l2.297,7.709L114.125,22.24z"/>
	<path d="M121.165,32.748v-0.946c-0.27,0.34-0.621,0.601-1.051,0.781c-0.43,0.18-0.926,0.27-1.486,0.27
		c-0.851,0-1.526-0.233-2.027-0.698c-0.501-0.465-0.751-1.073-0.751-1.824c0-0.76,0.268-1.354,0.803-1.779
		c0.535-0.425,1.293-0.643,2.274-0.653h2.222v-0.15c0-0.43-0.143-0.763-0.428-0.998c-0.285-0.235-0.703-0.353-1.253-0.353
		c-0.751,0-1.551,0.235-2.402,0.705l-0.72-1.591c0.64-0.32,1.241-0.555,1.801-0.706c0.561-0.15,1.176-0.225,1.847-0.225
		c1.081,0,1.919,0.255,2.514,0.766c0.595,0.51,0.898,1.221,0.908,2.132l0.015,5.269H121.165z M120.52,30.857
		c0.35-0.23,0.56-0.52,0.63-0.87v-0.72h-1.816c-0.45,0-0.783,0.072-0.998,0.217c-0.215,0.145-0.323,0.378-0.323,0.698
		c0,0.31,0.113,0.558,0.338,0.743c0.225,0.185,0.533,0.277,0.923,0.277C119.754,31.202,120.169,31.087,120.52,30.857z"/>
	<path d="M124.672,21.61h2.312v11.139h-2.312V21.61z"/>
	<path d="M128.425,21.61h2.312v11.139h-2.312V21.61z"/>
	<path d="M139.073,25.723c0.675,0.75,1.013,1.796,1.013,3.137c0,0.24-0.005,0.426-0.015,0.555h-5.794
		c0.13,0.51,0.38,0.908,0.751,1.193c0.37,0.285,0.815,0.428,1.336,0.428c0.38,0,0.746-0.072,1.096-0.218
		c0.35-0.145,0.665-0.357,0.946-0.638l1.216,1.231c-0.41,0.461-0.908,0.813-1.494,1.059c-0.585,0.245-1.238,0.368-1.959,0.368
		c-0.851,0-1.594-0.17-2.229-0.51c-0.636-0.34-1.126-0.821-1.471-1.441c-0.345-0.621-0.518-1.336-0.518-2.147
		c0-0.82,0.175-1.544,0.525-2.169s0.841-1.111,1.471-1.456c0.631-0.345,1.351-0.518,2.162-0.518
		C137.409,24.597,138.397,24.972,139.073,25.723z M137.909,28.05c-0.02-0.53-0.19-0.955-0.51-1.276
		c-0.321-0.32-0.746-0.481-1.276-0.481c-0.501,0-0.918,0.158-1.253,0.473c-0.335,0.315-0.548,0.743-0.638,1.284H137.909z"/>
	<path d="M145.742,32.298c-0.3,0.18-0.634,0.318-0.999,0.413c-0.366,0.095-0.733,0.143-1.103,0.143
		c-0.751,0-1.361-0.215-1.831-0.645c-0.47-0.43-0.706-1.046-0.706-1.847c0,0,0-1.47,0-2.392c0-1.602-1.125-2.937-1.125-2.937h1.125
		v-2.222h2.297v2.222h2.192v1.606h-2.192v3.333c0,0.621,0.246,0.931,0.736,0.931c0.34,0,0.715-0.1,1.126-0.3L145.742,32.298z"/>
	<path d="M55.132,30.473h-1.577c-1.434,0-2.6-1.166-2.6-2.6v-1.388c0-1.434,1.166-2.6,2.6-2.6h1.577l2.275,0V21.61l0,0h-3.852
		c-2.693,0-4.875,2.183-4.875,4.875v1.388c0,2.693,2.183,4.875,4.875,4.875h3.852v-2.275H55.132z"/>
	<g>
		<path d="M49.09,39.267c0-1.648,1.214-2.774,2.757-2.774c0.949,0,1.608,0.45,2.034,1.061l-0.555,0.314
			c-0.306-0.458-0.868-0.78-1.479-0.78c-1.174,0-2.066,0.892-2.066,2.179c0,1.27,0.892,2.179,2.066,2.179
			c0.611,0,1.174-0.33,1.479-0.78l0.563,0.305c-0.45,0.619-1.093,1.069-2.042,1.069C50.304,42.04,49.09,40.915,49.09,39.267z"/>
		<path d="M57.345,41.944v-2.556c0-0.692-0.346-0.884-0.876-0.884c-0.466,0-0.916,0.289-1.141,0.603v2.838h-0.603v-5.362h0.603
			v2.042c0.265-0.33,0.796-0.659,1.383-0.659c0.812,0,1.238,0.394,1.238,1.238v2.741H57.345z"/>
		<path d="M59.151,41.944v-3.883h0.603v0.619c0.313-0.402,0.764-0.708,1.294-0.708v0.619c-0.072-0.008-0.145-0.016-0.233-0.016
			c-0.378,0-0.884,0.305-1.061,0.619v2.749H59.151z"/>
		<path d="M61.578,39.998c0-1.125,0.74-2.034,1.922-2.034c1.182,0,1.921,0.909,1.921,2.034s-0.74,2.042-1.921,2.042
			C62.317,42.04,61.578,41.124,61.578,39.998z M64.785,39.998c0-0.788-0.458-1.495-1.286-1.495c-0.828,0-1.286,0.707-1.286,1.495
			c0,0.796,0.458,1.503,1.286,1.503C64.327,41.502,64.785,40.794,64.785,39.998z"/>
		<path d="M69.028,41.944v-2.54c0-0.691-0.354-0.9-0.876-0.9c-0.474,0-0.916,0.289-1.149,0.603v2.838h-0.603v-3.883h0.603v0.563
			c0.273-0.33,0.804-0.659,1.39-0.659c0.804,0,1.23,0.41,1.23,1.254v2.725H69.028z"/>
		<path d="M70.61,39.998c0-1.125,0.74-2.034,1.922-2.034c1.182,0,1.921,0.909,1.921,2.034s-0.74,2.042-1.921,2.042
			C71.349,42.04,70.61,41.124,70.61,39.998z M73.817,39.998c0-0.788-0.458-1.495-1.286-1.495c-0.828,0-1.287,0.707-1.287,1.495
			c0,0.796,0.458,1.503,1.287,1.503C73.359,41.502,73.817,40.794,73.817,39.998z"/>
		<path d="M75.431,41.944v-5.362h0.603v2.066c0.313-0.426,0.788-0.683,1.31-0.683c1.021,0,1.728,0.796,1.728,2.042
			c0,1.262-0.716,2.034-1.728,2.034c-0.546,0-1.021-0.281-1.31-0.675v0.579H75.431z M77.2,41.502c0.78,0,1.246-0.635,1.246-1.495
			c0-0.86-0.466-1.503-1.246-1.503c-0.482,0-0.956,0.289-1.165,0.627v1.761C76.243,41.228,76.718,41.502,77.2,41.502z"/>
		<path d="M82.48,41.944v-0.442c-0.313,0.354-0.764,0.539-1.286,0.539c-0.651,0-1.351-0.442-1.351-1.286
			c0-0.876,0.692-1.278,1.351-1.278c0.531,0,0.973,0.169,1.286,0.523v-0.699c0-0.514-0.418-0.812-0.98-0.812
			c-0.466,0-0.844,0.161-1.19,0.539l-0.282-0.418c0.418-0.434,0.917-0.643,1.552-0.643c0.828,0,1.503,0.37,1.503,1.311v2.669H82.48z
			 M82.48,41.124v-0.74c-0.233-0.313-0.643-0.474-1.061-0.474c-0.571,0-0.965,0.354-0.965,0.844c0,0.499,0.394,0.852,0.965,0.852
			C81.837,41.606,82.247,41.445,82.48,41.124z"/>
		<path d="M86.924,41.944v-2.54c0-0.691-0.354-0.9-0.876-0.9c-0.474,0-0.916,0.289-1.149,0.603v2.838h-0.603v-3.883h0.603v0.563
			c0.273-0.33,0.804-0.659,1.39-0.659c0.804,0,1.23,0.41,1.23,1.254v2.725H86.924z"/>
		<path d="M91.376,41.944l-1.391-1.745l-0.651,0.635v1.109h-0.603v-5.362h0.603v3.545l2.042-2.066h0.764l-1.721,1.761l1.728,2.122
			H91.376z"/>
		<path d="M92.74,41.582c0-0.241,0.201-0.442,0.442-0.442s0.442,0.201,0.442,0.442c0,0.241-0.201,0.442-0.442,0.442
			S92.74,41.823,92.74,41.582z"/>
		<path d="M94.613,37.104c0-0.225,0.185-0.41,0.41-0.41c0.225,0,0.402,0.185,0.402,0.41s-0.177,0.402-0.402,0.402
			C94.798,37.506,94.613,37.329,94.613,37.104z M94.717,41.944v-3.883h0.603v3.883H94.717z"/>
		<path d="M96.3,39.998c0-1.125,0.74-2.034,1.922-2.034c1.182,0,1.921,0.909,1.921,2.034s-0.74,2.042-1.921,2.042
			C97.04,42.04,96.3,41.124,96.3,39.998z M99.508,39.998c0-0.788-0.458-1.495-1.286-1.495c-0.828,0-1.286,0.707-1.286,1.495
			c0,0.796,0.458,1.503,1.286,1.503C99.05,41.502,99.508,40.794,99.508,39.998z"/>
	</g>
</g>
<g>
</g>
<g>
</g>
<g>
</g>
<g>
</g>
<g>
</g>
<g>
</g>
</svg>
