<?xml version="1.0" encoding="UTF-8"?>
<svg width="16px" height="16px" viewBox="0 0 16 16" version="1.1" xmlns="http://www.w3.org/2000/svg" xmlns:xlink="http://www.w3.org/1999/xlink">
    <!-- Generator: Sketch 44.1 (41455) - http://www.bohemiancoding.com/sketch -->
    <title>mnemonic-key</title>
    <desc>Created with Sketch.</desc>
    <defs></defs>
    <g id="Working-version" stroke="none" stroke-width="1" fill="none" fill-rule="evenodd">
        <g id="Desktop-signin-infura-input-mnemonic-key" transform="translate(-644.000000, -571.000000)">
            <g id="Login-form" transform="translate(436.000000, 154.000000)">
                <g id="fields-form">
                    <g id="btns" transform="translate(0.000000, 347.000000)">
                        <g id="button-login-copy" transform="translate(198.000000, 60.000000)">
                            <g id="wallet" transform="translate(10.000000, 10.000000)">
                                <rect id="Rectangle-6" x="0" y="0" width="16" height="16"></rect>
                                <path d="M11.3333333,4.66666667 L14.6666667,4.66666667 L14.6666667,11.3333333 L11.3333333,11.3333333 L11.3333333,12.6666667 C11.3333333,13.0348565 11.6318102,13.3333333 12,13.3333333 L13.3333333,13.3333333 L13.3333333,14.6666667 L11.6666667,14.6666667 C11.3,14.6666667 10.6666667,14.3666667 10.6666667,14 C10.6666667,14.3666667 10.0333333,14.6666667 9.66666667,14.6666667 L8,14.6666667 L8,13.3333333 L9.33333333,13.3333333 C9.70152317,13.3333333 10,13.0348565 10,12.6666667 L10,3.33333333 C10,2.9651435 9.70152317,2.66666667 9.33333333,2.66666667 L8,2.66666667 L8,1.33333333 L9.66666667,1.33333333 C10.0333333,1.33333333 10.6666667,1.63333333 10.6666667,2 C10.6666667,1.63333333 11.3,1.33333333 11.6666667,1.33333333 L13.3333333,1.33333333 L13.3333333,2.66666667 L12,2.66666667 C11.6318102,2.66666667 11.3333333,2.9651435 11.3333333,3.33333333 L11.3333333,4.66666667 L11.3333333,4.66666667 Z M1.33333333,4.66666667 L8.66666667,4.66666667 L8.66666667,6 L2.66666667,6 L2.66666667,10 L8.66666667,10 L8.66666667,11.3333333 L1.33333333,11.3333333 L1.33333333,4.66666667 L1.33333333,4.66666667 Z M13.3333333,10 L13.3333333,6 L11.3333333,6 L11.3333333,10 L13.3333333,10 L13.3333333,10 Z M5.66666667,8 C5.66666667,7.44771525 5.21895142,7 4.66666667,7 C4.11438192,7 3.66666667,7.44771525 3.66666667,8 C3.66666667,8.55228475 4.11438192,9 4.66666667,9 C5.21895142,9 5.66666667,8.55228475 5.66666667,8 L5.66666667,8 Z M8.66666667,7.26 C8.26,6.88666667 7.62666667,6.92 7.25333333,7.33333333 C6.88,7.73333333 6.91333333,8.36666667 7.33333333,8.74 C7.7,9.08666667 8.28666667,9.08666667 8.66666667,8.74 L8.66666667,7.26 Z" id="Shape" fill="#768FFF" fill-rule="nonzero"></path>
                            </g>
                        </g>
                    </g>
                </g>
            </g>
        </g>
    </g>
</svg>