<svg id="Layer_1" data-name="Layer 1" xmlns="http://www.w3.org/2000/svg" xmlns:xlink="http://www.w3.org/1999/xlink" viewBox="0 0 124.896 32">
  <defs>
    <style>
      .cls-1 {
        fill: #333;
      }

      .cls-2 {
        fill: url(#linear-gradient);
      }

      .cls-3 {
        fill: url(#linear-gradient-2);
      }

      .cls-4 {
        fill: url(#linear-gradient-3);
      }

      .cls-5 {
        fill: url(#linear-gradient-4);
      }
    </style>
    <linearGradient id="linear-gradient" x1="2.629" y1="16" x2="16.833" y2="16" gradientUnits="userSpaceOnUse">
      <stop offset="0" stop-color="#00a0ff"/>
      <stop offset="0.007" stop-color="#00a1ff"/>
      <stop offset="0.26" stop-color="#00beff"/>
      <stop offset="0.512" stop-color="#00d2ff"/>
      <stop offset="0.76" stop-color="#00dfff"/>
      <stop offset="1" stop-color="#00e3ff"/>
    </linearGradient>
    <linearGradient id="linear-gradient-2" x1="17.209" y1="16.001" x2="46.312" y2="16.001" gradientUnits="userSpaceOnUse">
      <stop offset="0" stop-color="#ffe000"/>
      <stop offset="0.409" stop-color="#ffbd00"/>
      <stop offset="0.775" stop-color="orange"/>
      <stop offset="1" stop-color="#ff9c00"/>
    </linearGradient>
    <linearGradient id="linear-gradient-3" x1="5.438" y1="24" x2="37.419" y2="24" gradientUnits="userSpaceOnUse">
      <stop offset="0" stop-color="#ff3a44"/>
      <stop offset="1" stop-color="#c31162"/>
    </linearGradient>
    <linearGradient id="linear-gradient-4" x1="-4.886" y1="8" x2="9.395" y2="8" gradientUnits="userSpaceOnUse">
      <stop offset="0" stop-color="#32a071"/>
      <stop offset="0.068" stop-color="#2da771"/>
      <stop offset="0.476" stop-color="#15cf74"/>
      <stop offset="0.801" stop-color="#06e775"/>
      <stop offset="1" stop-color="#00f076"/>
    </linearGradient>
  </defs>
  <title>688bc4f5-7f3e-4872-85e4-82e2cf854828</title>
  <path class="cls-1" d="M46.858,11.193a2.236,2.236,0,0,1-1.831.848,2.736,2.736,0,0,1-2.719-2.879c0-1.663.912-3.1,2.719-3.1a2.216,2.216,0,0,1,2.455,1.895h-.76a1.547,1.547,0,0,0-1.7-1.256c-1.383,0-1.959,1.2-1.959,2.423A2.055,2.055,0,0,0,45.027,11.4a1.719,1.719,0,0,0,1.831-1.862H45.035V8.9h2.5V11.9h-.479Z" transform="translate(-1.637 0)"/>
  <path class="cls-1" d="M52.234,10.594A1.667,1.667,0,0,1,50.468,12c-1.319,0-1.943-.911-1.983-2.175a1.99,1.99,0,0,1,1.943-2.15c1.463,0,1.91,1.367,1.871,2.366H49.2A1.217,1.217,0,0,0,50.492,11.4a1,1,0,0,0,1.07-.807Zm-.655-1.151a1.19,1.19,0,0,0-1.191-1.167A1.177,1.177,0,0,0,49.2,9.442Z" transform="translate(-1.637 0)"/>
  <path class="cls-1" d="M54.107,7.771h.824v.6h-.824v2.566c0,.312.088.367.512.367h.313v.6h-.521c-.7,0-.983-.144-.983-.9V8.371h-.7v-.6h.7V6.531h.68Z" transform="translate(-1.637 0)"/>
  <path class="cls-1" d="M60.755,6.061a2.741,2.741,0,0,1,2.735,2.99,2.746,2.746,0,1,1-5.47,0A2.74,2.74,0,0,1,60.755,6.061Zm0,5.34c1.392,0,1.976-1.2,1.976-2.35S62.146,6.7,60.755,6.7,58.78,7.9,58.78,9.051,59.363,11.4,60.755,11.4Z" transform="translate(-1.637 0)"/>
  <path class="cls-1" d="M64.469,7.771h.639v.655h.017a1.438,1.438,0,0,1,1.343-.751c1.088,0,1.424.623,1.424,1.511V11.9h-.68v-2.8a.779.779,0,0,0-.84-.831A1.161,1.161,0,0,0,65.148,9.57V11.9h-.68Z" transform="translate(-1.637 0)"/>
  <path class="cls-1" d="M50.613,26.164a3.568,3.568,0,0,1-2.895,1.447c-3.265,0-5.185-2.437-5.185-5.479,0-3.132,1.92-5.569,5.185-5.569a4.238,4.238,0,0,1,4.445,3.723H49.949a2.162,2.162,0,0,0-2.23-1.772c-2.083,0-2.865,1.772-2.865,3.619,0,1.757.782,3.53,2.865,3.53a2.284,2.284,0,0,0,2.511-2.275H47.9V21.659h4.431v5.7H50.85Z" transform="translate(-1.637 0)"/>
  <path class="cls-1" d="M57.686,19.518a3.749,3.749,0,0,1,3.959,4.032,3.952,3.952,0,1,1-7.9,0A3.745,3.745,0,0,1,57.686,19.518Zm0,6.469c1.434,0,1.861-1.226,1.861-2.437S59.119,21.1,57.686,21.1c-1.418,0-1.846,1.227-1.846,2.452S56.268,25.986,57.686,25.986Z" transform="translate(-1.637 0)"/>
  <path class="cls-1" d="M66.709,19.518a3.749,3.749,0,0,1,3.959,4.032,3.952,3.952,0,1,1-7.9,0A3.745,3.745,0,0,1,66.709,19.518Zm0,6.469c1.433,0,1.861-1.226,1.861-2.437S68.142,21.1,66.709,21.1s-1.846,1.227-1.846,2.452S65.291,25.986,66.709,25.986Z" transform="translate(-1.637 0)"/>
  <path class="cls-1" d="M79.365,26.873c0,1.256-.443,3.383-3.958,3.383-1.507,0-3.265-.709-3.368-2.452h2.083a1.419,1.419,0,0,0,1.565,1.048c1.167,0,1.7-.8,1.684-1.891v-1h-.029a2.578,2.578,0,0,1-2.289,1.182c-2.289,0-3.265-1.742-3.265-3.84,0-1.979,1.138-3.781,3.279-3.781a2.376,2.376,0,0,1,2.274,1.226h.029V19.725h1.994Zm-1.994-3.427c0-1.241-.428-2.349-1.787-2.349-1.182,0-1.7,1.034-1.7,2.172,0,1.092.413,2.289,1.7,2.289A1.879,1.879,0,0,0,77.371,23.446Z" transform="translate(-1.637 0)"/>
  <path class="cls-1" d="M81.106,16.814h2.1V27.36h-2.1Z" transform="translate(-1.637 0)"/>
  <path class="cls-1" d="M86.586,24.052c.059,1.329.709,1.935,1.876,1.935A1.728,1.728,0,0,0,90.116,25h1.847a3.437,3.437,0,0,1-3.575,2.57,3.73,3.73,0,0,1-3.9-4.018,3.829,3.829,0,0,1,3.9-4.032c2.6,0,3.855,2.186,3.708,4.534ZM90,22.723c-.192-1.063-.65-1.625-1.67-1.625a1.653,1.653,0,0,0-1.742,1.625Z" transform="translate(-1.637 0)"/>
  <path class="cls-1" d="M97.661,16.814h4.757c2.629,0,3.647,1.669,3.647,3.383s-1.019,3.382-3.647,3.382H99.98V27.36H97.661Zm2.319,4.963h1.8c1.078,0,2.038-.236,2.038-1.58s-.96-1.581-2.038-1.581h-1.8Z" transform="translate(-1.637 0)"/>
  <path class="cls-1" d="M107.349,16.814h2.1V27.36h-2.1Z" transform="translate(-1.637 0)"/>
  <path class="cls-1" d="M111.012,22.072c.117-1.965,1.875-2.555,3.589-2.555,1.521,0,3.353.34,3.353,2.171v3.974a3.921,3.921,0,0,0,.266,1.7h-2.127a3.143,3.143,0,0,1-.147-.738,3.5,3.5,0,0,1-2.569.945c-1.448,0-2.6-.724-2.6-2.29,0-1.728,1.3-2.142,2.6-2.318,1.285-.192,2.48-.148,2.48-1,0-.9-.62-1.034-1.358-1.034-.8,0-1.314.325-1.389,1.152Zm4.844,1.551a4.161,4.161,0,0,1-1.742.443c-.65.133-1.241.354-1.241,1.123s.606.975,1.285.975a1.558,1.558,0,0,0,1.7-1.758Z" transform="translate(-1.637 0)"/>
  <path class="cls-1" d="M123.343,28.32a2.4,2.4,0,0,1-2.629,1.729,12.325,12.325,0,0,1-1.285-.074V28.246a11.012,11.012,0,0,0,1.226.074.989.989,0,0,0,.725-1.433l-2.688-7.163h2.245l1.729,5.229h.029l1.669-5.229h2.171Z" transform="translate(-1.637 0)"/>
  <path class="cls-2" d="M17.717,16v-.183L2.3.4,2.212.495a2.493,2.493,0,0,0-.575,1.748V29.757a2.492,2.492,0,0,0,.575,1.748L2.3,31.6,17.717,16.181Z" transform="translate(-1.637 0)"/>
  <path class="cls-3" d="M29.059,17.8c1.739-.989,1.739-2.605,0-3.593l-6.085-3.459-.117-.065-5.139,5.137v.364l5.137,5.141.119-.067Z" transform="translate(-1.637 0)"/>
  <path class="cls-4" d="M17.717,16,2.212,31.505A1.584,1.584,0,0,0,3.395,32h.016A2.86,2.86,0,0,0,4.8,31.581L22.973,21.255Z" transform="translate(-1.637 0)"/>
  <path class="cls-5" d="M22.973,10.744,4.8.419A2.855,2.855,0,0,0,3.4,0,1.591,1.591,0,0,0,2.212.495L17.717,16Z" transform="translate(-1.637 0)"/>
</svg>
