<svg xmlns="http://www.w3.org/2000/svg" width="32" height="32" viewBox="0 0 32 32">
  <title>r-100</title>
  <g>
    <circle cx="16" cy="16" r="16" fill="#ffb54e"/>
    <path d="M17,21h1a1,1,0,0,1-1,1H11a1,1,0,0,1-1-1V14a1,1,0,0,1,1-1h6a1,1,0,0,1,1,1v.01c-.034,0-.066-.01-.1-.01h-.857a1.1,1.1,0,0,0-.779.323l-2.4,2.4a1.1,1.1,0,0,0,0,1.556l2.4,2.4a1.09,1.09,0,0,0,.777.322M22,16H18.1a.1.1,0,0,1-.1-.1v-.8a.1.1,0,0,0-.1-.1h-.859a.094.094,0,0,0-.07.03l-2.436,2.434a.053.053,0,0,0,0,.072l2.436,2.434a.094.094,0,0,0,.07.03H17.9a.1.1,0,0,0,.1-.1v-.8a.1.1,0,0,1,.1-.1h3.7a.2.2,0,0,0,.2-.2V16.086a.2.2,0,0,0-.2-.2M12,12h4V10.741a.5.5,0,0,0-.687-.464l-3.794,1.53a.1.1,0,0,0,.037.193" fill="#fff"/>
  </g>
</svg>
