<svg xmlns="http://www.w3.org/2000/svg" xmlns:xlink="http://www.w3.org/1999/xlink" width="32" height="32" viewBox="0 0 32 32">
  <defs>
    <clipPath id="a">
      <rect x="16" width="16" height="32" fill="none"/>
    </clipPath>
  </defs>
  <title>r-50</title>
  <g>
    <circle cx="16" cy="16" r="16" fill="#ffedd4"/>
    <g clip-path="url(#a)">
      <path d="M16,4A12,12,0,1,1,4,16,12.013,12.013,0,0,1,16,4m0-4A16,16,0,1,0,32,16,16,16,0,0,0,16,0Z" fill="#ffb54e"/>
    </g>
    <path d="M17,20.88h1a1,1,0,0,1-1,1H11a1,1,0,0,1-1-1v-7a1,1,0,0,1,1-1h6a1,1,0,0,1,1,1v.009c-.034,0-.066-.009-.1-.009h-.857a1.1,1.1,0,0,0-.779.322l-2.4,2.4a1.1,1.1,0,0,0,0,1.556l2.4,2.4a1.094,1.094,0,0,0,.777.322m4.959-5H18.1a.1.1,0,0,1-.1-.1v-.8a.1.1,0,0,0-.1-.1h-.859a.1.1,0,0,0-.07.029l-2.436,2.435a.051.051,0,0,0,0,.071l2.436,2.435a.1.1,0,0,0,.07.03H17.9a.1.1,0,0,0,.1-.1v-.8a.1.1,0,0,1,.1-.1h3.7a.2.2,0,0,0,.2-.2V15.966a.2.2,0,0,0-.2-.2M12,11.88h4V10.62a.5.5,0,0,0-.687-.463l-3.794,1.53a.1.1,0,0,0,.038.193" fill="#ffb54e"/>
  </g>
</svg>
