<svg viewBox="0 0 32 32" xmlns="http://www.w3.org/2000/svg">
  <g fill="#FFFFFF">
    <path d="M16,32 C7.163444,32 0,24.836556 0,16 C0,7.163444 7.163444,0 16,0 C24.836556,0 32,7.163444 32,16 C32,24.836556 24.836556,32 16,32 Z M26,15.5 C26,14.1 24.9,13 23.5,13 C22.9,13 22.3,13.2 21.9,13.6 C20.4,12.7 18.6,12.1 16.5,12 L17.6,8 L21,9 C21,10.1045695 21.8954305,11 23,11 C24.1045695,11 25,10.1045695 25,9 C25,7.8954305 24.1045695,7 23,7 C22.3,7 21.6,7.4 21.3,8 L17.3,7 C17,6.9 16.8,7.1 16.7,7.4 L15.5,12 C13.5,12.1 11.6,12.7 10.1,13.6 C9.7,13.2 9.1,13 8.5,13 C7.1,13 6,14.1 6,15.5 C6,16.4 6.4,17.1 7.1,17.6 L7,18.5 C7,22.1 11,25 16,25 C21,25 25,22.1 25,18.5 L24.9,17.6 C25.6,17.1 26,16.4 26,15.5 Z" id="byCombined-Shape"/>
    <path d="M19.8,21.2 C18,22.3 14,22.3 12.2,21.2 C12,21 11.9,20.7 12.1,20.5 C12.3,20.3 12.6,20.2 12.8,20.4 C14,21.3 18,21.3 19.2,20.4 C19.4,20.2 19.7,20.3 19.9,20.5 C20.1,20.7 20,21 19.8,21.2 L19.8,21.2 Z" id="byShape"/>
    <path d="M13,15.8 C13.7,15.8 14.2,16.4 14.2,17 C14.2,17.6 13.7,18.2 13,18.2 C12.3,18.2 11.8,17.7 11.8,17 C11.8,16.3 12.3,15.8 13,15.8 L13,15.8 Z" id="byShape"/>
    <path d="M19,18.2 C18.3,18.2 17.8,17.6 17.8,17 C17.8,16.3 18.4,15.8 19,15.8 C19.7,15.8 20.2,16.4 20.2,17 C20.2,17.7 19.7,18.2 19,18.2 Z" id="byShape"/>
  </g>
</svg>
