<svg xmlns="http://www.w3.org/2000/svg" xmlns:xlink="http://www.w3.org/1999/xlink" width="32" height="32" viewBox="0 0 32 32">
  <defs>
    <clipPath id="a">
      <rect x="15" width="17" height="17" fill="none"/>
    </clipPath>
  </defs>
  <title>s-25</title>
  <g>
    <circle cx="16" cy="16" r="16" fill="#e6e0ff"/>
    <path d="M15.218,19.88h2.8v1a1,1,0,0,1-1,1h-6a1,1,0,0,1-1-1v-7a1,1,0,0,1,1-1h6a1,1,0,0,1,1,1v1h-2.8a1.2,1.2,0,0,0-1.2,1.2v2.6A1.2,1.2,0,0,0,15.218,19.88Zm6.764-2.536-1.935-2.435a.1.1,0,0,0-.071-.029h-.858a.1.1,0,0,0-.1.1v.8a.1.1,0,0,1-.1.1h-3.7a.2.2,0,0,0-.2.2v2.6a.2.2,0,0,0,.2.2h3.7a.1.1,0,0,1,.1.1v.8a.1.1,0,0,0,.1.1h.858a.1.1,0,0,0,.071-.029l1.935-2.436ZM11.574,11.88h4.444V10.621a.5.5,0,0,0-.687-.464l-3.794,1.53A.1.1,0,0,0,11.574,11.88Z" fill="#614dba"/>
    <g clip-path="url(#a)">
      <path d="M16,4A12,12,0,1,1,4,16,12.013,12.013,0,0,1,16,4m0-4A16,16,0,1,0,32,16,16,16,0,0,0,16,0Z" fill="#614dba"/>
    </g>
  </g>
</svg>
