<svg viewBox="0 0 32 32" xmlns="http://www.w3.org/2000/svg">
  <path fill="#FFFFFF" d="M16,32 C7.163444,32 0,24.836556 0,16 C0,7.163444 7.163444,0 16,0 C24.836556,0 32,7.163444 32,16 C32,24.836556 24.836556,32 16,32 Z M12.0889832,23.2438913 C12.578106,23.2438913 12.8047727,23.0222246 13.0791586,22.7538913 L15.4531937,20.5022246 L20.3921411,24.0722246 C21.2988077,24.5622246 21.9549481,24.305558 22.1816148,23.2438913 L25.426527,8.29889129 C25.7605621,6.99222462 24.9254744,6.39722462 24.0545972,6.78222462 L5.00266739,13.9688913 C3.70231651,14.4822246 3.71424634,15.1938913 4.7640709,15.485558 L9.65529897,17.0022246 L20.9647727,10.0138913 C21.5016148,9.69889129 21.9907376,9.87389129 21.5851235,10.235558 L12.4230183,18.3088913 L12.0889832,23.2438913 Z" id="coCombined-Shape"/>
</svg>
