<svg viewBox="0 0 32 32" xmlns="http://www.w3.org/2000/svg">
  <path fill="#FFFFFF" d="M16,7.10542736e-16 C20.2434638,3.55271368e-16 24.3131264,1.68570945 27.3137085,4.6862915 C30.3142906,7.68687356 32,11.7565362 32,16 C32,24.836556 24.836556,32 16,32 C11.7565362,32 7.68687356,30.3142906 4.6862915,27.3137085 C1.68570945,24.3131264 3.55271368e-16,20.2434638 0,16 C-2.13162821e-15,11.7565362 1.68570945,7.68687356 4.6862915,4.6862915 C7.68687356,1.68570945 11.7565362,7.10542736e-16 16,0 L16,7.10542736e-16 Z M25.136,11.728 C25.904,11.088 26.8,10.32 27.2,9.472 C26.544,9.808 25.76,10.016 24.896,10.128 C25.696,9.552 26.352,8.8 26.688,7.776 C25.856,8.224 25.008,8.608 23.952,8.8 C21.472,5.808 15.536,8.24 16.592,12.72 C12.416,12.464 9.872,10.576 7.76,8.256 C6.56,10.208 7.6,13.168 9.024,13.984 C8.288,13.936 7.728,13.712 7.2,13.456 C7.264,15.92 8.624,17.104 10.528,17.744 C9.952,17.856 9.312,17.888 8.704,17.792 C9.296,19.504 10.528,20.576 12.64,20.8 C11.2,22.016 8.544,22.864 6.4,22.528 C8.24,23.696 10.336,24.624 13.248,24.496 C20.304,24.176 25.024,19.12 25.136,11.728 Z"/>
</svg>
