<svg id="Layer_1" data-name="Layer 1" xmlns="http://www.w3.org/2000/svg" viewBox="0 0 24 23.949">
  <defs>
    <style>
      .cls-1 {
        fill: #614dba;
      }
    </style>
  </defs>
  <title>b37f8f34-7d63-49c4-8ec0-b2dcd9f22b17</title>
  <path class="cls-1" d="M14.5,8.793l-6,6v8.66a12.091,12.091,0,0,1-2-.8V13.207l6-6V.031a11.882,11.882,0,0,1,2,.251ZM11.5.025h0a11.984,11.984,0,0,0-6,22.052V12.793l6-6Zm6,1.317a12.091,12.091,0,0,0-2-.8v8.66l-6,6v8.511a11.876,11.876,0,0,0,2,.251V16.793l6-6Zm1,.58v9.285l-6,6v6.768a11.984,11.984,0,0,0,6-22.053Z" transform="translate(0 -0.025)"/>
</svg>
