<svg viewBox="0 0 32 32" xmlns="http://www.w3.org/2000/svg">
  <path fill="#FFFFFF" d="M16,32 C7.163444,32 0,24.836556 0,16 C0,7.163444 7.163444,0 16,0 C24.836556,0 32,7.163444 32,16 C32,24.836556 24.836556,32 16,32 Z M22.6666667,5.33333333 L19.0666667,5.33333333 C16.4156999,5.33333333 14.2666667,7.3629758 14.2666667,9.86666667 L14.2666667,14.4 L10.6666667,14.4 L10.6666667,18.9333333 L14.2666667,18.9333333 L14.2666667,28 L19.0666667,28 L19.0666667,18.9333333 L22.6666667,18.9333333 L22.6666667,14.4 L19.0666667,14.4 L19.0666667,11.5666667 C19.0666667,10.7846667 19.4386667,9.86666667 20.2666667,9.86666667 L22.6666667,9.86666667 L22.6666667,5.33333333 Z"/>
</svg>
