<svg viewBox="0 0 32 32" xmlns="http://www.w3.org/2000/svg">
  <path fill="#FFFFFF" d="M16,-6.90253292e-31 C7.163444,-3.55271368e-15 -2.95822839e-31,7.163444 -7.10542736e-16,16 C-2.95822839e-31,23.072 4.592,29.072 10.944,31.2 C11.744,31.328 12,30.832 12,30.4 L12,27.696 C7.568,28.656 6.624,25.552 6.624,25.552 C5.888,23.696 4.848,23.2 4.848,23.2 C3.392,22.208 4.96,22.24 4.96,22.24 C6.56,22.352 7.408,23.888 7.408,23.888 C8.8,26.32 11.152,25.6 12.064,25.216 C12.208,24.176 12.624,23.472 13.072,23.072 C9.52,22.672 5.792,21.296 5.792,15.2 C5.792,13.424 6.4,12 7.44,10.864 C7.28,10.464 6.72,8.8 7.6,6.64 C7.6,6.64 8.944,6.208 12,8.272 C13.264,7.92 14.64,7.744 16,7.744 C17.36,7.744 18.736,7.92 20,8.272 C23.056,6.208 24.4,6.64 24.4,6.64 C25.28,8.8 24.72,10.464 24.56,10.864 C25.6,12 26.208,13.424 26.208,15.2 C26.208,21.312 22.464,22.656 18.896,23.056 C19.472,23.552 20,24.528 20,26.016 L20,30.4 C20,30.832 20.256,31.344 21.072,31.2 C27.424,29.056 32,23.072 32,16 C32,11.7565362 30.3142906,7.68687356 27.3137085,4.6862915 C24.3131264,1.68570945 20.2434638,-3.55271368e-16 16,-7.10542736e-16 L16,-6.90253292e-31 Z"/>
</svg>
