<svg viewBox="0 0 32 32" xmlns="http://www.w3.org/2000/svg">
  <g fill="#FFFFFF">
    <path d="M16,32 C7.163444,32 0,24.836556 0,16 C0,7.163444 7.163444,0 16,0 C24.836556,0 32,7.163444 32,16 C32,24.836556 24.836556,32 16,32 Z M11.8,6 L11.8,6 C8.59674845,6 6,8.59674845 6,11.8 L6,20.2 C6,23.4 8.6,26 11.8,26 L20.2,26 C23.4032515,26 26,23.4032515 26,20.2 L26,11.8 C26,8.6 23.4,6 20.2,6 L11.8,6 Z" id="blCombined-Shape"/>
    <path d="M11.6,8 L20.4,8 C22.39,8 24,9.61 24,11.6 L24,20.4 C24,22.3882251 22.3882251,24 20.4,24 L11.6,24 C9.61,24 8,22.39 8,20.4 L8,11.6 C8,9.6117749 9.6117749,8 11.6,8 Z M21.25,9.5 C20.5596441,9.5 20,10.0596441 20,10.75 C20,11.4403559 20.5596441,12 21.25,12 C21.9403559,12 22.5,11.4403559 22.5,10.75 C22.5,10.0596441 21.9403559,9.5 21.25,9.5 Z M16,11 L16,11 C13.2385763,11 11,13.2385763 11,16 C11,18.7614237 13.2385763,21 16,21 C18.7614237,21 21,18.7614237 21,16 C21,13.2385763 18.7614237,11 16,11 Z" id="blCombined-Shape"/>
    <path d="M16,13 C14.3431458,13 13,14.3431458 13,16 C13,17.6568542 14.3431458,19 16,19 C17.6568542,19 19,17.6568542 19,16 C19,14.3431458 17.6568542,13 16,13 Z" id="blShape"/>
  </g>
</svg>
