<svg id="Layer_1" data-name="Layer 1" xmlns="http://www.w3.org/2000/svg" viewBox="0 0 24 24">
  <defs>
    <style>
      .cls-1 {
        fill: none;
      }

      .cls-2 {
        fill: #fff;
      }
    </style>
  </defs>
  <title>4def2330-1322-4f97-bce0-2f128536f1fb</title>
  <rect class="cls-1" width="24" height="24"/>
  <path class="cls-2" d="M21,8s-3,1-3-2V3a1,1,0,0,0-1-1H14c-3,0-2,3-2,3A2,2,0,0,1,8,5S9,2,6,2H3A1,1,0,0,0,2,3V6C2,9,5,8,5,8a2,2,0,0,1,0,4s-3-1-3,2v3a1,1,0,0,0,1,1H6c3,0,2,3,2,3a2,2,0,0,0,4,0s-1-3,2-3h3a1,1,0,0,0,1-1V14c0-3,3-2,3-2a2,2,0,0,0,0-4Z"/>
</svg>
