<svg id="Layer_1" data-name="Layer 1" xmlns="http://www.w3.org/2000/svg" viewBox="0 0 24 24">
  <defs>
    <style>
      .cls-1 {
        fill: #fff;
      }

      .cls-2 {
        fill: none;
      }
    </style>
  </defs>
  <title>bea14c40-229c-4277-a27f-d60338d325f5</title>
  <path id="path7" class="cls-1" d="M12.007,2A4.963,4.963,0,0,0,7.044,6.963V8.818c-.962.172-1.932.41-1.932.713v9.722a.444.444,0,0,0,.3.391c1.1.436,5.4,1.962,6.389,2.311A.485.485,0,0,0,12,22a.471.471,0,0,0,.2-.044c.986-.349,5.306-1.878,6.4-2.31a.455.455,0,0,0,.291-.389V9.532c0-.3-.957-.542-1.919-.714V6.962A4.962,4.962,0,0,0,12.007,2Zm0,2.372A2.392,2.392,0,0,1,14.6,6.963V8.579a33.871,33.871,0,0,0-5.187,0V6.963A2.393,2.393,0,0,1,12.007,4.372ZM12,10.965c2.255,0,4.151.172,4.151.493v6.057c0,.088-.014.1-.1.135S12.2,19.045,12.2,19.045a1.265,1.265,0,0,1-.2.051,1.167,1.167,0,0,1-.2-.054s-3.77-1.362-3.855-1.394-.1-.048-.1-.137V11.458C7.847,11.128,9.745,10.962,12,10.965Z"/>
  <rect class="cls-2" width="24" height="24"/>
</svg>
