<svg id="Layer_1" data-name="Layer 1" xmlns="http://www.w3.org/2000/svg" viewBox="0 0 24 24">
  <defs>
    <style>
      .cls-1 {
        fill: #fff;
      }

      .cls-2 {
        fill: none;
      }
    </style>
  </defs>
  <title>770e3155-7634-4b44-965d-ccb7195c9cb8</title>
  <path class="cls-1" d="M22.521,17.167,12.852,2.406a.857.857,0,0,0-1.361,0L1.823,17.167A.825.825,0,0,0,2.3,18.415l9.669,3.628a.812.812,0,0,0,.417,0l9.669-3.628a.825.825,0,0,0,.463-1.247ZM12.163,8.9A3.261,3.261,0,1,1,8.9,12.156,3.261,3.261,0,0,1,12.163,8.9Zm0,9.877c-3.247,0-6.7-.939-6.7-2.685,0-1.048,1.247-1.814,2.948-2.268a4.113,4.113,0,0,0,.408.7c-1.66.39-2.6,1.029-2.6,1.542a1.025,1.025,0,0,0,.544.726.657.657,0,0,1,.1-.19,5.151,5.151,0,0,1,3.02-1.043,4.082,4.082,0,0,0,4.535,0A5.084,5.084,0,0,1,17.437,16.6a.617.617,0,0,1,.109.2,1.025,1.025,0,0,0,.544-.726c0-.512-.943-1.152-2.608-1.542a4.05,4.05,0,0,0,.408-.7c1.7.454,2.948,1.2,2.948,2.268.018,1.746-3.433,2.685-6.68,2.685Z"/>
  <rect class="cls-2" width="24" height="24"/>
</svg>
