<svg id="Layer_1" data-name="Layer 1" xmlns="http://www.w3.org/2000/svg" viewBox="0 0 24 24">
  <defs>
    <style>
      .cls-1 {
        fill: none;
      }

      .cls-2 {
        fill: #fff;
      }
    </style>
  </defs>
  <title>405250a0-8aac-4199-8932-61078aa77b6d</title>
  <path class="cls-1" d="M0,0H24V24H0Z"/>
  <path class="cls-2" d="M21,18v1a2.006,2.006,0,0,1-2,2H5a2,2,0,0,1-2-2V5A2,2,0,0,1,5,3H19a2.006,2.006,0,0,1,2,2V6H12a2,2,0,0,0-2,2v8a2,2,0,0,0,2,2Zm-9-2H22V8H12Zm4-2.5A1.5,1.5,0,1,1,17.5,12,1.5,1.5,0,0,1,16,13.5Z"/>
</svg>
