<?xml version="1.0" encoding="UTF-8"?>
<svg width="68px" height="46px" viewBox="0 0 109.9 74.93" version="1.1" xmlns="http://www.w3.org/2000/svg"
     xmlns:xlink="http://www.w3.org/1999/xlink">
    <defs>
        <style>.aucls-1{fill:#e2a864}.aucls-2{fill:#4a8fb9}</style>
    </defs>
    <path class="aucls-1"
          d="M446 50.54h-95a7.5 7.5 0 0 0-7.45 7.46v60a7.5 7.5 0 0 0 7.49 7.49H446a7.5 7.5 0 0 0 7.49-7.49V58a7.5 7.5 0 0 0-7.49-7.46zM348.54 58a2.5 2.5 0 0 1 2.5-2.5h7.24a12.52 12.52 0 0 1-9.74 9.74V58zm2.5 62.44a2.5 2.5 0 0 1-2.5-2.5v-7.24a12.52 12.52 0 0 1 9.74 9.74H351zm97.41-2.5a2.5 2.5 0 0 1-2.5 2.5h-7.24a12.52 12.52 0 0 1 9.74-9.74v7.3zm0-12.29a17.5 17.5 0 0 0-14.79 14.79h-70.33a17.5 17.5 0 0 0-14.79-14.79V70.32a17.5 17.5 0 0 0 14.79-14.79h70.34a17.5 17.5 0 0 0 14.79 14.79v35.37zm0-40.42a12.52 12.52 0 0 1-9.74-9.74H446a2.5 2.5 0 0 1 2.5 2.5v7.24z"
          transform="translate(-343.55 -50.54)"/>
    <path class="aucls-2"
          d="M398.79 67.81a20.4 20.4 0 1 1-20.4 20.4 20.42 20.42 0 0 1 20.4-20.4m0-4.41a24.81 24.81 0 1 0 24.81 24.81 24.77 24.77 0 0 0-24.81-24.81z"
          transform="translate(-343.55 -50.54)"/>
    <path class="aucls-2"
          d="M408.33 87.65h-8.49v-9.59a2.2 2.2 0 1 0-4.41 0v10.7c0 .22.06.39.06.55a1.88 1.88 0 0 0-.06.55 2.21 2.21 0 0 0 2.2 2.2h10.69a2.2 2.2 0 1 0 .01-4.41z"
          transform="translate(-343.55 -50.54)"/>
</svg>
