<?xml version="1.0" encoding="UTF-8"?>
<svg width="230px" height="144px" viewBox="0 0 230 144" version="1.1" xmlns="http://www.w3.org/2000/svg" xmlns:xlink="http://www.w3.org/1999/xlink">
    <!-- Generator: Sketch 42 (36781) - http://www.bohemiancoding.com/sketch -->
    <title>drawer_bg</title>
    <desc>Created with Sketch.</desc>
    <defs>
        <linearGradient x1="75.8383589%" y1="-8.50598844%" x2="20.3661824%" y2="100%" id="linearGradient-1">
            <stop stop-color="#2D4BA3" offset="0%"></stop>
            <stop stop-color="#262448" offset="100%"></stop>
        </linearGradient>
    </defs>
    <g id="Page-1" stroke="none" stroke-width="1" fill="none" fill-rule="evenodd">
        <g id="drawer_bg">
            <rect id="Rectangle" fill="url(#linearGradient-1)" x="-45" y="-39" width="342" height="227"></rect>
            <g id="Group" opacity="0.9" transform="translate(211.000000, 37.500000) rotate(-31.000000) translate(-211.000000, -37.500000) translate(154.000000, -1.000000)">
                <path d="M108.242486,15.4790263 C103.224432,14.4709342 99.2631892,10.5631842 98.2412973,5.61390789 L105.676973,5.61390789 C107.090162,5.61390789 108.242486,6.74763158 108.242486,8.14376316 L108.242486,15.4790263 Z M108.242486,56.4288421 C100.396,57.5433158 94.1855676,63.6708947 93.0558378,71.4104079 L20.8168108,71.4104079 C19.6870811,63.6708947 13.4766486,57.5433158 5.63016216,56.4288421 L5.63016216,20.5944605 C13.4766486,19.4799868 19.6870811,13.3534211 20.8168108,5.61390789 L93.0558378,5.61390789 C94.1855676,13.3534211 100.396,19.4799868 108.242486,20.5944605 L108.242486,56.4288421 Z M108.242486,68.8795395 C108.242486,70.2766842 107.090162,71.4104079 105.676973,71.4104079 L98.2412973,71.4104079 C99.2631892,66.4601184 103.224432,62.5533816 108.242486,61.5442763 L108.242486,68.8795395 Z M8.19567568,71.4104079 C6.78248649,71.4104079 5.63016216,70.2766842 5.63016216,68.8795395 L5.63016216,61.5442763 C10.6482162,62.5533816 14.6094595,66.4601184 15.6313514,71.4104079 L8.19567568,71.4104079 Z M5.63016216,8.14376316 C5.63016216,6.74763158 6.78248649,5.61390789 8.19567568,5.61390789 L15.6313514,5.61390789 C14.6094595,10.5631842 10.6482162,14.4709342 5.63016216,15.4790263 L5.63016216,8.14376316 Z M105.676973,0.552171053 L8.19567568,0.552171053 C3.952,0.552171053 0.500162162,3.95739474 0.500162162,8.14376316 L0.500162162,68.8795395 C0.500162162,73.0669211 3.952,76.4721447 8.19567568,76.4721447 L105.676973,76.4721447 C109.921676,76.4721447 113.372486,73.0669211 113.372486,68.8795395 L113.372486,8.14376316 C113.372486,3.95739474 109.921676,0.552171053 105.676973,0.552171053 L105.676973,0.552171053 Z" id="Fill-49" fill="#D7A161"></path>
                <path d="M57.2382703,13.5834079 C43.1423243,13.5834079 31.7628649,24.8091974 31.7628649,38.7147895 C31.7628649,52.6213947 43.1423243,63.8471842 57.2382703,63.8471842 C71.3352432,63.8471842 82.7147027,52.6213947 82.7147027,38.7147895 C82.7147027,24.8091974 71.3352432,13.5834079 57.2382703,13.5834079 Z M57.2382703,18.0514342 C68.7871892,18.0514342 78.1855135,27.3218289 78.1855135,38.7147895 C78.1855135,50.1087632 68.7871892,59.3791579 57.2382703,59.3791579 C45.6893514,59.3791579 36.2920541,50.1087632 36.2920541,38.7147895 C36.2920541,27.3218289 45.6893514,18.0514342 57.2382703,18.0514342 L57.2382703,18.0514342 Z" id="Fill-50" fill="#4A86A6"></path>
                <path d="M67.033027,38.1565395 L58.3145946,38.1565395 L58.3145946,28.4393421 C58.3145946,27.2103816 57.2947568,26.2053289 56.05,26.2053289 C54.8042162,26.2053289 53.7854054,27.2103816 53.7854054,28.4393421 L53.7854054,39.2740526 C53.7854054,39.4969474 53.8418919,39.6641184 53.8418919,39.8323026 C53.7854054,39.9994737 53.7854054,40.2233816 53.7854054,40.3905526 C53.7854054,41.6195132 54.8042162,42.6245658 56.05,42.6245658 L67.033027,42.6245658 C68.2777838,42.6245658 69.2976216,41.6195132 69.2976216,40.3905526 C69.2976216,39.1615921 68.2777838,38.1565395 67.033027,38.1565395" id="Fill-51" fill="#4A86A6"></path>
            </g>
            <g id="Group-3" opacity="0.9" transform="translate(-30.000000, -19.000000)">
                <path d="M46.842,16.418 C34.948,11.56 21.425,17.239 16.567,29.134 C11.709,41.028 17.388,54.551 29.283,59.409 C41.177,64.267 54.7,58.588 59.558,46.693 C64.416,34.799 58.737,21.276 46.842,16.418 Z M45.281,20.239 C55.026,24.219 59.717,35.388 55.737,45.132 C51.757,54.877 40.588,59.568 30.844,55.588 C21.099,51.608 16.408,40.439 20.388,30.695 C24.368,20.95 35.537,16.259 45.281,20.239 L45.281,20.239 Z" id="Fill-7" fill="#279FBA"></path>
                <path d="M46.522,40.811 L39.165,37.807 L42.56,29.495 C42.989,28.444 42.481,27.233 41.43,26.804 C40.379,26.374 39.168,26.883 38.739,27.934 L34.954,37.201 C34.875,37.392 34.865,37.555 34.806,37.698 C34.7,37.822 34.622,38.013 34.563,38.156 C34.134,39.207 34.643,40.418 35.694,40.848 L44.961,44.633 C46.012,45.062 47.223,44.553 47.652,43.502 C48.081,42.451 47.572,41.24 46.522,40.811" id="Fill-8" fill="#279FBA"></path>
                <path d="M72.493,51.976 C64.726,70.991 43.015,80.11 24,72.344 C4.985,64.577 -4.134,42.866 3.632,23.851 C11.399,4.836 33.11,-4.283 52.125,3.484 C71.14,11.25 80.259,32.961 72.493,51.976 Z" id="Stroke-9" stroke="#D7A161" stroke-width="5.024"></path>
            </g>
        </g>
    </g>
</svg>